%TF.GenerationSoftware,KiCad,Pcbnew,9.0.7*%
%TF.CreationDate,2026-03-12T10:06:38-04:00*%
%TF.ProjectId,Projet_mi-session,50726f6a-6574-45f6-9d69-2d7365737369,rev?*%
%TF.SameCoordinates,Original*%
%TF.FileFunction,Copper,L1,Top*%
%TF.FilePolarity,Positive*%
%FSLAX46Y46*%
G04 Gerber Fmt 4.6, Leading zero omitted, Abs format (unit mm)*
G04 Created by KiCad (PCBNEW 9.0.7) date 2026-03-12 10:06:38*
%MOMM*%
%LPD*%
G01*
G04 APERTURE LIST*
%TA.AperFunction,ComponentPad*%
%ADD10C,1.600000*%
%TD*%
%TA.AperFunction,ComponentPad*%
%ADD11C,1.700000*%
%TD*%
%TA.AperFunction,ComponentPad*%
%ADD12R,1.700000X1.700000*%
%TD*%
%TA.AperFunction,ComponentPad*%
%ADD13R,1.650000X1.650000*%
%TD*%
%TA.AperFunction,ComponentPad*%
%ADD14C,1.650000*%
%TD*%
%TA.AperFunction,ComponentPad*%
%ADD15C,1.440000*%
%TD*%
%TA.AperFunction,ComponentPad*%
%ADD16R,1.800000X1.800000*%
%TD*%
%TA.AperFunction,ComponentPad*%
%ADD17C,1.800000*%
%TD*%
%TA.AperFunction,Conductor*%
%ADD18C,0.200000*%
%TD*%
G04 APERTURE END LIST*
D10*
%TO.P,R4,1*%
%TO.N,+3.3V*%
X99190000Y-130500000D03*
%TO.P,R4,2*%
%TO.N,Net-(J2-Pin_8)*%
X106810000Y-130500000D03*
%TD*%
D11*
%TO.P,J2,16,Pin_16*%
%TO.N,+3.3V*%
X117500000Y-110340000D03*
%TO.P,J2,15,Pin_15*%
%TO.N,GND*%
X117500000Y-112880000D03*
%TO.P,J2,14,Pin_14*%
%TO.N,unconnected-(J2-Pin_14-Pad14)*%
X117500000Y-115420000D03*
%TO.P,J2,13,Pin_13*%
%TO.N,Net-(J2-Pin_13)*%
X117500000Y-117960000D03*
%TO.P,J2,12,Pin_12*%
%TO.N,unconnected-(J2-Pin_12-Pad12)*%
X117500000Y-120500000D03*
%TO.P,J2,11,Pin_11*%
%TO.N,unconnected-(J2-Pin_11-Pad11)*%
X117500000Y-123040000D03*
%TO.P,J2,10,Pin_10*%
%TO.N,unconnected-(J2-Pin_10-Pad10)*%
X117500000Y-125580000D03*
%TO.P,J2,9,Pin_9*%
%TO.N,unconnected-(J2-Pin_9-Pad9)*%
X117500000Y-128120000D03*
%TO.P,J2,8,Pin_8*%
%TO.N,Net-(J2-Pin_8)*%
X117500000Y-130660000D03*
%TO.P,J2,7,Pin_7*%
%TO.N,unconnected-(J2-Pin_7-Pad7)*%
X117500000Y-133200000D03*
%TO.P,J2,6,Pin_6*%
%TO.N,unconnected-(J2-Pin_6-Pad6)*%
X117500000Y-135740000D03*
%TO.P,J2,5,Pin_5*%
%TO.N,Net-(J2-Pin_5)*%
X117500000Y-138280000D03*
%TO.P,J2,4,Pin_4*%
%TO.N,unconnected-(J2-Pin_4-Pad4)*%
X117500000Y-140820000D03*
%TO.P,J2,3,Pin_3*%
%TO.N,unconnected-(J2-Pin_3-Pad3)*%
X117500000Y-143360000D03*
%TO.P,J2,2,Pin_2*%
%TO.N,Net-(J2-Pin_2)*%
X117500000Y-145900000D03*
D12*
%TO.P,J2,1,Pin_1*%
%TO.N,unconnected-(J2-Pin_1-Pad1)*%
X117500000Y-148440000D03*
%TD*%
D10*
%TO.P,R6,2*%
%TO.N,Net-(J2-Pin_2)*%
X107310000Y-149500000D03*
%TO.P,R6,1*%
%TO.N,+3.3V*%
X99690000Y-149500000D03*
%TD*%
%TO.P,R1,2*%
%TO.N,Net-(J1-Pin_13)*%
X160690000Y-141500000D03*
%TO.P,R1,1*%
%TO.N,Net-(D3-A)*%
X168310000Y-141500000D03*
%TD*%
D11*
%TO.P,J1,16,Pin_16*%
%TO.N,unconnected-(J1-Pin_16-Pad16)*%
X147500000Y-148980000D03*
%TO.P,J1,15,Pin_15*%
%TO.N,GND*%
X147500000Y-146440000D03*
%TO.P,J1,14,Pin_14*%
%TO.N,unconnected-(J1-Pin_14-Pad14)*%
X147500000Y-143900000D03*
%TO.P,J1,13,Pin_13*%
%TO.N,Net-(J1-Pin_13)*%
X147500000Y-141360000D03*
%TO.P,J1,12,Pin_12*%
%TO.N,Net-(J1-Pin_12)*%
X147500000Y-138820000D03*
%TO.P,J1,11,Pin_11*%
%TO.N,Net-(J1-Pin_11)*%
X147500000Y-136280000D03*
%TO.P,J1,10,Pin_10*%
%TO.N,unconnected-(J1-Pin_10-Pad10)*%
X147500000Y-133740000D03*
%TO.P,J1,9,Pin_9*%
%TO.N,unconnected-(J1-Pin_9-Pad9)*%
X147500000Y-131200000D03*
%TO.P,J1,8,Pin_8*%
%TO.N,unconnected-(J1-Pin_8-Pad8)*%
X147500000Y-128660000D03*
%TO.P,J1,7,Pin_7*%
%TO.N,unconnected-(J1-Pin_7-Pad7)*%
X147500000Y-126120000D03*
%TO.P,J1,6,Pin_6*%
%TO.N,Net-(J1-Pin_6)*%
X147500000Y-123580000D03*
%TO.P,J1,5,Pin_5*%
%TO.N,Net-(J1-Pin_5)*%
X147500000Y-121040000D03*
%TO.P,J1,4,Pin_4*%
%TO.N,GND*%
X147500000Y-118500000D03*
%TO.P,J1,3,Pin_3*%
%TO.N,+3.3V*%
X147500000Y-115960000D03*
%TO.P,J1,2,Pin_2*%
%TO.N,unconnected-(J1-Pin_2-Pad2)*%
X147500000Y-113420000D03*
D12*
%TO.P,J1,1,Pin_1*%
%TO.N,unconnected-(J1-Pin_1-Pad1)*%
X147500000Y-110880000D03*
%TD*%
D13*
%TO.P,SW2,1,1*%
%TO.N,Net-(J2-Pin_5)*%
X87500000Y-145000000D03*
D14*
%TO.P,SW2,2,2*%
%TO.N,GND*%
X82500000Y-145000000D03*
%TD*%
D13*
%TO.P,SW1,1,1*%
%TO.N,Net-(J2-Pin_8)*%
X87500000Y-120000000D03*
D14*
%TO.P,SW1,2,2*%
%TO.N,GND*%
X82500000Y-120000000D03*
%TD*%
%TO.P,SW3,2,2*%
%TO.N,GND*%
X83000000Y-162000000D03*
D13*
%TO.P,SW3,1,1*%
%TO.N,Net-(J2-Pin_2)*%
X88000000Y-162000000D03*
%TD*%
D15*
%TO.P,RV1,1,1*%
%TO.N,+3.3V*%
X100420000Y-115500000D03*
%TO.P,RV1,2,2*%
%TO.N,Net-(J2-Pin_13)*%
X102960000Y-118040000D03*
%TO.P,RV1,3,3*%
%TO.N,GND*%
X105500000Y-115500000D03*
%TD*%
D10*
%TO.P,R5,1*%
%TO.N,+3.3V*%
X99190000Y-138000000D03*
%TO.P,R5,2*%
%TO.N,Net-(J2-Pin_5)*%
X106810000Y-138000000D03*
%TD*%
%TO.P,R3,1*%
%TO.N,Net-(D1-A)*%
X168310000Y-127500000D03*
%TO.P,R3,2*%
%TO.N,Net-(J1-Pin_11)*%
X160690000Y-127500000D03*
%TD*%
%TO.P,R2,1*%
%TO.N,Net-(D2-A)*%
X168310000Y-134500000D03*
%TO.P,R2,2*%
%TO.N,Net-(J1-Pin_12)*%
X160690000Y-134500000D03*
%TD*%
D12*
%TO.P,J4,1,Pin_1*%
%TO.N,unconnected-(J4-Pin_1-Pad1)*%
X137000000Y-88500000D03*
D11*
%TO.P,J4,2,Pin_2*%
%TO.N,unconnected-(J4-Pin_2-Pad2)*%
X137000000Y-91040000D03*
%TO.P,J4,3,Pin_3*%
%TO.N,unconnected-(J4-Pin_3-Pad3)*%
X137000000Y-93580000D03*
%TO.P,J4,4,Pin_4*%
%TO.N,unconnected-(J4-Pin_4-Pad4)*%
X137000000Y-96120000D03*
%TO.P,J4,5,Pin_5*%
%TO.N,unconnected-(J4-Pin_5-Pad5)*%
X137000000Y-98660000D03*
%TO.P,J4,6,Pin_6*%
%TO.N,unconnected-(J4-Pin_6-Pad6)*%
X137000000Y-101200000D03*
%TD*%
D12*
%TO.P,J3,1,Pin_1*%
%TO.N,+3.3V*%
X125000000Y-88460000D03*
D11*
%TO.P,J3,2,Pin_2*%
%TO.N,unconnected-(J3-Pin_2-Pad2)*%
X125000000Y-91000000D03*
%TO.P,J3,3,Pin_3*%
%TO.N,GND*%
X125000000Y-93540000D03*
%TO.P,J3,4,Pin_4*%
%TO.N,Net-(J1-Pin_5)*%
X125000000Y-96080000D03*
%TO.P,J3,5,Pin_5*%
%TO.N,Net-(J1-Pin_6)*%
X125000000Y-98620000D03*
%TO.P,J3,6,Pin_6*%
%TO.N,unconnected-(J3-Pin_6-Pad6)*%
X125000000Y-101160000D03*
%TD*%
D16*
%TO.P,D3,1,K*%
%TO.N,GND*%
X182775000Y-147500000D03*
D17*
%TO.P,D3,2,A*%
%TO.N,Net-(D3-A)*%
X180235000Y-147500000D03*
%TD*%
D16*
%TO.P,D2,1,K*%
%TO.N,GND*%
X182500000Y-135000000D03*
D17*
%TO.P,D2,2,A*%
%TO.N,Net-(D2-A)*%
X179960000Y-135000000D03*
%TD*%
D16*
%TO.P,D1,1,K*%
%TO.N,GND*%
X182000000Y-122500000D03*
D17*
%TO.P,D1,2,A*%
%TO.N,Net-(D1-A)*%
X179460000Y-122500000D03*
%TD*%
D18*
%TO.N,GND*%
X117810000Y-113190000D02*
X117500000Y-112880000D01*
X129351000Y-124731000D02*
X117810000Y-113190000D01*
X148651000Y-124056760D02*
X147976760Y-124731000D01*
X148651000Y-119651000D02*
X148651000Y-124056760D01*
X147976760Y-124731000D02*
X129351000Y-124731000D01*
X147500000Y-118500000D02*
X148651000Y-119651000D01*
X147023240Y-135129000D02*
X146349000Y-135803240D01*
X146349000Y-145289000D02*
X147500000Y-146440000D01*
X147976760Y-135129000D02*
X147023240Y-135129000D01*
X149000000Y-120000000D02*
X149000000Y-134105760D01*
X147500000Y-118500000D02*
X149000000Y-120000000D01*
X149000000Y-134105760D02*
X147976760Y-135129000D01*
X146349000Y-135803240D02*
X146349000Y-145289000D01*
X150299000Y-121299000D02*
X147500000Y-118500000D01*
X180799000Y-121299000D02*
X150299000Y-121299000D01*
X182000000Y-122500000D02*
X180799000Y-121299000D01*
X182500000Y-123000000D02*
X182000000Y-122500000D01*
X182500000Y-135000000D02*
X182500000Y-123000000D01*
X182775000Y-135275000D02*
X182500000Y-135000000D01*
X182775000Y-147500000D02*
X182775000Y-135275000D01*
%TO.N,Net-(D3-A)*%
X174235000Y-141500000D02*
X180235000Y-147500000D01*
X168310000Y-141500000D02*
X174235000Y-141500000D01*
%TO.N,Net-(J1-Pin_13)*%
X160550000Y-141360000D02*
X160690000Y-141500000D01*
X147500000Y-141360000D02*
X160550000Y-141360000D01*
%TO.N,Net-(J1-Pin_12)*%
X151820000Y-134500000D02*
X160690000Y-134500000D01*
X147500000Y-138820000D02*
X151820000Y-134500000D01*
%TO.N,Net-(D2-A)*%
X179460000Y-134500000D02*
X179960000Y-135000000D01*
X168310000Y-134500000D02*
X179460000Y-134500000D01*
%TO.N,Net-(D1-A)*%
X174460000Y-127500000D02*
X179460000Y-122500000D01*
X168310000Y-127500000D02*
X174460000Y-127500000D01*
%TO.N,Net-(J1-Pin_11)*%
X156280000Y-127500000D02*
X160690000Y-127500000D01*
X147500000Y-136280000D02*
X156280000Y-127500000D01*
%TO.N,Net-(J1-Pin_6)*%
X146349000Y-122429000D02*
X147500000Y-123580000D01*
X146349000Y-120563240D02*
X146349000Y-122429000D01*
X125000000Y-99214240D02*
X146349000Y-120563240D01*
X125000000Y-98620000D02*
X125000000Y-99214240D01*
%TO.N,Net-(J1-Pin_5)*%
X126151000Y-99691000D02*
X147500000Y-121040000D01*
X126151000Y-97231000D02*
X126151000Y-99691000D01*
X125000000Y-96080000D02*
X126151000Y-97231000D01*
%TO.N,GND*%
X123500000Y-106880000D02*
X117500000Y-112880000D01*
X123500000Y-95040000D02*
X123500000Y-106880000D01*
X125000000Y-93540000D02*
X123500000Y-95040000D01*
%TO.N,+3.3V*%
X117500000Y-95960000D02*
X125000000Y-88460000D01*
X117500000Y-110340000D02*
X117500000Y-95960000D01*
X105580000Y-110340000D02*
X117500000Y-110340000D01*
X100420000Y-115500000D02*
X105580000Y-110340000D01*
%TO.N,Net-(J2-Pin_13)*%
X117420000Y-118040000D02*
X117500000Y-117960000D01*
X102960000Y-118040000D02*
X117420000Y-118040000D01*
%TO.N,GND*%
X114880000Y-115500000D02*
X117500000Y-112880000D01*
X105500000Y-115500000D02*
X114880000Y-115500000D01*
%TO.N,Net-(J2-Pin_5)*%
X117220000Y-138000000D02*
X117500000Y-138280000D01*
X106810000Y-138000000D02*
X117220000Y-138000000D01*
%TO.N,+3.3V*%
X89748000Y-115500000D02*
X100420000Y-115500000D01*
X86374000Y-118874000D02*
X89748000Y-115500000D01*
X86374000Y-121126000D02*
X86374000Y-118874000D01*
X95748000Y-130500000D02*
X86374000Y-121126000D01*
X99190000Y-130500000D02*
X95748000Y-130500000D01*
X99190000Y-138000000D02*
X99190000Y-130500000D01*
X99690000Y-138500000D02*
X99190000Y-138000000D01*
X99690000Y-149500000D02*
X99690000Y-138500000D01*
%TO.N,Net-(J2-Pin_2)*%
X113900000Y-149500000D02*
X117500000Y-145900000D01*
X107310000Y-149500000D02*
X113900000Y-149500000D01*
X94810000Y-162000000D02*
X107310000Y-149500000D01*
X88000000Y-162000000D02*
X94810000Y-162000000D01*
%TO.N,GND*%
X82500000Y-161500000D02*
X83000000Y-162000000D01*
X82500000Y-145000000D02*
X82500000Y-161500000D01*
X82500000Y-120000000D02*
X82500000Y-145000000D01*
%TO.N,Net-(J2-Pin_8)*%
X117340000Y-130500000D02*
X117500000Y-130660000D01*
X106810000Y-130500000D02*
X117340000Y-130500000D01*
X96310000Y-120000000D02*
X106810000Y-130500000D01*
X87500000Y-120000000D02*
X96310000Y-120000000D01*
%TD*%
M02*
