%TF.GenerationSoftware,KiCad,Pcbnew,9.0.7*%
%TF.CreationDate,2026-03-12T10:06:38-04:00*%
%TF.ProjectId,Projet_mi-session,50726f6a-6574-45f6-9d69-2d7365737369,rev?*%
%TF.SameCoordinates,Original*%
%TF.FileFunction,Copper,L2,Bot*%
%TF.FilePolarity,Positive*%
%FSLAX46Y46*%
G04 Gerber Fmt 4.6, Leading zero omitted, Abs format (unit mm)*
G04 Created by KiCad (PCBNEW 9.0.7) date 2026-03-12 10:06:38*
%MOMM*%
%LPD*%
G01*
G04 APERTURE LIST*
%TA.AperFunction,ComponentPad*%
%ADD10C,1.600000*%
%TD*%
%TA.AperFunction,ComponentPad*%
%ADD11C,1.700000*%
%TD*%
%TA.AperFunction,ComponentPad*%
%ADD12R,1.700000X1.700000*%
%TD*%
%TA.AperFunction,ComponentPad*%
%ADD13R,1.650000X1.650000*%
%TD*%
%TA.AperFunction,ComponentPad*%
%ADD14C,1.650000*%
%TD*%
%TA.AperFunction,ComponentPad*%
%ADD15C,1.440000*%
%TD*%
%TA.AperFunction,ComponentPad*%
%ADD16R,1.800000X1.800000*%
%TD*%
%TA.AperFunction,ComponentPad*%
%ADD17C,1.800000*%
%TD*%
%TA.AperFunction,Conductor*%
%ADD18C,0.200000*%
%TD*%
G04 APERTURE END LIST*
D10*
%TO.P,R4,1*%
%TO.N,+3.3V*%
X99190000Y-130500000D03*
%TO.P,R4,2*%
%TO.N,Net-(J2-Pin_8)*%
X106810000Y-130500000D03*
%TD*%
D11*
%TO.P,J2,16,Pin_16*%
%TO.N,+3.3V*%
X117500000Y-110340000D03*
%TO.P,J2,15,Pin_15*%
%TO.N,GND*%
X117500000Y-112880000D03*
%TO.P,J2,14,Pin_14*%
%TO.N,unconnected-(J2-Pin_14-Pad14)*%
X117500000Y-115420000D03*
%TO.P,J2,13,Pin_13*%
%TO.N,Net-(J2-Pin_13)*%
X117500000Y-117960000D03*
%TO.P,J2,12,Pin_12*%
%TO.N,unconnected-(J2-Pin_12-Pad12)*%
X117500000Y-120500000D03*
%TO.P,J2,11,Pin_11*%
%TO.N,unconnected-(J2-Pin_11-Pad11)*%
X117500000Y-123040000D03*
%TO.P,J2,10,Pin_10*%
%TO.N,unconnected-(J2-Pin_10-Pad10)*%
X117500000Y-125580000D03*
%TO.P,J2,9,Pin_9*%
%TO.N,unconnected-(J2-Pin_9-Pad9)*%
X117500000Y-128120000D03*
%TO.P,J2,8,Pin_8*%
%TO.N,Net-(J2-Pin_8)*%
X117500000Y-130660000D03*
%TO.P,J2,7,Pin_7*%
%TO.N,unconnected-(J2-Pin_7-Pad7)*%
X117500000Y-133200000D03*
%TO.P,J2,6,Pin_6*%
%TO.N,unconnected-(J2-Pin_6-Pad6)*%
X117500000Y-135740000D03*
%TO.P,J2,5,Pin_5*%
%TO.N,Net-(J2-Pin_5)*%
X117500000Y-138280000D03*
%TO.P,J2,4,Pin_4*%
%TO.N,unconnected-(J2-Pin_4-Pad4)*%
X117500000Y-140820000D03*
%TO.P,J2,3,Pin_3*%
%TO.N,unconnected-(J2-Pin_3-Pad3)*%
X117500000Y-143360000D03*
%TO.P,J2,2,Pin_2*%
%TO.N,Net-(J2-Pin_2)*%
X117500000Y-145900000D03*
D12*
%TO.P,J2,1,Pin_1*%
%TO.N,unconnected-(J2-Pin_1-Pad1)*%
X117500000Y-148440000D03*
%TD*%
D10*
%TO.P,R6,2*%
%TO.N,Net-(J2-Pin_2)*%
X107310000Y-149500000D03*
%TO.P,R6,1*%
%TO.N,+3.3V*%
X99690000Y-149500000D03*
%TD*%
%TO.P,R1,2*%
%TO.N,Net-(J1-Pin_13)*%
X160690000Y-141500000D03*
%TO.P,R1,1*%
%TO.N,Net-(D3-A)*%
X168310000Y-141500000D03*
%TD*%
D11*
%TO.P,J1,16,Pin_16*%
%TO.N,unconnected-(J1-Pin_16-Pad16)*%
X147500000Y-148980000D03*
%TO.P,J1,15,Pin_15*%
%TO.N,GND*%
X147500000Y-146440000D03*
%TO.P,J1,14,Pin_14*%
%TO.N,unconnected-(J1-Pin_14-Pad14)*%
X147500000Y-143900000D03*
%TO.P,J1,13,Pin_13*%
%TO.N,Net-(J1-Pin_13)*%
X147500000Y-141360000D03*
%TO.P,J1,12,Pin_12*%
%TO.N,Net-(J1-Pin_12)*%
X147500000Y-138820000D03*
%TO.P,J1,11,Pin_11*%
%TO.N,Net-(J1-Pin_11)*%
X147500000Y-136280000D03*
%TO.P,J1,10,Pin_10*%
%TO.N,unconnected-(J1-Pin_10-Pad10)*%
X147500000Y-133740000D03*
%TO.P,J1,9,Pin_9*%
%TO.N,unconnected-(J1-Pin_9-Pad9)*%
X147500000Y-131200000D03*
%TO.P,J1,8,Pin_8*%
%TO.N,unconnected-(J1-Pin_8-Pad8)*%
X147500000Y-128660000D03*
%TO.P,J1,7,Pin_7*%
%TO.N,unconnected-(J1-Pin_7-Pad7)*%
X147500000Y-126120000D03*
%TO.P,J1,6,Pin_6*%
%TO.N,Net-(J1-Pin_6)*%
X147500000Y-123580000D03*
%TO.P,J1,5,Pin_5*%
%TO.N,Net-(J1-Pin_5)*%
X147500000Y-121040000D03*
%TO.P,J1,4,Pin_4*%
%TO.N,GND*%
X147500000Y-118500000D03*
%TO.P,J1,3,Pin_3*%
%TO.N,+3.3V*%
X147500000Y-115960000D03*
%TO.P,J1,2,Pin_2*%
%TO.N,unconnected-(J1-Pin_2-Pad2)*%
X147500000Y-113420000D03*
D12*
%TO.P,J1,1,Pin_1*%
%TO.N,unconnected-(J1-Pin_1-Pad1)*%
X147500000Y-110880000D03*
%TD*%
D13*
%TO.P,SW2,1,1*%
%TO.N,Net-(J2-Pin_5)*%
X87500000Y-145000000D03*
D14*
%TO.P,SW2,2,2*%
%TO.N,GND*%
X82500000Y-145000000D03*
%TD*%
D13*
%TO.P,SW1,1,1*%
%TO.N,Net-(J2-Pin_8)*%
X87500000Y-120000000D03*
D14*
%TO.P,SW1,2,2*%
%TO.N,GND*%
X82500000Y-120000000D03*
%TD*%
%TO.P,SW3,2,2*%
%TO.N,GND*%
X83000000Y-162000000D03*
D13*
%TO.P,SW3,1,1*%
%TO.N,Net-(J2-Pin_2)*%
X88000000Y-162000000D03*
%TD*%
D15*
%TO.P,RV1,1,1*%
%TO.N,+3.3V*%
X100420000Y-115500000D03*
%TO.P,RV1,2,2*%
%TO.N,Net-(J2-Pin_13)*%
X102960000Y-118040000D03*
%TO.P,RV1,3,3*%
%TO.N,GND*%
X105500000Y-115500000D03*
%TD*%
D10*
%TO.P,R5,1*%
%TO.N,+3.3V*%
X99190000Y-138000000D03*
%TO.P,R5,2*%
%TO.N,Net-(J2-Pin_5)*%
X106810000Y-138000000D03*
%TD*%
%TO.P,R3,1*%
%TO.N,Net-(D1-A)*%
X168310000Y-127500000D03*
%TO.P,R3,2*%
%TO.N,Net-(J1-Pin_11)*%
X160690000Y-127500000D03*
%TD*%
%TO.P,R2,1*%
%TO.N,Net-(D2-A)*%
X168310000Y-134500000D03*
%TO.P,R2,2*%
%TO.N,Net-(J1-Pin_12)*%
X160690000Y-134500000D03*
%TD*%
D12*
%TO.P,J4,1,Pin_1*%
%TO.N,unconnected-(J4-Pin_1-Pad1)*%
X137000000Y-88500000D03*
D11*
%TO.P,J4,2,Pin_2*%
%TO.N,unconnected-(J4-Pin_2-Pad2)*%
X137000000Y-91040000D03*
%TO.P,J4,3,Pin_3*%
%TO.N,unconnected-(J4-Pin_3-Pad3)*%
X137000000Y-93580000D03*
%TO.P,J4,4,Pin_4*%
%TO.N,unconnected-(J4-Pin_4-Pad4)*%
X137000000Y-96120000D03*
%TO.P,J4,5,Pin_5*%
%TO.N,unconnected-(J4-Pin_5-Pad5)*%
X137000000Y-98660000D03*
%TO.P,J4,6,Pin_6*%
%TO.N,unconnected-(J4-Pin_6-Pad6)*%
X137000000Y-101200000D03*
%TD*%
D12*
%TO.P,J3,1,Pin_1*%
%TO.N,+3.3V*%
X125000000Y-88460000D03*
D11*
%TO.P,J3,2,Pin_2*%
%TO.N,unconnected-(J3-Pin_2-Pad2)*%
X125000000Y-91000000D03*
%TO.P,J3,3,Pin_3*%
%TO.N,GND*%
X125000000Y-93540000D03*
%TO.P,J3,4,Pin_4*%
%TO.N,Net-(J1-Pin_5)*%
X125000000Y-96080000D03*
%TO.P,J3,5,Pin_5*%
%TO.N,Net-(J1-Pin_6)*%
X125000000Y-98620000D03*
%TO.P,J3,6,Pin_6*%
%TO.N,unconnected-(J3-Pin_6-Pad6)*%
X125000000Y-101160000D03*
%TD*%
D16*
%TO.P,D3,1,K*%
%TO.N,GND*%
X182775000Y-147500000D03*
D17*
%TO.P,D3,2,A*%
%TO.N,Net-(D3-A)*%
X180235000Y-147500000D03*
%TD*%
D16*
%TO.P,D2,1,K*%
%TO.N,GND*%
X182500000Y-135000000D03*
D17*
%TO.P,D2,2,A*%
%TO.N,Net-(D2-A)*%
X179960000Y-135000000D03*
%TD*%
D16*
%TO.P,D1,1,K*%
%TO.N,GND*%
X182000000Y-122500000D03*
D17*
%TO.P,D1,2,A*%
%TO.N,Net-(D1-A)*%
X179460000Y-122500000D03*
%TD*%
D18*
%TO.N,Net-(J2-Pin_5)*%
X99810000Y-145000000D02*
X106810000Y-138000000D01*
X87500000Y-145000000D02*
X99810000Y-145000000D01*
%TO.N,GND*%
X103981000Y-117019000D02*
X105500000Y-115500000D01*
X85481000Y-117019000D02*
X103981000Y-117019000D01*
X82500000Y-120000000D02*
X85481000Y-117019000D01*
%TO.N,+3.3V*%
X117500000Y-110340000D02*
X123120000Y-115960000D01*
X123120000Y-115960000D02*
X147500000Y-115960000D01*
%TD*%
%TA.AperFunction,Conductor*%
%TO.N,GND*%
G36*
X192958691Y-76019407D02*
G01*
X192994655Y-76068907D01*
X192999500Y-76099500D01*
X192999500Y-172900500D01*
X192980593Y-172958691D01*
X192931093Y-172994655D01*
X192900500Y-172999500D01*
X72599500Y-172999500D01*
X72541309Y-172980593D01*
X72505345Y-172931093D01*
X72500500Y-172900500D01*
X72500500Y-161895716D01*
X81675000Y-161895716D01*
X81675000Y-162104283D01*
X81707624Y-162310267D01*
X81772073Y-162508620D01*
X81866758Y-162694450D01*
X81866762Y-162694456D01*
X81902626Y-162743818D01*
X82476211Y-162170232D01*
X82487482Y-162212292D01*
X82559890Y-162337708D01*
X82662292Y-162440110D01*
X82787708Y-162512518D01*
X82829764Y-162523787D01*
X82256180Y-163097371D01*
X82256180Y-163097372D01*
X82305543Y-163133237D01*
X82305549Y-163133241D01*
X82491379Y-163227926D01*
X82689732Y-163292375D01*
X82895717Y-163325000D01*
X83104283Y-163325000D01*
X83310267Y-163292375D01*
X83508623Y-163227925D01*
X83694450Y-163133240D01*
X83743818Y-163097372D01*
X83170233Y-162523787D01*
X83212292Y-162512518D01*
X83337708Y-162440110D01*
X83440110Y-162337708D01*
X83512518Y-162212292D01*
X83523787Y-162170233D01*
X84097372Y-162743818D01*
X84133240Y-162694450D01*
X84227925Y-162508623D01*
X84292375Y-162310267D01*
X84325000Y-162104283D01*
X84325000Y-161895716D01*
X84292375Y-161689732D01*
X84227926Y-161491379D01*
X84133241Y-161305549D01*
X84133237Y-161305543D01*
X84097372Y-161256180D01*
X84097371Y-161256180D01*
X83523787Y-161829764D01*
X83512518Y-161787708D01*
X83440110Y-161662292D01*
X83337708Y-161559890D01*
X83212292Y-161487482D01*
X83170232Y-161476211D01*
X83516315Y-161130130D01*
X86874500Y-161130130D01*
X86874500Y-162869860D01*
X86874501Y-162869863D01*
X86877414Y-162894990D01*
X86902756Y-162952385D01*
X86922794Y-162997765D01*
X87002235Y-163077206D01*
X87105009Y-163122585D01*
X87130135Y-163125500D01*
X88869864Y-163125499D01*
X88894991Y-163122585D01*
X88997765Y-163077206D01*
X89077206Y-162997765D01*
X89122585Y-162894991D01*
X89125500Y-162869865D01*
X89125499Y-161130136D01*
X89122585Y-161105009D01*
X89077206Y-161002235D01*
X88997765Y-160922794D01*
X88894991Y-160877415D01*
X88894990Y-160877414D01*
X88894988Y-160877414D01*
X88869868Y-160874500D01*
X87130139Y-160874500D01*
X87130136Y-160874501D01*
X87105009Y-160877414D01*
X87002235Y-160922794D01*
X86922794Y-161002235D01*
X86877414Y-161105011D01*
X86874500Y-161130130D01*
X83516315Y-161130130D01*
X83589173Y-161057272D01*
X83743818Y-160902626D01*
X83694456Y-160866762D01*
X83694450Y-160866758D01*
X83508620Y-160772073D01*
X83310267Y-160707624D01*
X83104283Y-160675000D01*
X82895717Y-160675000D01*
X82689732Y-160707624D01*
X82491379Y-160772073D01*
X82305555Y-160866755D01*
X82256181Y-160902627D01*
X82829766Y-161476212D01*
X82787708Y-161487482D01*
X82662292Y-161559890D01*
X82559890Y-161662292D01*
X82487482Y-161787708D01*
X82476212Y-161829766D01*
X81902627Y-161256181D01*
X81866755Y-161305555D01*
X81772073Y-161491379D01*
X81707624Y-161689732D01*
X81675000Y-161895716D01*
X72500500Y-161895716D01*
X72500500Y-149413385D01*
X98589500Y-149413385D01*
X98589500Y-149586614D01*
X98616597Y-149757702D01*
X98616598Y-149757706D01*
X98670123Y-149922438D01*
X98670125Y-149922441D01*
X98670126Y-149922444D01*
X98670127Y-149922445D01*
X98748768Y-150076788D01*
X98850586Y-150216928D01*
X98973072Y-150339414D01*
X99113212Y-150441232D01*
X99267555Y-150519873D01*
X99267557Y-150519873D01*
X99267558Y-150519874D01*
X99267561Y-150519876D01*
X99432293Y-150573401D01*
X99432297Y-150573402D01*
X99603386Y-150600500D01*
X99603389Y-150600500D01*
X99776614Y-150600500D01*
X99947702Y-150573402D01*
X99947706Y-150573401D01*
X100112438Y-150519876D01*
X100112440Y-150519874D01*
X100112445Y-150519873D01*
X100266788Y-150441232D01*
X100406928Y-150339414D01*
X100529414Y-150216928D01*
X100631232Y-150076788D01*
X100709873Y-149922445D01*
X100709874Y-149922440D01*
X100709876Y-149922438D01*
X100763401Y-149757706D01*
X100763402Y-149757702D01*
X100790500Y-149586614D01*
X100790500Y-149413385D01*
X106209500Y-149413385D01*
X106209500Y-149586614D01*
X106236597Y-149757702D01*
X106236598Y-149757706D01*
X106290123Y-149922438D01*
X106290125Y-149922441D01*
X106290126Y-149922444D01*
X106290127Y-149922445D01*
X106368768Y-150076788D01*
X106470586Y-150216928D01*
X106593072Y-150339414D01*
X106733212Y-150441232D01*
X106887555Y-150519873D01*
X106887557Y-150519873D01*
X106887558Y-150519874D01*
X106887561Y-150519876D01*
X107052293Y-150573401D01*
X107052297Y-150573402D01*
X107223386Y-150600500D01*
X107223389Y-150600500D01*
X107396614Y-150600500D01*
X107567702Y-150573402D01*
X107567706Y-150573401D01*
X107732438Y-150519876D01*
X107732440Y-150519874D01*
X107732445Y-150519873D01*
X107886788Y-150441232D01*
X108026928Y-150339414D01*
X108149414Y-150216928D01*
X108251232Y-150076788D01*
X108329873Y-149922445D01*
X108329874Y-149922440D01*
X108329876Y-149922438D01*
X108383401Y-149757706D01*
X108383402Y-149757702D01*
X108410500Y-149586614D01*
X108410500Y-149413385D01*
X108383402Y-149242297D01*
X108383401Y-149242293D01*
X108329876Y-149077561D01*
X108329874Y-149077558D01*
X108329873Y-149077557D01*
X108329873Y-149077555D01*
X108251232Y-148923212D01*
X108149414Y-148783072D01*
X108026928Y-148660586D01*
X107886788Y-148558768D01*
X107886787Y-148558767D01*
X107886785Y-148558766D01*
X107732441Y-148480125D01*
X107732438Y-148480123D01*
X107567706Y-148426598D01*
X107567702Y-148426597D01*
X107396614Y-148399500D01*
X107396611Y-148399500D01*
X107223389Y-148399500D01*
X107223386Y-148399500D01*
X107052297Y-148426597D01*
X107052293Y-148426598D01*
X106887561Y-148480123D01*
X106887558Y-148480125D01*
X106733214Y-148558766D01*
X106593073Y-148660585D01*
X106470585Y-148783073D01*
X106368766Y-148923214D01*
X106290125Y-149077558D01*
X106290123Y-149077561D01*
X106236598Y-149242293D01*
X106236597Y-149242297D01*
X106209500Y-149413385D01*
X100790500Y-149413385D01*
X100763402Y-149242297D01*
X100763401Y-149242293D01*
X100709876Y-149077561D01*
X100709874Y-149077558D01*
X100709873Y-149077557D01*
X100709873Y-149077555D01*
X100631232Y-148923212D01*
X100529414Y-148783072D01*
X100406928Y-148660586D01*
X100266788Y-148558768D01*
X100266787Y-148558767D01*
X100266785Y-148558766D01*
X100112441Y-148480125D01*
X100112438Y-148480123D01*
X99947706Y-148426598D01*
X99947702Y-148426597D01*
X99776614Y-148399500D01*
X99776611Y-148399500D01*
X99603389Y-148399500D01*
X99603386Y-148399500D01*
X99432297Y-148426597D01*
X99432293Y-148426598D01*
X99267561Y-148480123D01*
X99267558Y-148480125D01*
X99113214Y-148558766D01*
X98973073Y-148660585D01*
X98850585Y-148783073D01*
X98748766Y-148923214D01*
X98670125Y-149077558D01*
X98670123Y-149077561D01*
X98616598Y-149242293D01*
X98616597Y-149242297D01*
X98589500Y-149413385D01*
X72500500Y-149413385D01*
X72500500Y-147545130D01*
X116349500Y-147545130D01*
X116349500Y-149334860D01*
X116349501Y-149334863D01*
X116352414Y-149359990D01*
X116375991Y-149413385D01*
X116397794Y-149462765D01*
X116477235Y-149542206D01*
X116580009Y-149587585D01*
X116605135Y-149590500D01*
X118394864Y-149590499D01*
X118419991Y-149587585D01*
X118522765Y-149542206D01*
X118602206Y-149462765D01*
X118647585Y-149359991D01*
X118650500Y-149334865D01*
X118650499Y-148426598D01*
X118650499Y-147545139D01*
X118650499Y-147545136D01*
X118647585Y-147520009D01*
X118602206Y-147417235D01*
X118522765Y-147337794D01*
X118419991Y-147292415D01*
X118419990Y-147292414D01*
X118419988Y-147292414D01*
X118394868Y-147289500D01*
X116605139Y-147289500D01*
X116605136Y-147289501D01*
X116580009Y-147292414D01*
X116477235Y-147337794D01*
X116397794Y-147417235D01*
X116352414Y-147520011D01*
X116349500Y-147545130D01*
X72500500Y-147545130D01*
X72500500Y-144895716D01*
X81175000Y-144895716D01*
X81175000Y-145104283D01*
X81207624Y-145310267D01*
X81272073Y-145508620D01*
X81366758Y-145694450D01*
X81366762Y-145694456D01*
X81402626Y-145743818D01*
X81976211Y-145170232D01*
X81987482Y-145212292D01*
X82059890Y-145337708D01*
X82162292Y-145440110D01*
X82287708Y-145512518D01*
X82329764Y-145523787D01*
X81756180Y-146097371D01*
X81756180Y-146097372D01*
X81805543Y-146133237D01*
X81805549Y-146133241D01*
X81991379Y-146227926D01*
X82189732Y-146292375D01*
X82395717Y-146325000D01*
X82604283Y-146325000D01*
X82810267Y-146292375D01*
X83008623Y-146227925D01*
X83194450Y-146133240D01*
X83243818Y-146097372D01*
X82670233Y-145523787D01*
X82712292Y-145512518D01*
X82837708Y-145440110D01*
X82940110Y-145337708D01*
X83012518Y-145212292D01*
X83023787Y-145170233D01*
X83597372Y-145743818D01*
X83633240Y-145694450D01*
X83727925Y-145508623D01*
X83792375Y-145310267D01*
X83825000Y-145104283D01*
X83825000Y-144895716D01*
X83792375Y-144689732D01*
X83727926Y-144491379D01*
X83633241Y-144305549D01*
X83633237Y-144305543D01*
X83597372Y-144256180D01*
X83597371Y-144256180D01*
X83023787Y-144829764D01*
X83012518Y-144787708D01*
X82940110Y-144662292D01*
X82837708Y-144559890D01*
X82712292Y-144487482D01*
X82670232Y-144476211D01*
X83016315Y-144130130D01*
X86374500Y-144130130D01*
X86374500Y-144130132D01*
X86374500Y-144130135D01*
X86374501Y-145869864D01*
X86374838Y-145872777D01*
X86377414Y-145894990D01*
X86389245Y-145921784D01*
X86422794Y-145997765D01*
X86502235Y-146077206D01*
X86605009Y-146122585D01*
X86630135Y-146125500D01*
X88369864Y-146125499D01*
X88394991Y-146122585D01*
X88497765Y-146077206D01*
X88577206Y-145997765D01*
X88622585Y-145894991D01*
X88625500Y-145869865D01*
X88625500Y-145809450D01*
X116349500Y-145809450D01*
X116349500Y-145990549D01*
X116377828Y-146169406D01*
X116433788Y-146341637D01*
X116510722Y-146492629D01*
X116516004Y-146502994D01*
X116622447Y-146649501D01*
X116750499Y-146777553D01*
X116897006Y-146883996D01*
X117058361Y-146966211D01*
X117230591Y-147022171D01*
X117302136Y-147033502D01*
X117409451Y-147050500D01*
X117409454Y-147050500D01*
X117590549Y-147050500D01*
X117679977Y-147036335D01*
X117769409Y-147022171D01*
X117941639Y-146966211D01*
X118102994Y-146883996D01*
X118249501Y-146777553D01*
X118377553Y-146649501D01*
X118483996Y-146502994D01*
X118566211Y-146341639D01*
X118568775Y-146333749D01*
X146150000Y-146333749D01*
X146150000Y-146546250D01*
X146183240Y-146756121D01*
X146248904Y-146958215D01*
X146345376Y-147147553D01*
X146345380Y-147147559D01*
X146384728Y-147201716D01*
X146384729Y-147201716D01*
X147017037Y-146569407D01*
X147034075Y-146632993D01*
X147099901Y-146747007D01*
X147192993Y-146840099D01*
X147307007Y-146905925D01*
X147370589Y-146922962D01*
X146738282Y-147555269D01*
X146738282Y-147555270D01*
X146792440Y-147594619D01*
X146792446Y-147594623D01*
X146981786Y-147691096D01*
X147072983Y-147720727D01*
X147122483Y-147756691D01*
X147141391Y-147814881D01*
X147122484Y-147873072D01*
X147072988Y-147909035D01*
X147058366Y-147913786D01*
X147058364Y-147913787D01*
X146897008Y-147996002D01*
X146823752Y-148049225D01*
X146750499Y-148102447D01*
X146622447Y-148230499D01*
X146569225Y-148303752D01*
X146516002Y-148377008D01*
X146433788Y-148538362D01*
X146377828Y-148710593D01*
X146349500Y-148889450D01*
X146349500Y-149070549D01*
X146377828Y-149249406D01*
X146433788Y-149421637D01*
X146495220Y-149542205D01*
X146516004Y-149582994D01*
X146622447Y-149729501D01*
X146750499Y-149857553D01*
X146897006Y-149963996D01*
X147058361Y-150046211D01*
X147230591Y-150102171D01*
X147302136Y-150113502D01*
X147409451Y-150130500D01*
X147409454Y-150130500D01*
X147590549Y-150130500D01*
X147679977Y-150116335D01*
X147769409Y-150102171D01*
X147941639Y-150046211D01*
X148102994Y-149963996D01*
X148249501Y-149857553D01*
X148377553Y-149729501D01*
X148483996Y-149582994D01*
X148566211Y-149421639D01*
X148622171Y-149249409D01*
X148649389Y-149077561D01*
X148650500Y-149070549D01*
X148650500Y-148889450D01*
X148622171Y-148710593D01*
X148622171Y-148710591D01*
X148566211Y-148538361D01*
X148483996Y-148377006D01*
X148377553Y-148230499D01*
X148249501Y-148102447D01*
X148102994Y-147996004D01*
X148102993Y-147996003D01*
X148102991Y-147996002D01*
X147941637Y-147913788D01*
X147927013Y-147909036D01*
X147877514Y-147873071D01*
X147858608Y-147814880D01*
X147877517Y-147756689D01*
X147927016Y-147720727D01*
X148018213Y-147691096D01*
X148207556Y-147594620D01*
X148261716Y-147555270D01*
X148111961Y-147405515D01*
X179034500Y-147405515D01*
X179034500Y-147594484D01*
X179064058Y-147781113D01*
X179093938Y-147873072D01*
X179122453Y-147960832D01*
X179208240Y-148129199D01*
X179319310Y-148282073D01*
X179452927Y-148415690D01*
X179605801Y-148526760D01*
X179774168Y-148612547D01*
X179953882Y-148670940D01*
X179953883Y-148670940D01*
X179953886Y-148670941D01*
X180140516Y-148700500D01*
X180140519Y-148700500D01*
X180329484Y-148700500D01*
X180516113Y-148670941D01*
X180516114Y-148670940D01*
X180516118Y-148670940D01*
X180695832Y-148612547D01*
X180864199Y-148526760D01*
X181017073Y-148415690D01*
X181150690Y-148282073D01*
X181195909Y-148219834D01*
X181245407Y-148183872D01*
X181306592Y-148183872D01*
X181356093Y-148219836D01*
X181375000Y-148278027D01*
X181375000Y-148447824D01*
X181374999Y-148447824D01*
X181381401Y-148507370D01*
X181381403Y-148507381D01*
X181431646Y-148642088D01*
X181431647Y-148642090D01*
X181517807Y-148757184D01*
X181517815Y-148757192D01*
X181632909Y-148843352D01*
X181632911Y-148843353D01*
X181767618Y-148893596D01*
X181767629Y-148893598D01*
X181827176Y-148900000D01*
X182524999Y-148900000D01*
X182525000Y-148899999D01*
X182525000Y-147875277D01*
X182601306Y-147919333D01*
X182715756Y-147950000D01*
X182834244Y-147950000D01*
X182948694Y-147919333D01*
X183025000Y-147875277D01*
X183025000Y-148899999D01*
X183025001Y-148900000D01*
X183722824Y-148900000D01*
X183782370Y-148893598D01*
X183782381Y-148893596D01*
X183917088Y-148843353D01*
X183917090Y-148843352D01*
X184032184Y-148757192D01*
X184032192Y-148757184D01*
X184118352Y-148642090D01*
X184118353Y-148642088D01*
X184168596Y-148507381D01*
X184168598Y-148507370D01*
X184175000Y-148447824D01*
X184175000Y-147750001D01*
X184174999Y-147750000D01*
X183150278Y-147750000D01*
X183194333Y-147673694D01*
X183225000Y-147559244D01*
X183225000Y-147440756D01*
X183194333Y-147326306D01*
X183150278Y-147250000D01*
X184174999Y-147250000D01*
X184175000Y-147249999D01*
X184175000Y-146552175D01*
X184168598Y-146492629D01*
X184168596Y-146492618D01*
X184118353Y-146357911D01*
X184118352Y-146357909D01*
X184032192Y-146242815D01*
X184032184Y-146242807D01*
X183917090Y-146156647D01*
X183917088Y-146156646D01*
X183782381Y-146106403D01*
X183782370Y-146106401D01*
X183722824Y-146100000D01*
X183025001Y-146100000D01*
X183025000Y-146100001D01*
X183025000Y-147124722D01*
X182948694Y-147080667D01*
X182834244Y-147050000D01*
X182715756Y-147050000D01*
X182601306Y-147080667D01*
X182525000Y-147124722D01*
X182525000Y-146100001D01*
X182524999Y-146100000D01*
X181827176Y-146100000D01*
X181767629Y-146106401D01*
X181767618Y-146106403D01*
X181632911Y-146156646D01*
X181632909Y-146156647D01*
X181517815Y-146242807D01*
X181517807Y-146242815D01*
X181431647Y-146357909D01*
X181431646Y-146357911D01*
X181381403Y-146492618D01*
X181381401Y-146492629D01*
X181375000Y-146552175D01*
X181375000Y-146721972D01*
X181356093Y-146780163D01*
X181306593Y-146816127D01*
X181245407Y-146816127D01*
X181195908Y-146780163D01*
X181150694Y-146717932D01*
X181150692Y-146717930D01*
X181150690Y-146717927D01*
X181017073Y-146584310D01*
X180864199Y-146473240D01*
X180864198Y-146473239D01*
X180864196Y-146473238D01*
X180695832Y-146387453D01*
X180516113Y-146329058D01*
X180329484Y-146299500D01*
X180329481Y-146299500D01*
X180140519Y-146299500D01*
X180140516Y-146299500D01*
X179953886Y-146329058D01*
X179774167Y-146387453D01*
X179605803Y-146473238D01*
X179452928Y-146584309D01*
X179319309Y-146717928D01*
X179208238Y-146870803D01*
X179122453Y-147039167D01*
X179064058Y-147218886D01*
X179034500Y-147405515D01*
X148111961Y-147405515D01*
X147629408Y-146922962D01*
X147692993Y-146905925D01*
X147807007Y-146840099D01*
X147900099Y-146747007D01*
X147965925Y-146632993D01*
X147982962Y-146569408D01*
X148615270Y-147201716D01*
X148654620Y-147147556D01*
X148751095Y-146958215D01*
X148816759Y-146756121D01*
X148850000Y-146546250D01*
X148850000Y-146333749D01*
X148816759Y-146123878D01*
X148751095Y-145921784D01*
X148654623Y-145732446D01*
X148654619Y-145732440D01*
X148615270Y-145678282D01*
X148615269Y-145678282D01*
X147982962Y-146310589D01*
X147965925Y-146247007D01*
X147900099Y-146132993D01*
X147807007Y-146039901D01*
X147692993Y-145974075D01*
X147629407Y-145957037D01*
X148261716Y-145324729D01*
X148261716Y-145324728D01*
X148207559Y-145285380D01*
X148207553Y-145285376D01*
X148018215Y-145188904D01*
X147927015Y-145159272D01*
X147877515Y-145123308D01*
X147858608Y-145065117D01*
X147877515Y-145006926D01*
X147927013Y-144970962D01*
X147927017Y-144970962D01*
X147927018Y-144970962D01*
X147941633Y-144966213D01*
X147941633Y-144966212D01*
X147941639Y-144966211D01*
X148102994Y-144883996D01*
X148249501Y-144777553D01*
X148377553Y-144649501D01*
X148483996Y-144502994D01*
X148566211Y-144341639D01*
X148622171Y-144169409D01*
X148650500Y-143990546D01*
X148650500Y-143809454D01*
X148650500Y-143809450D01*
X148622171Y-143630593D01*
X148622171Y-143630591D01*
X148566211Y-143458361D01*
X148483996Y-143297006D01*
X148377553Y-143150499D01*
X148249501Y-143022447D01*
X148102994Y-142916004D01*
X148102993Y-142916003D01*
X148102991Y-142916002D01*
X147941637Y-142833788D01*
X147769406Y-142777828D01*
X147590549Y-142749500D01*
X147590546Y-142749500D01*
X147409454Y-142749500D01*
X147409451Y-142749500D01*
X147230593Y-142777828D01*
X147058362Y-142833788D01*
X146897008Y-142916002D01*
X146893760Y-142918362D01*
X146750499Y-143022447D01*
X146622447Y-143150499D01*
X146569225Y-143223752D01*
X146516002Y-143297008D01*
X146433788Y-143458362D01*
X146377828Y-143630593D01*
X146349500Y-143809450D01*
X146349500Y-143990549D01*
X146377828Y-144169406D01*
X146433788Y-144341637D01*
X146510085Y-144491379D01*
X146516004Y-144502994D01*
X146622447Y-144649501D01*
X146750499Y-144777553D01*
X146897006Y-144883996D01*
X147058361Y-144966211D01*
X147069483Y-144969824D01*
X147072983Y-144970962D01*
X147122483Y-145006926D01*
X147141391Y-145065116D01*
X147122484Y-145123307D01*
X147072985Y-145159271D01*
X147072984Y-145159272D01*
X146981784Y-145188904D01*
X146792446Y-145285376D01*
X146792442Y-145285378D01*
X146738282Y-145324728D01*
X147370591Y-145957037D01*
X147307007Y-145974075D01*
X147192993Y-146039901D01*
X147099901Y-146132993D01*
X147034075Y-146247007D01*
X147017037Y-146310591D01*
X146384728Y-145678282D01*
X146345378Y-145732442D01*
X146345376Y-145732446D01*
X146248904Y-145921784D01*
X146183240Y-146123878D01*
X146150000Y-146333749D01*
X118568775Y-146333749D01*
X118622171Y-146169409D01*
X118650500Y-145990546D01*
X118650500Y-145809454D01*
X118650500Y-145809450D01*
X118622171Y-145630593D01*
X118622171Y-145630591D01*
X118566211Y-145458361D01*
X118483996Y-145297006D01*
X118377553Y-145150499D01*
X118249501Y-145022447D01*
X118102994Y-144916004D01*
X118102993Y-144916003D01*
X118102991Y-144916002D01*
X117941637Y-144833788D01*
X117769406Y-144777828D01*
X117590549Y-144749500D01*
X117590546Y-144749500D01*
X117409454Y-144749500D01*
X117409451Y-144749500D01*
X117230593Y-144777828D01*
X117058362Y-144833788D01*
X116897008Y-144916002D01*
X116827902Y-144966211D01*
X116750499Y-145022447D01*
X116622447Y-145150499D01*
X116577552Y-145212292D01*
X116516002Y-145297008D01*
X116433788Y-145458362D01*
X116377828Y-145630593D01*
X116349500Y-145809450D01*
X88625500Y-145809450D01*
X88625500Y-145499500D01*
X88644407Y-145441309D01*
X88693907Y-145405345D01*
X88724500Y-145400500D01*
X99862725Y-145400500D01*
X99862727Y-145400500D01*
X99964588Y-145373207D01*
X99964590Y-145373205D01*
X99964592Y-145373205D01*
X100055908Y-145320483D01*
X100055908Y-145320482D01*
X100055913Y-145320480D01*
X102106943Y-143269450D01*
X116349500Y-143269450D01*
X116349500Y-143450549D01*
X116377828Y-143629406D01*
X116433788Y-143801637D01*
X116485244Y-143902626D01*
X116516004Y-143962994D01*
X116622447Y-144109501D01*
X116750499Y-144237553D01*
X116897006Y-144343996D01*
X117058361Y-144426211D01*
X117230591Y-144482171D01*
X117302136Y-144493502D01*
X117409451Y-144510500D01*
X117409454Y-144510500D01*
X117590549Y-144510500D01*
X117679977Y-144496335D01*
X117769409Y-144482171D01*
X117941639Y-144426211D01*
X118102994Y-144343996D01*
X118249501Y-144237553D01*
X118377553Y-144109501D01*
X118483996Y-143962994D01*
X118566211Y-143801639D01*
X118566212Y-143801634D01*
X118566214Y-143801632D01*
X118574876Y-143774974D01*
X118574876Y-143774972D01*
X118596758Y-143707624D01*
X118622171Y-143629409D01*
X118636335Y-143539977D01*
X118650500Y-143450549D01*
X118650500Y-143269450D01*
X118622171Y-143090593D01*
X118622171Y-143090591D01*
X118566211Y-142918361D01*
X118483996Y-142757006D01*
X118377553Y-142610499D01*
X118249501Y-142482447D01*
X118102994Y-142376004D01*
X118102993Y-142376003D01*
X118102991Y-142376002D01*
X117941637Y-142293788D01*
X117769406Y-142237828D01*
X117590549Y-142209500D01*
X117590546Y-142209500D01*
X117409454Y-142209500D01*
X117409451Y-142209500D01*
X117230593Y-142237828D01*
X117058362Y-142293788D01*
X116897008Y-142376002D01*
X116827902Y-142426211D01*
X116750499Y-142482447D01*
X116622447Y-142610499D01*
X116569225Y-142683752D01*
X116516002Y-142757008D01*
X116433788Y-142918362D01*
X116377828Y-143090593D01*
X116349500Y-143269450D01*
X102106943Y-143269450D01*
X104646942Y-140729450D01*
X116349500Y-140729450D01*
X116349500Y-140910549D01*
X116377828Y-141089406D01*
X116433788Y-141261637D01*
X116511107Y-141413385D01*
X116516004Y-141422994D01*
X116622447Y-141569501D01*
X116750499Y-141697553D01*
X116897006Y-141803996D01*
X117058361Y-141886211D01*
X117230591Y-141942171D01*
X117302136Y-141953502D01*
X117409451Y-141970500D01*
X117409454Y-141970500D01*
X117590549Y-141970500D01*
X117679977Y-141956335D01*
X117769409Y-141942171D01*
X117941639Y-141886211D01*
X118102994Y-141803996D01*
X118249501Y-141697553D01*
X118377553Y-141569501D01*
X118483996Y-141422994D01*
X118562231Y-141269450D01*
X146349500Y-141269450D01*
X146349500Y-141450549D01*
X146377828Y-141629406D01*
X146433788Y-141801637D01*
X146495339Y-141922438D01*
X146516004Y-141962994D01*
X146622447Y-142109501D01*
X146750499Y-142237553D01*
X146897006Y-142343996D01*
X147058361Y-142426211D01*
X147230591Y-142482171D01*
X147302136Y-142493502D01*
X147409451Y-142510500D01*
X147409454Y-142510500D01*
X147590549Y-142510500D01*
X147679977Y-142496335D01*
X147769409Y-142482171D01*
X147941639Y-142426211D01*
X148102994Y-142343996D01*
X148249501Y-142237553D01*
X148377553Y-142109501D01*
X148483996Y-141962994D01*
X148566211Y-141801639D01*
X148622171Y-141629409D01*
X148650500Y-141450546D01*
X148650500Y-141413385D01*
X159589500Y-141413385D01*
X159589500Y-141586614D01*
X159616597Y-141757702D01*
X159616598Y-141757706D01*
X159670123Y-141922438D01*
X159670125Y-141922441D01*
X159690787Y-141962994D01*
X159748768Y-142076788D01*
X159850586Y-142216928D01*
X159973072Y-142339414D01*
X160113212Y-142441232D01*
X160267555Y-142519873D01*
X160267557Y-142519873D01*
X160267558Y-142519874D01*
X160267561Y-142519876D01*
X160432293Y-142573401D01*
X160432297Y-142573402D01*
X160603386Y-142600500D01*
X160603389Y-142600500D01*
X160776614Y-142600500D01*
X160947702Y-142573402D01*
X160947706Y-142573401D01*
X161112438Y-142519876D01*
X161112440Y-142519874D01*
X161112445Y-142519873D01*
X161266788Y-142441232D01*
X161406928Y-142339414D01*
X161529414Y-142216928D01*
X161631232Y-142076788D01*
X161709873Y-141922445D01*
X161709874Y-141922440D01*
X161709876Y-141922438D01*
X161763401Y-141757706D01*
X161763402Y-141757702D01*
X161790500Y-141586614D01*
X161790500Y-141413385D01*
X167209500Y-141413385D01*
X167209500Y-141586614D01*
X167236597Y-141757702D01*
X167236598Y-141757706D01*
X167290123Y-141922438D01*
X167290125Y-141922441D01*
X167310787Y-141962994D01*
X167368768Y-142076788D01*
X167470586Y-142216928D01*
X167593072Y-142339414D01*
X167733212Y-142441232D01*
X167887555Y-142519873D01*
X167887557Y-142519873D01*
X167887558Y-142519874D01*
X167887561Y-142519876D01*
X168052293Y-142573401D01*
X168052297Y-142573402D01*
X168223386Y-142600500D01*
X168223389Y-142600500D01*
X168396614Y-142600500D01*
X168567702Y-142573402D01*
X168567706Y-142573401D01*
X168732438Y-142519876D01*
X168732440Y-142519874D01*
X168732445Y-142519873D01*
X168886788Y-142441232D01*
X169026928Y-142339414D01*
X169149414Y-142216928D01*
X169251232Y-142076788D01*
X169329873Y-141922445D01*
X169329874Y-141922440D01*
X169329876Y-141922438D01*
X169383401Y-141757706D01*
X169383402Y-141757702D01*
X169410500Y-141586614D01*
X169410500Y-141413385D01*
X169383402Y-141242297D01*
X169383401Y-141242293D01*
X169329876Y-141077561D01*
X169329874Y-141077558D01*
X169329873Y-141077557D01*
X169329873Y-141077555D01*
X169251232Y-140923212D01*
X169149414Y-140783072D01*
X169026928Y-140660586D01*
X168886788Y-140558768D01*
X168886787Y-140558767D01*
X168886785Y-140558766D01*
X168732441Y-140480125D01*
X168732438Y-140480123D01*
X168567706Y-140426598D01*
X168567702Y-140426597D01*
X168396614Y-140399500D01*
X168396611Y-140399500D01*
X168223389Y-140399500D01*
X168223386Y-140399500D01*
X168052297Y-140426597D01*
X168052293Y-140426598D01*
X167887561Y-140480123D01*
X167887558Y-140480125D01*
X167733214Y-140558766D01*
X167593073Y-140660585D01*
X167470585Y-140783073D01*
X167368766Y-140923214D01*
X167290125Y-141077558D01*
X167290123Y-141077561D01*
X167236598Y-141242293D01*
X167236597Y-141242297D01*
X167209500Y-141413385D01*
X161790500Y-141413385D01*
X161763402Y-141242297D01*
X161763401Y-141242293D01*
X161709876Y-141077561D01*
X161709874Y-141077558D01*
X161709873Y-141077557D01*
X161709873Y-141077555D01*
X161631232Y-140923212D01*
X161529414Y-140783072D01*
X161406928Y-140660586D01*
X161266788Y-140558768D01*
X161266787Y-140558767D01*
X161266785Y-140558766D01*
X161112441Y-140480125D01*
X161112438Y-140480123D01*
X160947706Y-140426598D01*
X160947702Y-140426597D01*
X160776614Y-140399500D01*
X160776611Y-140399500D01*
X160603389Y-140399500D01*
X160603386Y-140399500D01*
X160432297Y-140426597D01*
X160432293Y-140426598D01*
X160267561Y-140480123D01*
X160267558Y-140480125D01*
X160113214Y-140558766D01*
X159973073Y-140660585D01*
X159850585Y-140783073D01*
X159748766Y-140923214D01*
X159670125Y-141077558D01*
X159670123Y-141077561D01*
X159616598Y-141242293D01*
X159616597Y-141242297D01*
X159589500Y-141413385D01*
X148650500Y-141413385D01*
X148650500Y-141269454D01*
X148650500Y-141269450D01*
X148622171Y-141090593D01*
X148622171Y-141090591D01*
X148566211Y-140918361D01*
X148483996Y-140757006D01*
X148377553Y-140610499D01*
X148249501Y-140482447D01*
X148102994Y-140376004D01*
X148102993Y-140376003D01*
X148102991Y-140376002D01*
X147941637Y-140293788D01*
X147769406Y-140237828D01*
X147590549Y-140209500D01*
X147590546Y-140209500D01*
X147409454Y-140209500D01*
X147409451Y-140209500D01*
X147230593Y-140237828D01*
X147058362Y-140293788D01*
X146897008Y-140376002D01*
X146893760Y-140378362D01*
X146750499Y-140482447D01*
X146622447Y-140610499D01*
X146586058Y-140660585D01*
X146516002Y-140757008D01*
X146433788Y-140918362D01*
X146377828Y-141090593D01*
X146349500Y-141269450D01*
X118562231Y-141269450D01*
X118566211Y-141261639D01*
X118566212Y-141261634D01*
X118566214Y-141261632D01*
X118574876Y-141234974D01*
X118574876Y-141234972D01*
X118591096Y-141185048D01*
X118622171Y-141089409D01*
X118648494Y-140923212D01*
X118650500Y-140910549D01*
X118650500Y-140729450D01*
X118622171Y-140550593D01*
X118622171Y-140550591D01*
X118566211Y-140378361D01*
X118483996Y-140217006D01*
X118377553Y-140070499D01*
X118249501Y-139942447D01*
X118102994Y-139836004D01*
X118102993Y-139836003D01*
X118102991Y-139836002D01*
X117941637Y-139753788D01*
X117769406Y-139697828D01*
X117590549Y-139669500D01*
X117590546Y-139669500D01*
X117409454Y-139669500D01*
X117409451Y-139669500D01*
X117230593Y-139697828D01*
X117058362Y-139753788D01*
X116897008Y-139836002D01*
X116827902Y-139886211D01*
X116750499Y-139942447D01*
X116622447Y-140070499D01*
X116569225Y-140143752D01*
X116516002Y-140217008D01*
X116433788Y-140378362D01*
X116377828Y-140550593D01*
X116349500Y-140729450D01*
X104646942Y-140729450D01*
X106321234Y-139055157D01*
X106375749Y-139027382D01*
X106421827Y-139031008D01*
X106490038Y-139053172D01*
X106552297Y-139073402D01*
X106723386Y-139100500D01*
X106723389Y-139100500D01*
X106896614Y-139100500D01*
X107067702Y-139073402D01*
X107067706Y-139073401D01*
X107232438Y-139019876D01*
X107232440Y-139019874D01*
X107232445Y-139019873D01*
X107386788Y-138941232D01*
X107526928Y-138839414D01*
X107649414Y-138716928D01*
X107751232Y-138576788D01*
X107829873Y-138422445D01*
X107829874Y-138422440D01*
X107829876Y-138422438D01*
X107883401Y-138257706D01*
X107883402Y-138257701D01*
X107894212Y-138189450D01*
X116349500Y-138189450D01*
X116349500Y-138370549D01*
X116377828Y-138549406D01*
X116433788Y-138721637D01*
X116493798Y-138839414D01*
X116516004Y-138882994D01*
X116622447Y-139029501D01*
X116750499Y-139157553D01*
X116897006Y-139263996D01*
X117058361Y-139346211D01*
X117230591Y-139402171D01*
X117302136Y-139413502D01*
X117409451Y-139430500D01*
X117409454Y-139430500D01*
X117590549Y-139430500D01*
X117679977Y-139416335D01*
X117769409Y-139402171D01*
X117941639Y-139346211D01*
X118102994Y-139263996D01*
X118249501Y-139157553D01*
X118377553Y-139029501D01*
X118483996Y-138882994D01*
X118562231Y-138729450D01*
X146349500Y-138729450D01*
X146349500Y-138910549D01*
X146377828Y-139089406D01*
X146377829Y-139089409D01*
X146433789Y-139261639D01*
X146516004Y-139422994D01*
X146622447Y-139569501D01*
X146750499Y-139697553D01*
X146897006Y-139803996D01*
X147058361Y-139886211D01*
X147230591Y-139942171D01*
X147302136Y-139953502D01*
X147409451Y-139970500D01*
X147409454Y-139970500D01*
X147590549Y-139970500D01*
X147679977Y-139956335D01*
X147769409Y-139942171D01*
X147941639Y-139886211D01*
X148102994Y-139803996D01*
X148249501Y-139697553D01*
X148377553Y-139569501D01*
X148483996Y-139422994D01*
X148566211Y-139261639D01*
X148622171Y-139089409D01*
X148650500Y-138910546D01*
X148650500Y-138729454D01*
X148650500Y-138729450D01*
X148622171Y-138550593D01*
X148622171Y-138550591D01*
X148566211Y-138378361D01*
X148483996Y-138217006D01*
X148377553Y-138070499D01*
X148249501Y-137942447D01*
X148102994Y-137836004D01*
X148102993Y-137836003D01*
X148102991Y-137836002D01*
X147941637Y-137753788D01*
X147769406Y-137697828D01*
X147590549Y-137669500D01*
X147590546Y-137669500D01*
X147409454Y-137669500D01*
X147409451Y-137669500D01*
X147230593Y-137697828D01*
X147058362Y-137753788D01*
X146897008Y-137836002D01*
X146893760Y-137838362D01*
X146750499Y-137942447D01*
X146622447Y-138070499D01*
X146610741Y-138086611D01*
X146516002Y-138217008D01*
X146433788Y-138378362D01*
X146377828Y-138550593D01*
X146349500Y-138729450D01*
X118562231Y-138729450D01*
X118566211Y-138721639D01*
X118566212Y-138721634D01*
X118566214Y-138721632D01*
X118574876Y-138694974D01*
X118574876Y-138694972D01*
X118591096Y-138645048D01*
X118622171Y-138549409D01*
X118647709Y-138388169D01*
X118650500Y-138370549D01*
X118650500Y-138189450D01*
X118622171Y-138010593D01*
X118622171Y-138010591D01*
X118566211Y-137838361D01*
X118483996Y-137677006D01*
X118377553Y-137530499D01*
X118249501Y-137402447D01*
X118102994Y-137296004D01*
X118102993Y-137296003D01*
X118102991Y-137296002D01*
X117941637Y-137213788D01*
X117769406Y-137157828D01*
X117590549Y-137129500D01*
X117590546Y-137129500D01*
X117409454Y-137129500D01*
X117409451Y-137129500D01*
X117230593Y-137157828D01*
X117058362Y-137213788D01*
X116897008Y-137296002D01*
X116827902Y-137346211D01*
X116750499Y-137402447D01*
X116622447Y-137530499D01*
X116588259Y-137577555D01*
X116516002Y-137677008D01*
X116433788Y-137838362D01*
X116377828Y-138010593D01*
X116349500Y-138189450D01*
X107894212Y-138189450D01*
X107897281Y-138170077D01*
X107910500Y-138086614D01*
X107910500Y-137913385D01*
X107883402Y-137742297D01*
X107883401Y-137742293D01*
X107829876Y-137577561D01*
X107829874Y-137577558D01*
X107829873Y-137577557D01*
X107829873Y-137577555D01*
X107751232Y-137423212D01*
X107649414Y-137283072D01*
X107526928Y-137160586D01*
X107386788Y-137058768D01*
X107386787Y-137058767D01*
X107386785Y-137058766D01*
X107232441Y-136980125D01*
X107232438Y-136980123D01*
X107067706Y-136926598D01*
X107067702Y-136926597D01*
X106896614Y-136899500D01*
X106896611Y-136899500D01*
X106723389Y-136899500D01*
X106723386Y-136899500D01*
X106552297Y-136926597D01*
X106552293Y-136926598D01*
X106387561Y-136980123D01*
X106387558Y-136980125D01*
X106233214Y-137058766D01*
X106093073Y-137160585D01*
X105970585Y-137283073D01*
X105868766Y-137423214D01*
X105790125Y-137577558D01*
X105790123Y-137577561D01*
X105736598Y-137742293D01*
X105736597Y-137742297D01*
X105709500Y-137913385D01*
X105709500Y-138086614D01*
X105736597Y-138257702D01*
X105736598Y-138257706D01*
X105778989Y-138388169D01*
X105778990Y-138449354D01*
X105754839Y-138488766D01*
X99673103Y-144570504D01*
X99618586Y-144598281D01*
X99603099Y-144599500D01*
X88724499Y-144599500D01*
X88666308Y-144580593D01*
X88630344Y-144531093D01*
X88625499Y-144500500D01*
X88625499Y-144130139D01*
X88625499Y-144130136D01*
X88622585Y-144105009D01*
X88577206Y-144002235D01*
X88497765Y-143922794D01*
X88394991Y-143877415D01*
X88394990Y-143877414D01*
X88394988Y-143877414D01*
X88369868Y-143874500D01*
X86630139Y-143874500D01*
X86630136Y-143874501D01*
X86605009Y-143877414D01*
X86502235Y-143922794D01*
X86422794Y-144002235D01*
X86377414Y-144105011D01*
X86374500Y-144130130D01*
X83016315Y-144130130D01*
X83089173Y-144057272D01*
X83243818Y-143902626D01*
X83194456Y-143866762D01*
X83194450Y-143866758D01*
X83008620Y-143772073D01*
X82810267Y-143707624D01*
X82604283Y-143675000D01*
X82395717Y-143675000D01*
X82189732Y-143707624D01*
X81991379Y-143772073D01*
X81805555Y-143866755D01*
X81756181Y-143902627D01*
X82329766Y-144476212D01*
X82287708Y-144487482D01*
X82162292Y-144559890D01*
X82059890Y-144662292D01*
X81987482Y-144787708D01*
X81976212Y-144829766D01*
X81402627Y-144256181D01*
X81366755Y-144305555D01*
X81272073Y-144491379D01*
X81207624Y-144689732D01*
X81175000Y-144895716D01*
X72500500Y-144895716D01*
X72500500Y-137913385D01*
X98089500Y-137913385D01*
X98089500Y-138086614D01*
X98116597Y-138257702D01*
X98116598Y-138257706D01*
X98170123Y-138422438D01*
X98170125Y-138422441D01*
X98234817Y-138549409D01*
X98248768Y-138576788D01*
X98350586Y-138716928D01*
X98473072Y-138839414D01*
X98613212Y-138941232D01*
X98767555Y-139019873D01*
X98767557Y-139019873D01*
X98767558Y-139019874D01*
X98767561Y-139019876D01*
X98932293Y-139073401D01*
X98932297Y-139073402D01*
X99103386Y-139100500D01*
X99103389Y-139100500D01*
X99276614Y-139100500D01*
X99447702Y-139073402D01*
X99447706Y-139073401D01*
X99612438Y-139019876D01*
X99612440Y-139019874D01*
X99612445Y-139019873D01*
X99766788Y-138941232D01*
X99906928Y-138839414D01*
X100029414Y-138716928D01*
X100131232Y-138576788D01*
X100209873Y-138422445D01*
X100209874Y-138422440D01*
X100209876Y-138422438D01*
X100263401Y-138257706D01*
X100263402Y-138257702D01*
X100290500Y-138086614D01*
X100290500Y-137913385D01*
X100263402Y-137742297D01*
X100263401Y-137742293D01*
X100209876Y-137577561D01*
X100209874Y-137577558D01*
X100209873Y-137577557D01*
X100209873Y-137577555D01*
X100131232Y-137423212D01*
X100029414Y-137283072D01*
X99906928Y-137160586D01*
X99766788Y-137058768D01*
X99766787Y-137058767D01*
X99766785Y-137058766D01*
X99612441Y-136980125D01*
X99612438Y-136980123D01*
X99447706Y-136926598D01*
X99447702Y-136926597D01*
X99276614Y-136899500D01*
X99276611Y-136899500D01*
X99103389Y-136899500D01*
X99103386Y-136899500D01*
X98932297Y-136926597D01*
X98932293Y-136926598D01*
X98767561Y-136980123D01*
X98767558Y-136980125D01*
X98613214Y-137058766D01*
X98473073Y-137160585D01*
X98350585Y-137283073D01*
X98248766Y-137423214D01*
X98170125Y-137577558D01*
X98170123Y-137577561D01*
X98116598Y-137742293D01*
X98116597Y-137742297D01*
X98089500Y-137913385D01*
X72500500Y-137913385D01*
X72500500Y-135649450D01*
X116349500Y-135649450D01*
X116349500Y-135830549D01*
X116377828Y-136009406D01*
X116433787Y-136181635D01*
X116433789Y-136181639D01*
X116516004Y-136342994D01*
X116622447Y-136489501D01*
X116750499Y-136617553D01*
X116897006Y-136723996D01*
X117058361Y-136806211D01*
X117230591Y-136862171D01*
X117302136Y-136873502D01*
X117409451Y-136890500D01*
X117409454Y-136890500D01*
X117590549Y-136890500D01*
X117679977Y-136876335D01*
X117769409Y-136862171D01*
X117941639Y-136806211D01*
X118102994Y-136723996D01*
X118249501Y-136617553D01*
X118377553Y-136489501D01*
X118483996Y-136342994D01*
X118562231Y-136189450D01*
X146349500Y-136189450D01*
X146349500Y-136370549D01*
X146377828Y-136549406D01*
X146377829Y-136549409D01*
X146433789Y-136721639D01*
X146516004Y-136882994D01*
X146622447Y-137029501D01*
X146750499Y-137157553D01*
X146897006Y-137263996D01*
X147058361Y-137346211D01*
X147230591Y-137402171D01*
X147302136Y-137413502D01*
X147409451Y-137430500D01*
X147409454Y-137430500D01*
X147590549Y-137430500D01*
X147679977Y-137416335D01*
X147769409Y-137402171D01*
X147941639Y-137346211D01*
X148102994Y-137263996D01*
X148249501Y-137157553D01*
X148377553Y-137029501D01*
X148483996Y-136882994D01*
X148566211Y-136721639D01*
X148622171Y-136549409D01*
X148646849Y-136393598D01*
X148650500Y-136370549D01*
X148650500Y-136189450D01*
X148622171Y-136010593D01*
X148622171Y-136010591D01*
X148566211Y-135838361D01*
X148483996Y-135677006D01*
X148377553Y-135530499D01*
X148249501Y-135402447D01*
X148102994Y-135296004D01*
X148102993Y-135296003D01*
X148102991Y-135296002D01*
X147941637Y-135213788D01*
X147769406Y-135157828D01*
X147590549Y-135129500D01*
X147590546Y-135129500D01*
X147409454Y-135129500D01*
X147409451Y-135129500D01*
X147230593Y-135157828D01*
X147058362Y-135213788D01*
X146897008Y-135296002D01*
X146893760Y-135298362D01*
X146750499Y-135402447D01*
X146622447Y-135530499D01*
X146571589Y-135600500D01*
X146516002Y-135677008D01*
X146433788Y-135838362D01*
X146377828Y-136010593D01*
X146349500Y-136189450D01*
X118562231Y-136189450D01*
X118566211Y-136181639D01*
X118566212Y-136181634D01*
X118566214Y-136181632D01*
X118574876Y-136154974D01*
X118574876Y-136154972D01*
X118591096Y-136105048D01*
X118622171Y-136009409D01*
X118637015Y-135915690D01*
X118650500Y-135830549D01*
X118650500Y-135649450D01*
X118622171Y-135470593D01*
X118622171Y-135470591D01*
X118566211Y-135298361D01*
X118483996Y-135137006D01*
X118377553Y-134990499D01*
X118249501Y-134862447D01*
X118102994Y-134756004D01*
X118102993Y-134756003D01*
X118102991Y-134756002D01*
X117941637Y-134673788D01*
X117769406Y-134617828D01*
X117590549Y-134589500D01*
X117590546Y-134589500D01*
X117409454Y-134589500D01*
X117409451Y-134589500D01*
X117230593Y-134617828D01*
X117058362Y-134673788D01*
X116897008Y-134756002D01*
X116894663Y-134757706D01*
X116750499Y-134862447D01*
X116622447Y-134990499D01*
X116572501Y-135059244D01*
X116516002Y-135137008D01*
X116433788Y-135298362D01*
X116377828Y-135470593D01*
X116349500Y-135649450D01*
X72500500Y-135649450D01*
X72500500Y-133109450D01*
X116349500Y-133109450D01*
X116349500Y-133290549D01*
X116377828Y-133469406D01*
X116433788Y-133641637D01*
X116514223Y-133799500D01*
X116516004Y-133802994D01*
X116622447Y-133949501D01*
X116750499Y-134077553D01*
X116897006Y-134183996D01*
X117058361Y-134266211D01*
X117230591Y-134322171D01*
X117302136Y-134333502D01*
X117409451Y-134350500D01*
X117409454Y-134350500D01*
X117590549Y-134350500D01*
X117679977Y-134336335D01*
X117769409Y-134322171D01*
X117941639Y-134266211D01*
X118102994Y-134183996D01*
X118249501Y-134077553D01*
X118377553Y-133949501D01*
X118483996Y-133802994D01*
X118562231Y-133649450D01*
X146349500Y-133649450D01*
X146349500Y-133830549D01*
X146377828Y-134009406D01*
X146399972Y-134077561D01*
X146433789Y-134181639D01*
X146516004Y-134342994D01*
X146622447Y-134489501D01*
X146750499Y-134617553D01*
X146897006Y-134723996D01*
X147058361Y-134806211D01*
X147230591Y-134862171D01*
X147286563Y-134871036D01*
X147409451Y-134890500D01*
X147409454Y-134890500D01*
X147590549Y-134890500D01*
X147679977Y-134876335D01*
X147769409Y-134862171D01*
X147941639Y-134806211D01*
X148102994Y-134723996D01*
X148249501Y-134617553D01*
X148377553Y-134489501D01*
X148432854Y-134413385D01*
X159589500Y-134413385D01*
X159589500Y-134586614D01*
X159616597Y-134757702D01*
X159616598Y-134757706D01*
X159670123Y-134922438D01*
X159670125Y-134922441D01*
X159670126Y-134922444D01*
X159670127Y-134922445D01*
X159748768Y-135076788D01*
X159850586Y-135216928D01*
X159973072Y-135339414D01*
X160113212Y-135441232D01*
X160267555Y-135519873D01*
X160267557Y-135519873D01*
X160267558Y-135519874D01*
X160267561Y-135519876D01*
X160432293Y-135573401D01*
X160432297Y-135573402D01*
X160603386Y-135600500D01*
X160603389Y-135600500D01*
X160776614Y-135600500D01*
X160947702Y-135573402D01*
X160947706Y-135573401D01*
X161112438Y-135519876D01*
X161112440Y-135519874D01*
X161112445Y-135519873D01*
X161266788Y-135441232D01*
X161406928Y-135339414D01*
X161529414Y-135216928D01*
X161631232Y-135076788D01*
X161709873Y-134922445D01*
X161709874Y-134922440D01*
X161709876Y-134922438D01*
X161763401Y-134757706D01*
X161763402Y-134757702D01*
X161790500Y-134586614D01*
X161790500Y-134413385D01*
X167209500Y-134413385D01*
X167209500Y-134586614D01*
X167236597Y-134757702D01*
X167236598Y-134757706D01*
X167290123Y-134922438D01*
X167290125Y-134922441D01*
X167290126Y-134922444D01*
X167290127Y-134922445D01*
X167368768Y-135076788D01*
X167470586Y-135216928D01*
X167593072Y-135339414D01*
X167733212Y-135441232D01*
X167887555Y-135519873D01*
X167887557Y-135519873D01*
X167887558Y-135519874D01*
X167887561Y-135519876D01*
X168052293Y-135573401D01*
X168052297Y-135573402D01*
X168223386Y-135600500D01*
X168223389Y-135600500D01*
X168396614Y-135600500D01*
X168567702Y-135573402D01*
X168567706Y-135573401D01*
X168732438Y-135519876D01*
X168732440Y-135519874D01*
X168732445Y-135519873D01*
X168886788Y-135441232D01*
X169026928Y-135339414D01*
X169149414Y-135216928D01*
X169251232Y-135076788D01*
X169329873Y-134922445D01*
X169329874Y-134922440D01*
X169329876Y-134922438D01*
X169335375Y-134905515D01*
X178759500Y-134905515D01*
X178759500Y-135094484D01*
X178789058Y-135281113D01*
X178847453Y-135460832D01*
X178904809Y-135573401D01*
X178933240Y-135629199D01*
X179044310Y-135782073D01*
X179177927Y-135915690D01*
X179330801Y-136026760D01*
X179499168Y-136112547D01*
X179678882Y-136170940D01*
X179678883Y-136170940D01*
X179678886Y-136170941D01*
X179865516Y-136200500D01*
X179865519Y-136200500D01*
X180054484Y-136200500D01*
X180241113Y-136170941D01*
X180241114Y-136170940D01*
X180241118Y-136170940D01*
X180420832Y-136112547D01*
X180589199Y-136026760D01*
X180742073Y-135915690D01*
X180875690Y-135782073D01*
X180920909Y-135719834D01*
X180970407Y-135683872D01*
X181031592Y-135683872D01*
X181081093Y-135719836D01*
X181100000Y-135778027D01*
X181100000Y-135947824D01*
X181099999Y-135947824D01*
X181106401Y-136007370D01*
X181106403Y-136007381D01*
X181156646Y-136142088D01*
X181156647Y-136142090D01*
X181242807Y-136257184D01*
X181242815Y-136257192D01*
X181357909Y-136343352D01*
X181357911Y-136343353D01*
X181492618Y-136393596D01*
X181492629Y-136393598D01*
X181552176Y-136400000D01*
X182249999Y-136400000D01*
X182250000Y-136399999D01*
X182250000Y-135375277D01*
X182326306Y-135419333D01*
X182440756Y-135450000D01*
X182559244Y-135450000D01*
X182673694Y-135419333D01*
X182750000Y-135375277D01*
X182750000Y-136399999D01*
X182750001Y-136400000D01*
X183447824Y-136400000D01*
X183507370Y-136393598D01*
X183507381Y-136393596D01*
X183642088Y-136343353D01*
X183642090Y-136343352D01*
X183757184Y-136257192D01*
X183757192Y-136257184D01*
X183843352Y-136142090D01*
X183843353Y-136142088D01*
X183893596Y-136007381D01*
X183893598Y-136007370D01*
X183900000Y-135947824D01*
X183900000Y-135250001D01*
X183899999Y-135250000D01*
X182875278Y-135250000D01*
X182919333Y-135173694D01*
X182950000Y-135059244D01*
X182950000Y-134940756D01*
X182919333Y-134826306D01*
X182875278Y-134750000D01*
X183899999Y-134750000D01*
X183900000Y-134749999D01*
X183900000Y-134052175D01*
X183893598Y-133992629D01*
X183893596Y-133992618D01*
X183843353Y-133857911D01*
X183843352Y-133857909D01*
X183757192Y-133742815D01*
X183757184Y-133742807D01*
X183642090Y-133656647D01*
X183642088Y-133656646D01*
X183507381Y-133606403D01*
X183507370Y-133606401D01*
X183447824Y-133600000D01*
X182750001Y-133600000D01*
X182750000Y-133600001D01*
X182750000Y-134624722D01*
X182673694Y-134580667D01*
X182559244Y-134550000D01*
X182440756Y-134550000D01*
X182326306Y-134580667D01*
X182250000Y-134624722D01*
X182250000Y-133600001D01*
X182249999Y-133600000D01*
X181552176Y-133600000D01*
X181492629Y-133606401D01*
X181492618Y-133606403D01*
X181357911Y-133656646D01*
X181357909Y-133656647D01*
X181242815Y-133742807D01*
X181242807Y-133742815D01*
X181156647Y-133857909D01*
X181156646Y-133857911D01*
X181106403Y-133992618D01*
X181106401Y-133992629D01*
X181100000Y-134052175D01*
X181100000Y-134221972D01*
X181081093Y-134280163D01*
X181031593Y-134316127D01*
X180970407Y-134316127D01*
X180920908Y-134280163D01*
X180875694Y-134217932D01*
X180875692Y-134217930D01*
X180875690Y-134217927D01*
X180742073Y-134084310D01*
X180589199Y-133973240D01*
X180589198Y-133973239D01*
X180589196Y-133973238D01*
X180420832Y-133887453D01*
X180241113Y-133829058D01*
X180054484Y-133799500D01*
X180054481Y-133799500D01*
X179865519Y-133799500D01*
X179865516Y-133799500D01*
X179678886Y-133829058D01*
X179499167Y-133887453D01*
X179330803Y-133973238D01*
X179177928Y-134084309D01*
X179044309Y-134217928D01*
X178933238Y-134370803D01*
X178847453Y-134539167D01*
X178789058Y-134718886D01*
X178759500Y-134905515D01*
X169335375Y-134905515D01*
X169346577Y-134871039D01*
X169346577Y-134871036D01*
X169349457Y-134862171D01*
X169383402Y-134757701D01*
X169405556Y-134617828D01*
X169410500Y-134586614D01*
X169410500Y-134413385D01*
X169383402Y-134242297D01*
X169383401Y-134242293D01*
X169329876Y-134077561D01*
X169329874Y-134077558D01*
X169329873Y-134077557D01*
X169329873Y-134077555D01*
X169251232Y-133923212D01*
X169149414Y-133783072D01*
X169026928Y-133660586D01*
X168886788Y-133558768D01*
X168886787Y-133558767D01*
X168886785Y-133558766D01*
X168732441Y-133480125D01*
X168732438Y-133480123D01*
X168567706Y-133426598D01*
X168567702Y-133426597D01*
X168396614Y-133399500D01*
X168396611Y-133399500D01*
X168223389Y-133399500D01*
X168223386Y-133399500D01*
X168052297Y-133426597D01*
X168052293Y-133426598D01*
X167887561Y-133480123D01*
X167887558Y-133480125D01*
X167733214Y-133558766D01*
X167593073Y-133660585D01*
X167470585Y-133783073D01*
X167368766Y-133923214D01*
X167290125Y-134077558D01*
X167290123Y-134077561D01*
X167236598Y-134242293D01*
X167236597Y-134242297D01*
X167209500Y-134413385D01*
X161790500Y-134413385D01*
X161763402Y-134242297D01*
X161763401Y-134242293D01*
X161709876Y-134077561D01*
X161709874Y-134077558D01*
X161709873Y-134077557D01*
X161709873Y-134077555D01*
X161631232Y-133923212D01*
X161529414Y-133783072D01*
X161406928Y-133660586D01*
X161266788Y-133558768D01*
X161266787Y-133558767D01*
X161266785Y-133558766D01*
X161112441Y-133480125D01*
X161112438Y-133480123D01*
X160947706Y-133426598D01*
X160947702Y-133426597D01*
X160776614Y-133399500D01*
X160776611Y-133399500D01*
X160603389Y-133399500D01*
X160603386Y-133399500D01*
X160432297Y-133426597D01*
X160432293Y-133426598D01*
X160267561Y-133480123D01*
X160267558Y-133480125D01*
X160113214Y-133558766D01*
X159973073Y-133660585D01*
X159850585Y-133783073D01*
X159748766Y-133923214D01*
X159670125Y-134077558D01*
X159670123Y-134077561D01*
X159616598Y-134242293D01*
X159616597Y-134242297D01*
X159589500Y-134413385D01*
X148432854Y-134413385D01*
X148483996Y-134342994D01*
X148566211Y-134181639D01*
X148622171Y-134009409D01*
X148650500Y-133830546D01*
X148650500Y-133649454D01*
X148650500Y-133649450D01*
X148623681Y-133480125D01*
X148622171Y-133470591D01*
X148566211Y-133298361D01*
X148483996Y-133137006D01*
X148377553Y-132990499D01*
X148249501Y-132862447D01*
X148102994Y-132756004D01*
X148102993Y-132756003D01*
X148102991Y-132756002D01*
X147941637Y-132673788D01*
X147769406Y-132617828D01*
X147590549Y-132589500D01*
X147590546Y-132589500D01*
X147409454Y-132589500D01*
X147409451Y-132589500D01*
X147230593Y-132617828D01*
X147058362Y-132673788D01*
X146897008Y-132756002D01*
X146893760Y-132758362D01*
X146750499Y-132862447D01*
X146622447Y-132990499D01*
X146569225Y-133063752D01*
X146516002Y-133137008D01*
X146433788Y-133298362D01*
X146377828Y-133470593D01*
X146349500Y-133649450D01*
X118562231Y-133649450D01*
X118566211Y-133641639D01*
X118566212Y-133641634D01*
X118566214Y-133641632D01*
X118574876Y-133614974D01*
X118574876Y-133614972D01*
X118593138Y-133558766D01*
X118622171Y-133469409D01*
X118636335Y-133379977D01*
X118650500Y-133290549D01*
X118650500Y-133109450D01*
X118622171Y-132930593D01*
X118622171Y-132930591D01*
X118566211Y-132758361D01*
X118483996Y-132597006D01*
X118377553Y-132450499D01*
X118249501Y-132322447D01*
X118102994Y-132216004D01*
X118102993Y-132216003D01*
X118102991Y-132216002D01*
X117941637Y-132133788D01*
X117769406Y-132077828D01*
X117590549Y-132049500D01*
X117590546Y-132049500D01*
X117409454Y-132049500D01*
X117409451Y-132049500D01*
X117230593Y-132077828D01*
X117058362Y-132133788D01*
X116897008Y-132216002D01*
X116827902Y-132266211D01*
X116750499Y-132322447D01*
X116622447Y-132450499D01*
X116569225Y-132523752D01*
X116516002Y-132597008D01*
X116433788Y-132758362D01*
X116377828Y-132930593D01*
X116349500Y-133109450D01*
X72500500Y-133109450D01*
X72500500Y-130413385D01*
X98089500Y-130413385D01*
X98089500Y-130586614D01*
X98116597Y-130757702D01*
X98116598Y-130757706D01*
X98170123Y-130922438D01*
X98170125Y-130922441D01*
X98247843Y-131074974D01*
X98248768Y-131076788D01*
X98350586Y-131216928D01*
X98473072Y-131339414D01*
X98613212Y-131441232D01*
X98767555Y-131519873D01*
X98767557Y-131519873D01*
X98767558Y-131519874D01*
X98767561Y-131519876D01*
X98932293Y-131573401D01*
X98932297Y-131573402D01*
X99103386Y-131600500D01*
X99103389Y-131600500D01*
X99276614Y-131600500D01*
X99447702Y-131573402D01*
X99447706Y-131573401D01*
X99612438Y-131519876D01*
X99612440Y-131519874D01*
X99612445Y-131519873D01*
X99766788Y-131441232D01*
X99906928Y-131339414D01*
X100029414Y-131216928D01*
X100131232Y-131076788D01*
X100209873Y-130922445D01*
X100209874Y-130922440D01*
X100209876Y-130922438D01*
X100263401Y-130757706D01*
X100263402Y-130757702D01*
X100290500Y-130586614D01*
X100290500Y-130413385D01*
X105709500Y-130413385D01*
X105709500Y-130586614D01*
X105736597Y-130757702D01*
X105736598Y-130757706D01*
X105790123Y-130922438D01*
X105790125Y-130922441D01*
X105867843Y-131074974D01*
X105868768Y-131076788D01*
X105970586Y-131216928D01*
X106093072Y-131339414D01*
X106233212Y-131441232D01*
X106387555Y-131519873D01*
X106387557Y-131519873D01*
X106387558Y-131519874D01*
X106387561Y-131519876D01*
X106552293Y-131573401D01*
X106552297Y-131573402D01*
X106723386Y-131600500D01*
X106723389Y-131600500D01*
X106896614Y-131600500D01*
X107067702Y-131573402D01*
X107067706Y-131573401D01*
X107232438Y-131519876D01*
X107232440Y-131519874D01*
X107232445Y-131519873D01*
X107386788Y-131441232D01*
X107526928Y-131339414D01*
X107649414Y-131216928D01*
X107751232Y-131076788D01*
X107829873Y-130922445D01*
X107829874Y-130922440D01*
X107829876Y-130922438D01*
X107883401Y-130757706D01*
X107883402Y-130757702D01*
X107910500Y-130586614D01*
X107910500Y-130569450D01*
X116349500Y-130569450D01*
X116349500Y-130750549D01*
X116377828Y-130929406D01*
X116433787Y-131101635D01*
X116433789Y-131101639D01*
X116516004Y-131262994D01*
X116622447Y-131409501D01*
X116750499Y-131537553D01*
X116897006Y-131643996D01*
X117058361Y-131726211D01*
X117230591Y-131782171D01*
X117302136Y-131793502D01*
X117409451Y-131810500D01*
X117409454Y-131810500D01*
X117590549Y-131810500D01*
X117679977Y-131796335D01*
X117769409Y-131782171D01*
X117941639Y-131726211D01*
X118102994Y-131643996D01*
X118249501Y-131537553D01*
X118377553Y-131409501D01*
X118483996Y-131262994D01*
X118562231Y-131109450D01*
X146349500Y-131109450D01*
X146349500Y-131290549D01*
X146377828Y-131469406D01*
X146377829Y-131469409D01*
X146433789Y-131641639D01*
X146516004Y-131802994D01*
X146622447Y-131949501D01*
X146750499Y-132077553D01*
X146897006Y-132183996D01*
X147058361Y-132266211D01*
X147230591Y-132322171D01*
X147302136Y-132333502D01*
X147409451Y-132350500D01*
X147409454Y-132350500D01*
X147590549Y-132350500D01*
X147679977Y-132336335D01*
X147769409Y-132322171D01*
X147941639Y-132266211D01*
X148102994Y-132183996D01*
X148249501Y-132077553D01*
X148377553Y-131949501D01*
X148483996Y-131802994D01*
X148566211Y-131641639D01*
X148622171Y-131469409D01*
X148650500Y-131290546D01*
X148650500Y-131109454D01*
X148650500Y-131109450D01*
X148622171Y-130930593D01*
X148622171Y-130930591D01*
X148566211Y-130758361D01*
X148483996Y-130597006D01*
X148377553Y-130450499D01*
X148249501Y-130322447D01*
X148102994Y-130216004D01*
X148102993Y-130216003D01*
X148102991Y-130216002D01*
X147941637Y-130133788D01*
X147769406Y-130077828D01*
X147590549Y-130049500D01*
X147590546Y-130049500D01*
X147409454Y-130049500D01*
X147409451Y-130049500D01*
X147230593Y-130077828D01*
X147058362Y-130133788D01*
X146897008Y-130216002D01*
X146823752Y-130269225D01*
X146750499Y-130322447D01*
X146622447Y-130450499D01*
X146569225Y-130523752D01*
X146516002Y-130597008D01*
X146433788Y-130758362D01*
X146377828Y-130930593D01*
X146349500Y-131109450D01*
X118562231Y-131109450D01*
X118566211Y-131101639D01*
X118566212Y-131101634D01*
X118566214Y-131101632D01*
X118574876Y-131074974D01*
X118574876Y-131074972D01*
X118591096Y-131025048D01*
X118622171Y-130929409D01*
X118636335Y-130839977D01*
X118650500Y-130750549D01*
X118650500Y-130569450D01*
X118622171Y-130390593D01*
X118622171Y-130390591D01*
X118566211Y-130218361D01*
X118483996Y-130057006D01*
X118377553Y-129910499D01*
X118249501Y-129782447D01*
X118102994Y-129676004D01*
X118102993Y-129676003D01*
X118102991Y-129676002D01*
X117941637Y-129593788D01*
X117769406Y-129537828D01*
X117590549Y-129509500D01*
X117590546Y-129509500D01*
X117409454Y-129509500D01*
X117409451Y-129509500D01*
X117230593Y-129537828D01*
X117058362Y-129593788D01*
X116897008Y-129676002D01*
X116827902Y-129726211D01*
X116750499Y-129782447D01*
X116622447Y-129910499D01*
X116569225Y-129983752D01*
X116516002Y-130057008D01*
X116433788Y-130218362D01*
X116377828Y-130390593D01*
X116349500Y-130569450D01*
X107910500Y-130569450D01*
X107910500Y-130413385D01*
X107883402Y-130242297D01*
X107883401Y-130242293D01*
X107829876Y-130077561D01*
X107829874Y-130077558D01*
X107829873Y-130077557D01*
X107829873Y-130077555D01*
X107751232Y-129923212D01*
X107649414Y-129783072D01*
X107526928Y-129660586D01*
X107386788Y-129558768D01*
X107386787Y-129558767D01*
X107386785Y-129558766D01*
X107232441Y-129480125D01*
X107232438Y-129480123D01*
X107067706Y-129426598D01*
X107067702Y-129426597D01*
X106896614Y-129399500D01*
X106896611Y-129399500D01*
X106723389Y-129399500D01*
X106723386Y-129399500D01*
X106552297Y-129426597D01*
X106552293Y-129426598D01*
X106387561Y-129480123D01*
X106387558Y-129480125D01*
X106233214Y-129558766D01*
X106093073Y-129660585D01*
X105970585Y-129783073D01*
X105868766Y-129923214D01*
X105790125Y-130077558D01*
X105790123Y-130077561D01*
X105736598Y-130242293D01*
X105736597Y-130242297D01*
X105709500Y-130413385D01*
X100290500Y-130413385D01*
X100263402Y-130242297D01*
X100263401Y-130242293D01*
X100209876Y-130077561D01*
X100209874Y-130077558D01*
X100209873Y-130077557D01*
X100209873Y-130077555D01*
X100131232Y-129923212D01*
X100029414Y-129783072D01*
X99906928Y-129660586D01*
X99766788Y-129558768D01*
X99766787Y-129558767D01*
X99766785Y-129558766D01*
X99612441Y-129480125D01*
X99612438Y-129480123D01*
X99447706Y-129426598D01*
X99447702Y-129426597D01*
X99276614Y-129399500D01*
X99276611Y-129399500D01*
X99103389Y-129399500D01*
X99103386Y-129399500D01*
X98932297Y-129426597D01*
X98932293Y-129426598D01*
X98767561Y-129480123D01*
X98767558Y-129480125D01*
X98613214Y-129558766D01*
X98473073Y-129660585D01*
X98350585Y-129783073D01*
X98248766Y-129923214D01*
X98170125Y-130077558D01*
X98170123Y-130077561D01*
X98116598Y-130242293D01*
X98116597Y-130242297D01*
X98089500Y-130413385D01*
X72500500Y-130413385D01*
X72500500Y-128029450D01*
X116349500Y-128029450D01*
X116349500Y-128210549D01*
X116377828Y-128389406D01*
X116433787Y-128561635D01*
X116433789Y-128561639D01*
X116516004Y-128722994D01*
X116622447Y-128869501D01*
X116750499Y-128997553D01*
X116897006Y-129103996D01*
X117058361Y-129186211D01*
X117230591Y-129242171D01*
X117302136Y-129253502D01*
X117409451Y-129270500D01*
X117409454Y-129270500D01*
X117590549Y-129270500D01*
X117679977Y-129256335D01*
X117769409Y-129242171D01*
X117941639Y-129186211D01*
X118102994Y-129103996D01*
X118249501Y-128997553D01*
X118377553Y-128869501D01*
X118483996Y-128722994D01*
X118562231Y-128569450D01*
X146349500Y-128569450D01*
X146349500Y-128750549D01*
X146377828Y-128929406D01*
X146377829Y-128929409D01*
X146433789Y-129101639D01*
X146516004Y-129262994D01*
X146622447Y-129409501D01*
X146750499Y-129537553D01*
X146897006Y-129643996D01*
X147058361Y-129726211D01*
X147230591Y-129782171D01*
X147302136Y-129793502D01*
X147409451Y-129810500D01*
X147409454Y-129810500D01*
X147590549Y-129810500D01*
X147679977Y-129796335D01*
X147769409Y-129782171D01*
X147941639Y-129726211D01*
X148102994Y-129643996D01*
X148249501Y-129537553D01*
X148377553Y-129409501D01*
X148483996Y-129262994D01*
X148566211Y-129101639D01*
X148622171Y-128929409D01*
X148650500Y-128750546D01*
X148650500Y-128569454D01*
X148650500Y-128569450D01*
X148622171Y-128390593D01*
X148622171Y-128390591D01*
X148566211Y-128218361D01*
X148483996Y-128057006D01*
X148377553Y-127910499D01*
X148249501Y-127782447D01*
X148102994Y-127676004D01*
X148102993Y-127676003D01*
X148102991Y-127676002D01*
X147941637Y-127593788D01*
X147769406Y-127537828D01*
X147590549Y-127509500D01*
X147590546Y-127509500D01*
X147409454Y-127509500D01*
X147409451Y-127509500D01*
X147230593Y-127537828D01*
X147058362Y-127593788D01*
X146897008Y-127676002D01*
X146893760Y-127678362D01*
X146750499Y-127782447D01*
X146622447Y-127910499D01*
X146613773Y-127922438D01*
X146516002Y-128057008D01*
X146433788Y-128218362D01*
X146377828Y-128390593D01*
X146349500Y-128569450D01*
X118562231Y-128569450D01*
X118566211Y-128561639D01*
X118566212Y-128561634D01*
X118566214Y-128561632D01*
X118574876Y-128534974D01*
X118574876Y-128534972D01*
X118591096Y-128485048D01*
X118622171Y-128389409D01*
X118636335Y-128299977D01*
X118650500Y-128210549D01*
X118650500Y-128029450D01*
X118622171Y-127850593D01*
X118622171Y-127850591D01*
X118566211Y-127678361D01*
X118483996Y-127517006D01*
X118408711Y-127413385D01*
X159589500Y-127413385D01*
X159589500Y-127586614D01*
X159616597Y-127757702D01*
X159616598Y-127757706D01*
X159670123Y-127922438D01*
X159670125Y-127922441D01*
X159738689Y-128057008D01*
X159748768Y-128076788D01*
X159850586Y-128216928D01*
X159973072Y-128339414D01*
X160113212Y-128441232D01*
X160267555Y-128519873D01*
X160267557Y-128519873D01*
X160267558Y-128519874D01*
X160267561Y-128519876D01*
X160432293Y-128573401D01*
X160432297Y-128573402D01*
X160603386Y-128600500D01*
X160603389Y-128600500D01*
X160776614Y-128600500D01*
X160947702Y-128573402D01*
X160947706Y-128573401D01*
X161112438Y-128519876D01*
X161112440Y-128519874D01*
X161112445Y-128519873D01*
X161266788Y-128441232D01*
X161406928Y-128339414D01*
X161529414Y-128216928D01*
X161631232Y-128076788D01*
X161709873Y-127922445D01*
X161709874Y-127922440D01*
X161709876Y-127922438D01*
X161763401Y-127757706D01*
X161763402Y-127757702D01*
X161790500Y-127586614D01*
X161790500Y-127413385D01*
X167209500Y-127413385D01*
X167209500Y-127586614D01*
X167236597Y-127757702D01*
X167236598Y-127757706D01*
X167290123Y-127922438D01*
X167290125Y-127922441D01*
X167358689Y-128057008D01*
X167368768Y-128076788D01*
X167470586Y-128216928D01*
X167593072Y-128339414D01*
X167733212Y-128441232D01*
X167887555Y-128519873D01*
X167887557Y-128519873D01*
X167887558Y-128519874D01*
X167887561Y-128519876D01*
X168052293Y-128573401D01*
X168052297Y-128573402D01*
X168223386Y-128600500D01*
X168223389Y-128600500D01*
X168396614Y-128600500D01*
X168567702Y-128573402D01*
X168567706Y-128573401D01*
X168732438Y-128519876D01*
X168732440Y-128519874D01*
X168732445Y-128519873D01*
X168886788Y-128441232D01*
X169026928Y-128339414D01*
X169149414Y-128216928D01*
X169251232Y-128076788D01*
X169329873Y-127922445D01*
X169329874Y-127922440D01*
X169329876Y-127922438D01*
X169383401Y-127757706D01*
X169383402Y-127757702D01*
X169410500Y-127586614D01*
X169410500Y-127413385D01*
X169383402Y-127242297D01*
X169383401Y-127242293D01*
X169329876Y-127077561D01*
X169329874Y-127077558D01*
X169329873Y-127077557D01*
X169329873Y-127077555D01*
X169251232Y-126923212D01*
X169149414Y-126783072D01*
X169026928Y-126660586D01*
X168886788Y-126558768D01*
X168886787Y-126558767D01*
X168886785Y-126558766D01*
X168732441Y-126480125D01*
X168732438Y-126480123D01*
X168567706Y-126426598D01*
X168567702Y-126426597D01*
X168396614Y-126399500D01*
X168396611Y-126399500D01*
X168223389Y-126399500D01*
X168223386Y-126399500D01*
X168052297Y-126426597D01*
X168052293Y-126426598D01*
X167887561Y-126480123D01*
X167887558Y-126480125D01*
X167733214Y-126558766D01*
X167593073Y-126660585D01*
X167470585Y-126783073D01*
X167368766Y-126923214D01*
X167290125Y-127077558D01*
X167290123Y-127077561D01*
X167236598Y-127242293D01*
X167236597Y-127242297D01*
X167209500Y-127413385D01*
X161790500Y-127413385D01*
X161763402Y-127242297D01*
X161763401Y-127242293D01*
X161709876Y-127077561D01*
X161709874Y-127077558D01*
X161709873Y-127077557D01*
X161709873Y-127077555D01*
X161631232Y-126923212D01*
X161529414Y-126783072D01*
X161406928Y-126660586D01*
X161266788Y-126558768D01*
X161266787Y-126558767D01*
X161266785Y-126558766D01*
X161112441Y-126480125D01*
X161112438Y-126480123D01*
X160947706Y-126426598D01*
X160947702Y-126426597D01*
X160776614Y-126399500D01*
X160776611Y-126399500D01*
X160603389Y-126399500D01*
X160603386Y-126399500D01*
X160432297Y-126426597D01*
X160432293Y-126426598D01*
X160267561Y-126480123D01*
X160267558Y-126480125D01*
X160113214Y-126558766D01*
X159973073Y-126660585D01*
X159850585Y-126783073D01*
X159748766Y-126923214D01*
X159670125Y-127077558D01*
X159670123Y-127077561D01*
X159616598Y-127242293D01*
X159616597Y-127242297D01*
X159589500Y-127413385D01*
X118408711Y-127413385D01*
X118377553Y-127370499D01*
X118249501Y-127242447D01*
X118102994Y-127136004D01*
X118102993Y-127136003D01*
X118102991Y-127136002D01*
X117941637Y-127053788D01*
X117769406Y-126997828D01*
X117590549Y-126969500D01*
X117590546Y-126969500D01*
X117409454Y-126969500D01*
X117409451Y-126969500D01*
X117230593Y-126997828D01*
X117058362Y-127053788D01*
X116897008Y-127136002D01*
X116827902Y-127186211D01*
X116750499Y-127242447D01*
X116622447Y-127370499D01*
X116591289Y-127413385D01*
X116516002Y-127517008D01*
X116433788Y-127678362D01*
X116377828Y-127850593D01*
X116349500Y-128029450D01*
X72500500Y-128029450D01*
X72500500Y-125489450D01*
X116349500Y-125489450D01*
X116349500Y-125670549D01*
X116377828Y-125849406D01*
X116433787Y-126021635D01*
X116433789Y-126021639D01*
X116516004Y-126182994D01*
X116622447Y-126329501D01*
X116750499Y-126457553D01*
X116897006Y-126563996D01*
X117058361Y-126646211D01*
X117230591Y-126702171D01*
X117302136Y-126713502D01*
X117409451Y-126730500D01*
X117409454Y-126730500D01*
X117590549Y-126730500D01*
X117679977Y-126716335D01*
X117769409Y-126702171D01*
X117941639Y-126646211D01*
X118102994Y-126563996D01*
X118249501Y-126457553D01*
X118377553Y-126329501D01*
X118483996Y-126182994D01*
X118562231Y-126029450D01*
X146349500Y-126029450D01*
X146349500Y-126210549D01*
X146377828Y-126389406D01*
X146432855Y-126558766D01*
X146433789Y-126561639D01*
X146516004Y-126722994D01*
X146622447Y-126869501D01*
X146750499Y-126997553D01*
X146897006Y-127103996D01*
X147058361Y-127186211D01*
X147230591Y-127242171D01*
X147302136Y-127253502D01*
X147409451Y-127270500D01*
X147409454Y-127270500D01*
X147590549Y-127270500D01*
X147679977Y-127256335D01*
X147769409Y-127242171D01*
X147941639Y-127186211D01*
X148102994Y-127103996D01*
X148249501Y-126997553D01*
X148377553Y-126869501D01*
X148483996Y-126722994D01*
X148566211Y-126561639D01*
X148622171Y-126389409D01*
X148650500Y-126210546D01*
X148650500Y-126029454D01*
X148650500Y-126029450D01*
X148622171Y-125850593D01*
X148622171Y-125850591D01*
X148566211Y-125678361D01*
X148483996Y-125517006D01*
X148377553Y-125370499D01*
X148249501Y-125242447D01*
X148102994Y-125136004D01*
X148102993Y-125136003D01*
X148102991Y-125136002D01*
X147941637Y-125053788D01*
X147769406Y-124997828D01*
X147590549Y-124969500D01*
X147590546Y-124969500D01*
X147409454Y-124969500D01*
X147409451Y-124969500D01*
X147230593Y-124997828D01*
X147058362Y-125053788D01*
X146897008Y-125136002D01*
X146893760Y-125138362D01*
X146750499Y-125242447D01*
X146622447Y-125370499D01*
X146569225Y-125443752D01*
X146516002Y-125517008D01*
X146433788Y-125678362D01*
X146377828Y-125850593D01*
X146349500Y-126029450D01*
X118562231Y-126029450D01*
X118566211Y-126021639D01*
X118566212Y-126021634D01*
X118566214Y-126021632D01*
X118574876Y-125994974D01*
X118574876Y-125994972D01*
X118591096Y-125945048D01*
X118622171Y-125849409D01*
X118636335Y-125759977D01*
X118650500Y-125670549D01*
X118650500Y-125489450D01*
X118622171Y-125310593D01*
X118622171Y-125310591D01*
X118566211Y-125138361D01*
X118483996Y-124977006D01*
X118377553Y-124830499D01*
X118249501Y-124702447D01*
X118102994Y-124596004D01*
X118102993Y-124596003D01*
X118102991Y-124596002D01*
X117941637Y-124513788D01*
X117769406Y-124457828D01*
X117590549Y-124429500D01*
X117590546Y-124429500D01*
X117409454Y-124429500D01*
X117409451Y-124429500D01*
X117230593Y-124457828D01*
X117058362Y-124513788D01*
X116897008Y-124596002D01*
X116827902Y-124646211D01*
X116750499Y-124702447D01*
X116622447Y-124830499D01*
X116569225Y-124903752D01*
X116516002Y-124977008D01*
X116433788Y-125138362D01*
X116377828Y-125310593D01*
X116349500Y-125489450D01*
X72500500Y-125489450D01*
X72500500Y-122949450D01*
X116349500Y-122949450D01*
X116349500Y-123130549D01*
X116377828Y-123309406D01*
X116433788Y-123481637D01*
X116500489Y-123612546D01*
X116516004Y-123642994D01*
X116622447Y-123789501D01*
X116750499Y-123917553D01*
X116897006Y-124023996D01*
X117058361Y-124106211D01*
X117230591Y-124162171D01*
X117302136Y-124173502D01*
X117409451Y-124190500D01*
X117409454Y-124190500D01*
X117590549Y-124190500D01*
X117679977Y-124176335D01*
X117769409Y-124162171D01*
X117941639Y-124106211D01*
X118102994Y-124023996D01*
X118249501Y-123917553D01*
X118377553Y-123789501D01*
X118483996Y-123642994D01*
X118562231Y-123489450D01*
X146349500Y-123489450D01*
X146349500Y-123670549D01*
X146377828Y-123849406D01*
X146377829Y-123849409D01*
X146433789Y-124021639D01*
X146516004Y-124182994D01*
X146622447Y-124329501D01*
X146750499Y-124457553D01*
X146897006Y-124563996D01*
X147058361Y-124646211D01*
X147230591Y-124702171D01*
X147302136Y-124713502D01*
X147409451Y-124730500D01*
X147409454Y-124730500D01*
X147590549Y-124730500D01*
X147679977Y-124716335D01*
X147769409Y-124702171D01*
X147941639Y-124646211D01*
X148102994Y-124563996D01*
X148249501Y-124457553D01*
X148377553Y-124329501D01*
X148483996Y-124182994D01*
X148566211Y-124021639D01*
X148622171Y-123849409D01*
X148645756Y-123700500D01*
X148650500Y-123670549D01*
X148650500Y-123489450D01*
X148622171Y-123310593D01*
X148622171Y-123310591D01*
X148566211Y-123138361D01*
X148483996Y-122977006D01*
X148377553Y-122830499D01*
X148249501Y-122702447D01*
X148102994Y-122596004D01*
X148102993Y-122596003D01*
X148102991Y-122596002D01*
X147941637Y-122513788D01*
X147886225Y-122495784D01*
X147769406Y-122457828D01*
X147590549Y-122429500D01*
X147590546Y-122429500D01*
X147409454Y-122429500D01*
X147409451Y-122429500D01*
X147230593Y-122457828D01*
X147058362Y-122513788D01*
X146897008Y-122596002D01*
X146893760Y-122598362D01*
X146750499Y-122702447D01*
X146622447Y-122830499D01*
X146600948Y-122860090D01*
X146516002Y-122977008D01*
X146433788Y-123138362D01*
X146377828Y-123310593D01*
X146349500Y-123489450D01*
X118562231Y-123489450D01*
X118566211Y-123481639D01*
X118566212Y-123481634D01*
X118566214Y-123481632D01*
X118574876Y-123454974D01*
X118574876Y-123454972D01*
X118591096Y-123405048D01*
X118622171Y-123309409D01*
X118642054Y-123183872D01*
X118650500Y-123130549D01*
X118650500Y-122949450D01*
X118623838Y-122781118D01*
X118622171Y-122770591D01*
X118566211Y-122598361D01*
X118483996Y-122437006D01*
X118461117Y-122405515D01*
X178259500Y-122405515D01*
X178259500Y-122594484D01*
X178289058Y-122781113D01*
X178289060Y-122781118D01*
X178347453Y-122960832D01*
X178433240Y-123129199D01*
X178544310Y-123282073D01*
X178677927Y-123415690D01*
X178830801Y-123526760D01*
X178999168Y-123612547D01*
X179178882Y-123670940D01*
X179178883Y-123670940D01*
X179178886Y-123670941D01*
X179365516Y-123700500D01*
X179365519Y-123700500D01*
X179554484Y-123700500D01*
X179741113Y-123670941D01*
X179741114Y-123670940D01*
X179741118Y-123670940D01*
X179920832Y-123612547D01*
X180089199Y-123526760D01*
X180242073Y-123415690D01*
X180375690Y-123282073D01*
X180420909Y-123219834D01*
X180470407Y-123183872D01*
X180531592Y-123183872D01*
X180581093Y-123219836D01*
X180600000Y-123278027D01*
X180600000Y-123447824D01*
X180599999Y-123447824D01*
X180606401Y-123507370D01*
X180606403Y-123507381D01*
X180656646Y-123642088D01*
X180656647Y-123642090D01*
X180742807Y-123757184D01*
X180742815Y-123757192D01*
X180857909Y-123843352D01*
X180857911Y-123843353D01*
X180992618Y-123893596D01*
X180992629Y-123893598D01*
X181052176Y-123900000D01*
X181749999Y-123900000D01*
X181750000Y-123899999D01*
X181750000Y-122875277D01*
X181826306Y-122919333D01*
X181940756Y-122950000D01*
X182059244Y-122950000D01*
X182173694Y-122919333D01*
X182250000Y-122875277D01*
X182250000Y-123899999D01*
X182250001Y-123900000D01*
X182947824Y-123900000D01*
X183007370Y-123893598D01*
X183007381Y-123893596D01*
X183142088Y-123843353D01*
X183142090Y-123843352D01*
X183257184Y-123757192D01*
X183257192Y-123757184D01*
X183343352Y-123642090D01*
X183343353Y-123642088D01*
X183393596Y-123507381D01*
X183393598Y-123507370D01*
X183400000Y-123447824D01*
X183400000Y-122750001D01*
X183399999Y-122750000D01*
X182375278Y-122750000D01*
X182419333Y-122673694D01*
X182450000Y-122559244D01*
X182450000Y-122440756D01*
X182419333Y-122326306D01*
X182375278Y-122250000D01*
X183399999Y-122250000D01*
X183400000Y-122249999D01*
X183400000Y-121552175D01*
X183393598Y-121492629D01*
X183393596Y-121492618D01*
X183343353Y-121357911D01*
X183343352Y-121357909D01*
X183257192Y-121242815D01*
X183257184Y-121242807D01*
X183142090Y-121156647D01*
X183142088Y-121156646D01*
X183007381Y-121106403D01*
X183007370Y-121106401D01*
X182947824Y-121100000D01*
X182250001Y-121100000D01*
X182250000Y-121100001D01*
X182250000Y-122124722D01*
X182173694Y-122080667D01*
X182059244Y-122050000D01*
X181940756Y-122050000D01*
X181826306Y-122080667D01*
X181750000Y-122124722D01*
X181750000Y-121100001D01*
X181749999Y-121100000D01*
X181052176Y-121100000D01*
X180992629Y-121106401D01*
X180992618Y-121106403D01*
X180857911Y-121156646D01*
X180857909Y-121156647D01*
X180742815Y-121242807D01*
X180742807Y-121242815D01*
X180656647Y-121357909D01*
X180656646Y-121357911D01*
X180606403Y-121492618D01*
X180606401Y-121492629D01*
X180600000Y-121552175D01*
X180600000Y-121721972D01*
X180581093Y-121780163D01*
X180531593Y-121816127D01*
X180470407Y-121816127D01*
X180420908Y-121780163D01*
X180375694Y-121717932D01*
X180375692Y-121717930D01*
X180375690Y-121717927D01*
X180242073Y-121584310D01*
X180089199Y-121473240D01*
X180089198Y-121473239D01*
X180089196Y-121473238D01*
X179920832Y-121387453D01*
X179741113Y-121329058D01*
X179554484Y-121299500D01*
X179554481Y-121299500D01*
X179365519Y-121299500D01*
X179365516Y-121299500D01*
X179178886Y-121329058D01*
X178999167Y-121387453D01*
X178830803Y-121473238D01*
X178677928Y-121584309D01*
X178544309Y-121717928D01*
X178433238Y-121870803D01*
X178347453Y-122039167D01*
X178289058Y-122218886D01*
X178259500Y-122405515D01*
X118461117Y-122405515D01*
X118377553Y-122290499D01*
X118249501Y-122162447D01*
X118102994Y-122056004D01*
X118102993Y-122056003D01*
X118102991Y-122056002D01*
X117941637Y-121973788D01*
X117769406Y-121917828D01*
X117590549Y-121889500D01*
X117590546Y-121889500D01*
X117409454Y-121889500D01*
X117409451Y-121889500D01*
X117230593Y-121917828D01*
X117058362Y-121973788D01*
X116897008Y-122056002D01*
X116863060Y-122080667D01*
X116750499Y-122162447D01*
X116622447Y-122290499D01*
X116596432Y-122326306D01*
X116516002Y-122437008D01*
X116433788Y-122598362D01*
X116377828Y-122770593D01*
X116349500Y-122949450D01*
X72500500Y-122949450D01*
X72500500Y-119895716D01*
X81175000Y-119895716D01*
X81175000Y-120104283D01*
X81207624Y-120310267D01*
X81272073Y-120508620D01*
X81366758Y-120694450D01*
X81366762Y-120694456D01*
X81402626Y-120743818D01*
X81976211Y-120170232D01*
X81987482Y-120212292D01*
X82059890Y-120337708D01*
X82162292Y-120440110D01*
X82287708Y-120512518D01*
X82329764Y-120523787D01*
X81756180Y-121097371D01*
X81756180Y-121097372D01*
X81805543Y-121133237D01*
X81805549Y-121133241D01*
X81991379Y-121227926D01*
X82189732Y-121292375D01*
X82395717Y-121325000D01*
X82604283Y-121325000D01*
X82810267Y-121292375D01*
X83008623Y-121227925D01*
X83194450Y-121133240D01*
X83243818Y-121097372D01*
X82670233Y-120523787D01*
X82712292Y-120512518D01*
X82837708Y-120440110D01*
X82940110Y-120337708D01*
X83012518Y-120212292D01*
X83023787Y-120170233D01*
X83597372Y-120743818D01*
X83633240Y-120694450D01*
X83727925Y-120508623D01*
X83792375Y-120310267D01*
X83825000Y-120104283D01*
X83825000Y-119895716D01*
X83792375Y-119689732D01*
X83727926Y-119491379D01*
X83633241Y-119305549D01*
X83633237Y-119305543D01*
X83597372Y-119256180D01*
X83597371Y-119256180D01*
X83023787Y-119829764D01*
X83012518Y-119787708D01*
X82940110Y-119662292D01*
X82837708Y-119559890D01*
X82712292Y-119487482D01*
X82670232Y-119476211D01*
X83016315Y-119130130D01*
X86374500Y-119130130D01*
X86374500Y-120869860D01*
X86374501Y-120869863D01*
X86377414Y-120894990D01*
X86386237Y-120914972D01*
X86422794Y-120997765D01*
X86502235Y-121077206D01*
X86605009Y-121122585D01*
X86630135Y-121125500D01*
X88369864Y-121125499D01*
X88394991Y-121122585D01*
X88497765Y-121077206D01*
X88577206Y-120997765D01*
X88622585Y-120894991D01*
X88625500Y-120869865D01*
X88625499Y-120409450D01*
X116349500Y-120409450D01*
X116349500Y-120590549D01*
X116377828Y-120769406D01*
X116433788Y-120941637D01*
X116513138Y-121097371D01*
X116516004Y-121102994D01*
X116622447Y-121249501D01*
X116750499Y-121377553D01*
X116897006Y-121483996D01*
X117058361Y-121566211D01*
X117230591Y-121622171D01*
X117302136Y-121633502D01*
X117409451Y-121650500D01*
X117409454Y-121650500D01*
X117590549Y-121650500D01*
X117679977Y-121636335D01*
X117769409Y-121622171D01*
X117941639Y-121566211D01*
X118102994Y-121483996D01*
X118249501Y-121377553D01*
X118377553Y-121249501D01*
X118483996Y-121102994D01*
X118566211Y-120941639D01*
X118566212Y-120941634D01*
X118566214Y-120941632D01*
X118574876Y-120914974D01*
X118574876Y-120914972D01*
X118591096Y-120865048D01*
X118622171Y-120769409D01*
X118636335Y-120679977D01*
X118650500Y-120590549D01*
X118650500Y-120409450D01*
X118622171Y-120230593D01*
X118622171Y-120230591D01*
X118566211Y-120058361D01*
X118483996Y-119897006D01*
X118377553Y-119750499D01*
X118249501Y-119622447D01*
X118102994Y-119516004D01*
X118102993Y-119516003D01*
X118102991Y-119516002D01*
X117941637Y-119433788D01*
X117769406Y-119377828D01*
X117590549Y-119349500D01*
X117590546Y-119349500D01*
X117409454Y-119349500D01*
X117409451Y-119349500D01*
X117230593Y-119377828D01*
X117058362Y-119433788D01*
X116897008Y-119516002D01*
X116836602Y-119559890D01*
X116750499Y-119622447D01*
X116622447Y-119750499D01*
X116595413Y-119787708D01*
X116516002Y-119897008D01*
X116433788Y-120058362D01*
X116377828Y-120230593D01*
X116349500Y-120409450D01*
X88625499Y-120409450D01*
X88625499Y-119999999D01*
X88625499Y-119130139D01*
X88625499Y-119130136D01*
X88622585Y-119105009D01*
X88577206Y-119002235D01*
X88497765Y-118922794D01*
X88394991Y-118877415D01*
X88394990Y-118877414D01*
X88394988Y-118877414D01*
X88369868Y-118874500D01*
X86630139Y-118874500D01*
X86630136Y-118874501D01*
X86605009Y-118877414D01*
X86502235Y-118922794D01*
X86422794Y-119002235D01*
X86377414Y-119105011D01*
X86374500Y-119130130D01*
X83016315Y-119130130D01*
X83089173Y-119057272D01*
X83243818Y-118902626D01*
X83194456Y-118866762D01*
X83194450Y-118866758D01*
X83008620Y-118772073D01*
X82810267Y-118707624D01*
X82604283Y-118675000D01*
X82395717Y-118675000D01*
X82189732Y-118707624D01*
X81991379Y-118772073D01*
X81805555Y-118866755D01*
X81756181Y-118902627D01*
X82329766Y-119476212D01*
X82287708Y-119487482D01*
X82162292Y-119559890D01*
X82059890Y-119662292D01*
X81987482Y-119787708D01*
X81976212Y-119829766D01*
X81402627Y-119256181D01*
X81366755Y-119305555D01*
X81272073Y-119491379D01*
X81207624Y-119689732D01*
X81175000Y-119895716D01*
X72500500Y-119895716D01*
X72500500Y-117939486D01*
X101939500Y-117939486D01*
X101939500Y-118140513D01*
X101978717Y-118337668D01*
X101978717Y-118337670D01*
X102055642Y-118523385D01*
X102055642Y-118523386D01*
X102156948Y-118675000D01*
X102167326Y-118690531D01*
X102309469Y-118832674D01*
X102476612Y-118944356D01*
X102662331Y-119021283D01*
X102859489Y-119060500D01*
X102859490Y-119060500D01*
X103060510Y-119060500D01*
X103060511Y-119060500D01*
X103257669Y-119021283D01*
X103443388Y-118944356D01*
X103610531Y-118832674D01*
X103752674Y-118690531D01*
X103864356Y-118523388D01*
X103941283Y-118337669D01*
X103980500Y-118140511D01*
X103980500Y-117939489D01*
X103966568Y-117869450D01*
X116349500Y-117869450D01*
X116349500Y-118050549D01*
X116377828Y-118229406D01*
X116433788Y-118401637D01*
X116495823Y-118523388D01*
X116516004Y-118562994D01*
X116622447Y-118709501D01*
X116750499Y-118837553D01*
X116897006Y-118943996D01*
X117058361Y-119026211D01*
X117230591Y-119082171D01*
X117302136Y-119093502D01*
X117409451Y-119110500D01*
X117409454Y-119110500D01*
X117590549Y-119110500D01*
X117679977Y-119096335D01*
X117769409Y-119082171D01*
X117941639Y-119026211D01*
X118102994Y-118943996D01*
X118249501Y-118837553D01*
X118377553Y-118709501D01*
X118483996Y-118562994D01*
X118566211Y-118401639D01*
X118622171Y-118229409D01*
X118650500Y-118050546D01*
X118650500Y-117869454D01*
X118650500Y-117869450D01*
X118622171Y-117690593D01*
X118622171Y-117690591D01*
X118566211Y-117518361D01*
X118483996Y-117357006D01*
X118377553Y-117210499D01*
X118249501Y-117082447D01*
X118102994Y-116976004D01*
X118102993Y-116976003D01*
X118102991Y-116976002D01*
X117941637Y-116893788D01*
X117769406Y-116837828D01*
X117590549Y-116809500D01*
X117590546Y-116809500D01*
X117409454Y-116809500D01*
X117409451Y-116809500D01*
X117230593Y-116837828D01*
X117058362Y-116893788D01*
X116897008Y-116976002D01*
X116827902Y-117026211D01*
X116750499Y-117082447D01*
X116622447Y-117210499D01*
X116569225Y-117283752D01*
X116516002Y-117357008D01*
X116433788Y-117518362D01*
X116377828Y-117690593D01*
X116349500Y-117869450D01*
X103966568Y-117869450D01*
X103941283Y-117742331D01*
X103864357Y-117556614D01*
X103864357Y-117556613D01*
X103752674Y-117389469D01*
X103610530Y-117247325D01*
X103443385Y-117135642D01*
X103257669Y-117058717D01*
X103060513Y-117019500D01*
X103060511Y-117019500D01*
X102859489Y-117019500D01*
X102859486Y-117019500D01*
X102662331Y-117058717D01*
X102662329Y-117058717D01*
X102476614Y-117135642D01*
X102476613Y-117135642D01*
X102309469Y-117247325D01*
X102167325Y-117389469D01*
X102055642Y-117556613D01*
X102055642Y-117556614D01*
X101978717Y-117742329D01*
X101978717Y-117742331D01*
X101939500Y-117939486D01*
X72500500Y-117939486D01*
X72500500Y-115399486D01*
X99399500Y-115399486D01*
X99399500Y-115600513D01*
X99438717Y-115797668D01*
X99438717Y-115797670D01*
X99515642Y-115983385D01*
X99515642Y-115983386D01*
X99627325Y-116150530D01*
X99627326Y-116150531D01*
X99769469Y-116292674D01*
X99936612Y-116404356D01*
X99936613Y-116404356D01*
X99936614Y-116404357D01*
X99978686Y-116421783D01*
X100122331Y-116481283D01*
X100319489Y-116520500D01*
X100319490Y-116520500D01*
X100520510Y-116520500D01*
X100520511Y-116520500D01*
X100717669Y-116481283D01*
X100903388Y-116404356D01*
X101070531Y-116292674D01*
X101212674Y-116150531D01*
X101324356Y-115983388D01*
X101401283Y-115797669D01*
X101440500Y-115600511D01*
X101440500Y-115403980D01*
X104280000Y-115403980D01*
X104280000Y-115596019D01*
X104310039Y-115785679D01*
X104369382Y-115968317D01*
X104456561Y-116139416D01*
X104477797Y-116168646D01*
X105100000Y-115546443D01*
X105100000Y-115552661D01*
X105127259Y-115654394D01*
X105179920Y-115745606D01*
X105254394Y-115820080D01*
X105345606Y-115872741D01*
X105447339Y-115900000D01*
X105453553Y-115900000D01*
X104831352Y-116522201D01*
X104860577Y-116543435D01*
X104860581Y-116543437D01*
X105031682Y-116630617D01*
X105214320Y-116689960D01*
X105403981Y-116720000D01*
X105596019Y-116720000D01*
X105785679Y-116689960D01*
X105968317Y-116630617D01*
X106139412Y-116543440D01*
X106139420Y-116543435D01*
X106168646Y-116522201D01*
X105546445Y-115900000D01*
X105552661Y-115900000D01*
X105654394Y-115872741D01*
X105745606Y-115820080D01*
X105820080Y-115745606D01*
X105872741Y-115654394D01*
X105900000Y-115552661D01*
X105900000Y-115546445D01*
X106522201Y-116168646D01*
X106543435Y-116139420D01*
X106543440Y-116139412D01*
X106630617Y-115968317D01*
X106689960Y-115785679D01*
X106720000Y-115596019D01*
X106720000Y-115403980D01*
X106710033Y-115341051D01*
X106689960Y-115214320D01*
X106630617Y-115031682D01*
X106543437Y-114860581D01*
X106543435Y-114860577D01*
X106522201Y-114831352D01*
X105900000Y-115453553D01*
X105900000Y-115447339D01*
X105872741Y-115345606D01*
X105820080Y-115254394D01*
X105745606Y-115179920D01*
X105654394Y-115127259D01*
X105552661Y-115100000D01*
X105546443Y-115100000D01*
X106168646Y-114477797D01*
X106139416Y-114456561D01*
X105968317Y-114369382D01*
X105785679Y-114310039D01*
X105596019Y-114280000D01*
X105403981Y-114280000D01*
X105214320Y-114310039D01*
X105031682Y-114369382D01*
X104860580Y-114456563D01*
X104831352Y-114477797D01*
X105453555Y-115100000D01*
X105447339Y-115100000D01*
X105345606Y-115127259D01*
X105254394Y-115179920D01*
X105179920Y-115254394D01*
X105127259Y-115345606D01*
X105100000Y-115447339D01*
X105100000Y-115453555D01*
X104477797Y-114831352D01*
X104456563Y-114860580D01*
X104369382Y-115031682D01*
X104310039Y-115214320D01*
X104280000Y-115403980D01*
X101440500Y-115403980D01*
X101440500Y-115399489D01*
X101401283Y-115202331D01*
X101358896Y-115100000D01*
X101324357Y-115016614D01*
X101324357Y-115016613D01*
X101212674Y-114849469D01*
X101070530Y-114707325D01*
X100990052Y-114653551D01*
X100903388Y-114595644D01*
X100903389Y-114595644D01*
X100903387Y-114595643D01*
X100903385Y-114595642D01*
X100717669Y-114518717D01*
X100520513Y-114479500D01*
X100520511Y-114479500D01*
X100319489Y-114479500D01*
X100319486Y-114479500D01*
X100122331Y-114518717D01*
X100122329Y-114518717D01*
X99936614Y-114595642D01*
X99936613Y-114595642D01*
X99769469Y-114707325D01*
X99627325Y-114849469D01*
X99515642Y-115016613D01*
X99515642Y-115016614D01*
X99438717Y-115202329D01*
X99438717Y-115202331D01*
X99399500Y-115399486D01*
X72500500Y-115399486D01*
X72500500Y-112773749D01*
X116150000Y-112773749D01*
X116150000Y-112986250D01*
X116183240Y-113196121D01*
X116248904Y-113398215D01*
X116345376Y-113587553D01*
X116345380Y-113587559D01*
X116384728Y-113641716D01*
X116384729Y-113641716D01*
X117017037Y-113009407D01*
X117034075Y-113072993D01*
X117099901Y-113187007D01*
X117192993Y-113280099D01*
X117307007Y-113345925D01*
X117370589Y-113362962D01*
X116738282Y-113995269D01*
X116738282Y-113995270D01*
X116792440Y-114034619D01*
X116792446Y-114034623D01*
X116981786Y-114131096D01*
X117072983Y-114160727D01*
X117122483Y-114196691D01*
X117141391Y-114254881D01*
X117122484Y-114313072D01*
X117072988Y-114349035D01*
X117058366Y-114353786D01*
X117058364Y-114353787D01*
X116897008Y-114436002D01*
X116827902Y-114486211D01*
X116750499Y-114542447D01*
X116622447Y-114670499D01*
X116595691Y-114707326D01*
X116516002Y-114817008D01*
X116433788Y-114978362D01*
X116377828Y-115150593D01*
X116349500Y-115329450D01*
X116349500Y-115510549D01*
X116377828Y-115689406D01*
X116433788Y-115861637D01*
X116495823Y-115983388D01*
X116516004Y-116022994D01*
X116622447Y-116169501D01*
X116750499Y-116297553D01*
X116897006Y-116403996D01*
X117058361Y-116486211D01*
X117230591Y-116542171D01*
X117302136Y-116553502D01*
X117409451Y-116570500D01*
X117409454Y-116570500D01*
X117590549Y-116570500D01*
X117679977Y-116556335D01*
X117769409Y-116542171D01*
X117941639Y-116486211D01*
X118102994Y-116403996D01*
X118249501Y-116297553D01*
X118377553Y-116169501D01*
X118483996Y-116022994D01*
X118566211Y-115861639D01*
X118622171Y-115689409D01*
X118636962Y-115596019D01*
X118650500Y-115510549D01*
X118650500Y-115329450D01*
X118622171Y-115150593D01*
X118622171Y-115150591D01*
X118566211Y-114978361D01*
X118483996Y-114817006D01*
X118377553Y-114670499D01*
X118249501Y-114542447D01*
X118102994Y-114436004D01*
X118102993Y-114436003D01*
X118102991Y-114436002D01*
X117941637Y-114353788D01*
X117927013Y-114349036D01*
X117877514Y-114313071D01*
X117858608Y-114254880D01*
X117877517Y-114196689D01*
X117927016Y-114160727D01*
X118018213Y-114131096D01*
X118207556Y-114034620D01*
X118261716Y-113995270D01*
X117629408Y-113362962D01*
X117692993Y-113345925D01*
X117807007Y-113280099D01*
X117900099Y-113187007D01*
X117965925Y-113072993D01*
X117982962Y-113009408D01*
X118615270Y-113641716D01*
X118654620Y-113587556D01*
X118751095Y-113398215D01*
X118816759Y-113196121D01*
X118850000Y-112986250D01*
X118850000Y-112773749D01*
X118816759Y-112563878D01*
X118780194Y-112451343D01*
X118780194Y-112390158D01*
X118816158Y-112340657D01*
X118874349Y-112321750D01*
X118932540Y-112340657D01*
X118944353Y-112350746D01*
X122874087Y-116280480D01*
X122874089Y-116280481D01*
X122874090Y-116280482D01*
X122874091Y-116280483D01*
X122965408Y-116333205D01*
X122965406Y-116333205D01*
X122965410Y-116333206D01*
X122965412Y-116333207D01*
X123067273Y-116360500D01*
X146352161Y-116360500D01*
X146410352Y-116379407D01*
X146440368Y-116414552D01*
X146474370Y-116481283D01*
X146506040Y-116543440D01*
X146516004Y-116562994D01*
X146622447Y-116709501D01*
X146750499Y-116837553D01*
X146897006Y-116943996D01*
X147058361Y-117026211D01*
X147069483Y-117029824D01*
X147072983Y-117030962D01*
X147122483Y-117066926D01*
X147141391Y-117125116D01*
X147122484Y-117183307D01*
X147072985Y-117219271D01*
X147072984Y-117219272D01*
X146981784Y-117248904D01*
X146792446Y-117345376D01*
X146792442Y-117345378D01*
X146738282Y-117384728D01*
X147370591Y-118017037D01*
X147307007Y-118034075D01*
X147192993Y-118099901D01*
X147099901Y-118192993D01*
X147034075Y-118307007D01*
X147017037Y-118370591D01*
X146384728Y-117738282D01*
X146345378Y-117792442D01*
X146345376Y-117792446D01*
X146248904Y-117981784D01*
X146183240Y-118183878D01*
X146150000Y-118393749D01*
X146150000Y-118606250D01*
X146183240Y-118816121D01*
X146248904Y-119018215D01*
X146345376Y-119207553D01*
X146345380Y-119207559D01*
X146384728Y-119261716D01*
X146384729Y-119261716D01*
X147017037Y-118629407D01*
X147034075Y-118692993D01*
X147099901Y-118807007D01*
X147192993Y-118900099D01*
X147307007Y-118965925D01*
X147370589Y-118982962D01*
X146738282Y-119615269D01*
X146738282Y-119615270D01*
X146792440Y-119654619D01*
X146792446Y-119654623D01*
X146981786Y-119751096D01*
X147072983Y-119780727D01*
X147122483Y-119816691D01*
X147141391Y-119874881D01*
X147122484Y-119933072D01*
X147072988Y-119969035D01*
X147058366Y-119973786D01*
X147058364Y-119973787D01*
X146897008Y-120056002D01*
X146893760Y-120058362D01*
X146750499Y-120162447D01*
X146622447Y-120290499D01*
X146608085Y-120310267D01*
X146516002Y-120437008D01*
X146433788Y-120598362D01*
X146377828Y-120770593D01*
X146349500Y-120949450D01*
X146349500Y-121130549D01*
X146377828Y-121309406D01*
X146403186Y-121387453D01*
X146433789Y-121481639D01*
X146516004Y-121642994D01*
X146622447Y-121789501D01*
X146750499Y-121917553D01*
X146897006Y-122023996D01*
X147058361Y-122106211D01*
X147230591Y-122162171D01*
X147302136Y-122173502D01*
X147409451Y-122190500D01*
X147409454Y-122190500D01*
X147590549Y-122190500D01*
X147679977Y-122176335D01*
X147769409Y-122162171D01*
X147941639Y-122106211D01*
X148102994Y-122023996D01*
X148249501Y-121917553D01*
X148377553Y-121789501D01*
X148483996Y-121642994D01*
X148566211Y-121481639D01*
X148622171Y-121309409D01*
X148646366Y-121156647D01*
X148650500Y-121130549D01*
X148650500Y-120949450D01*
X148622171Y-120770593D01*
X148622171Y-120770591D01*
X148566211Y-120598361D01*
X148483996Y-120437006D01*
X148377553Y-120290499D01*
X148249501Y-120162447D01*
X148102994Y-120056004D01*
X148102993Y-120056003D01*
X148102991Y-120056002D01*
X147941637Y-119973788D01*
X147927013Y-119969036D01*
X147877514Y-119933071D01*
X147858608Y-119874880D01*
X147877517Y-119816689D01*
X147927016Y-119780727D01*
X148018213Y-119751096D01*
X148207556Y-119654620D01*
X148261716Y-119615270D01*
X147629408Y-118982962D01*
X147692993Y-118965925D01*
X147807007Y-118900099D01*
X147900099Y-118807007D01*
X147965925Y-118692993D01*
X147982962Y-118629408D01*
X148615270Y-119261716D01*
X148654620Y-119207556D01*
X148751095Y-119018215D01*
X148816759Y-118816121D01*
X148850000Y-118606250D01*
X148850000Y-118393749D01*
X148816759Y-118183878D01*
X148751095Y-117981784D01*
X148654623Y-117792446D01*
X148654619Y-117792440D01*
X148615270Y-117738282D01*
X148615269Y-117738282D01*
X147982962Y-118370589D01*
X147965925Y-118307007D01*
X147900099Y-118192993D01*
X147807007Y-118099901D01*
X147692993Y-118034075D01*
X147629407Y-118017037D01*
X148261716Y-117384729D01*
X148261716Y-117384728D01*
X148207559Y-117345380D01*
X148207553Y-117345376D01*
X148018215Y-117248904D01*
X147927015Y-117219272D01*
X147877515Y-117183308D01*
X147858608Y-117125117D01*
X147877515Y-117066926D01*
X147927013Y-117030962D01*
X147927017Y-117030962D01*
X147927018Y-117030962D01*
X147941633Y-117026213D01*
X147941633Y-117026212D01*
X147941639Y-117026211D01*
X148102994Y-116943996D01*
X148249501Y-116837553D01*
X148377553Y-116709501D01*
X148483996Y-116562994D01*
X148566211Y-116401639D01*
X148622171Y-116229409D01*
X148650500Y-116050546D01*
X148650500Y-115869454D01*
X148650500Y-115869450D01*
X148622171Y-115690593D01*
X148622171Y-115690591D01*
X148566211Y-115518361D01*
X148483996Y-115357006D01*
X148377553Y-115210499D01*
X148249501Y-115082447D01*
X148102994Y-114976004D01*
X148102993Y-114976003D01*
X148102991Y-114976002D01*
X147941637Y-114893788D01*
X147769406Y-114837828D01*
X147590549Y-114809500D01*
X147590546Y-114809500D01*
X147409454Y-114809500D01*
X147409451Y-114809500D01*
X147230593Y-114837828D01*
X147058362Y-114893788D01*
X146897008Y-114976002D01*
X146841112Y-115016613D01*
X146750499Y-115082447D01*
X146622447Y-115210499D01*
X146619671Y-115214320D01*
X146516002Y-115357008D01*
X146494357Y-115399490D01*
X146440369Y-115505446D01*
X146397106Y-115548710D01*
X146352161Y-115559500D01*
X123326901Y-115559500D01*
X123268710Y-115540593D01*
X123256897Y-115530504D01*
X121055843Y-113329450D01*
X146349500Y-113329450D01*
X146349500Y-113510549D01*
X146377828Y-113689406D01*
X146433788Y-113861637D01*
X146501877Y-113995270D01*
X146516004Y-114022994D01*
X146622447Y-114169501D01*
X146750499Y-114297553D01*
X146897006Y-114403996D01*
X147058361Y-114486211D01*
X147230591Y-114542171D01*
X147302136Y-114553502D01*
X147409451Y-114570500D01*
X147409454Y-114570500D01*
X147590549Y-114570500D01*
X147679977Y-114556335D01*
X147769409Y-114542171D01*
X147941639Y-114486211D01*
X148102994Y-114403996D01*
X148249501Y-114297553D01*
X148377553Y-114169501D01*
X148483996Y-114022994D01*
X148566211Y-113861639D01*
X148622171Y-113689409D01*
X148650500Y-113510546D01*
X148650500Y-113329454D01*
X148650500Y-113329450D01*
X148622171Y-113150593D01*
X148622171Y-113150591D01*
X148566211Y-112978361D01*
X148483996Y-112817006D01*
X148377553Y-112670499D01*
X148249501Y-112542447D01*
X148102994Y-112436004D01*
X148102993Y-112436003D01*
X148102991Y-112436002D01*
X147941637Y-112353788D01*
X147769406Y-112297828D01*
X147590549Y-112269500D01*
X147590546Y-112269500D01*
X147409454Y-112269500D01*
X147409451Y-112269500D01*
X147230593Y-112297828D01*
X147058362Y-112353788D01*
X146897008Y-112436002D01*
X146836587Y-112479901D01*
X146750499Y-112542447D01*
X146622447Y-112670499D01*
X146569225Y-112743752D01*
X146516002Y-112817008D01*
X146433788Y-112978362D01*
X146377828Y-113150593D01*
X146349500Y-113329450D01*
X121055843Y-113329450D01*
X118594841Y-110868448D01*
X118567064Y-110813931D01*
X118570689Y-110767854D01*
X118622171Y-110609409D01*
X118650500Y-110430546D01*
X118650500Y-110249454D01*
X118650500Y-110249450D01*
X118622171Y-110070593D01*
X118622171Y-110070591D01*
X118594403Y-109985130D01*
X146349500Y-109985130D01*
X146349500Y-111774860D01*
X146349501Y-111774863D01*
X146352414Y-111799990D01*
X146377756Y-111857385D01*
X146397794Y-111902765D01*
X146477235Y-111982206D01*
X146580009Y-112027585D01*
X146605135Y-112030500D01*
X148394864Y-112030499D01*
X148419991Y-112027585D01*
X148522765Y-111982206D01*
X148602206Y-111902765D01*
X148647585Y-111799991D01*
X148650500Y-111774865D01*
X148650499Y-109985136D01*
X148647585Y-109960009D01*
X148602206Y-109857235D01*
X148522765Y-109777794D01*
X148419991Y-109732415D01*
X148419990Y-109732414D01*
X148419988Y-109732414D01*
X148394868Y-109729500D01*
X146605139Y-109729500D01*
X146605136Y-109729501D01*
X146580009Y-109732414D01*
X146477235Y-109777794D01*
X146397794Y-109857235D01*
X146352414Y-109960011D01*
X146349500Y-109985130D01*
X118594403Y-109985130D01*
X118566211Y-109898361D01*
X118483996Y-109737006D01*
X118377553Y-109590499D01*
X118249501Y-109462447D01*
X118102994Y-109356004D01*
X118102993Y-109356003D01*
X118102991Y-109356002D01*
X117941637Y-109273788D01*
X117769406Y-109217828D01*
X117590549Y-109189500D01*
X117590546Y-109189500D01*
X117409454Y-109189500D01*
X117409451Y-109189500D01*
X117230593Y-109217828D01*
X117058362Y-109273788D01*
X116897008Y-109356002D01*
X116823752Y-109409225D01*
X116750499Y-109462447D01*
X116622447Y-109590499D01*
X116569225Y-109663752D01*
X116516002Y-109737008D01*
X116433788Y-109898362D01*
X116377828Y-110070593D01*
X116349500Y-110249450D01*
X116349500Y-110430549D01*
X116377828Y-110609406D01*
X116433788Y-110781637D01*
X116478020Y-110868448D01*
X116516004Y-110942994D01*
X116622447Y-111089501D01*
X116750499Y-111217553D01*
X116897006Y-111323996D01*
X117058361Y-111406211D01*
X117069483Y-111409824D01*
X117072983Y-111410962D01*
X117122483Y-111446926D01*
X117141391Y-111505116D01*
X117122484Y-111563307D01*
X117072985Y-111599271D01*
X117072984Y-111599272D01*
X116981784Y-111628904D01*
X116792446Y-111725376D01*
X116792442Y-111725378D01*
X116738282Y-111764728D01*
X117370591Y-112397037D01*
X117307007Y-112414075D01*
X117192993Y-112479901D01*
X117099901Y-112572993D01*
X117034075Y-112687007D01*
X117017037Y-112750591D01*
X116384728Y-112118282D01*
X116345378Y-112172442D01*
X116345376Y-112172446D01*
X116248904Y-112361784D01*
X116183240Y-112563878D01*
X116150000Y-112773749D01*
X72500500Y-112773749D01*
X72500500Y-101069450D01*
X123849500Y-101069450D01*
X123849500Y-101250549D01*
X123877828Y-101429406D01*
X123890825Y-101469409D01*
X123933789Y-101601639D01*
X124016004Y-101762994D01*
X124122447Y-101909501D01*
X124250499Y-102037553D01*
X124397006Y-102143996D01*
X124558361Y-102226211D01*
X124730591Y-102282171D01*
X124802136Y-102293502D01*
X124909451Y-102310500D01*
X124909454Y-102310500D01*
X125090549Y-102310500D01*
X125179977Y-102296335D01*
X125269409Y-102282171D01*
X125441639Y-102226211D01*
X125602994Y-102143996D01*
X125749501Y-102037553D01*
X125877553Y-101909501D01*
X125983996Y-101762994D01*
X126066211Y-101601639D01*
X126122171Y-101429409D01*
X126150500Y-101250546D01*
X126150500Y-101109450D01*
X135849500Y-101109450D01*
X135849500Y-101290549D01*
X135877828Y-101469406D01*
X135877829Y-101469409D01*
X135933789Y-101641639D01*
X136016004Y-101802994D01*
X136122447Y-101949501D01*
X136250499Y-102077553D01*
X136397006Y-102183996D01*
X136558361Y-102266211D01*
X136730591Y-102322171D01*
X136802136Y-102333502D01*
X136909451Y-102350500D01*
X136909454Y-102350500D01*
X137090549Y-102350500D01*
X137179977Y-102336335D01*
X137269409Y-102322171D01*
X137441639Y-102266211D01*
X137602994Y-102183996D01*
X137749501Y-102077553D01*
X137877553Y-101949501D01*
X137983996Y-101802994D01*
X138066211Y-101641639D01*
X138122171Y-101469409D01*
X138150500Y-101290546D01*
X138150500Y-101109454D01*
X138150500Y-101109450D01*
X138122171Y-100930593D01*
X138122171Y-100930591D01*
X138066211Y-100758361D01*
X137983996Y-100597006D01*
X137877553Y-100450499D01*
X137749501Y-100322447D01*
X137602994Y-100216004D01*
X137602993Y-100216003D01*
X137602991Y-100216002D01*
X137441637Y-100133788D01*
X137269406Y-100077828D01*
X137090549Y-100049500D01*
X137090546Y-100049500D01*
X136909454Y-100049500D01*
X136909451Y-100049500D01*
X136730593Y-100077828D01*
X136558362Y-100133788D01*
X136397008Y-100216002D01*
X136323752Y-100269225D01*
X136250499Y-100322447D01*
X136122447Y-100450499D01*
X136069225Y-100523752D01*
X136016002Y-100597008D01*
X135933788Y-100758362D01*
X135877828Y-100930593D01*
X135849500Y-101109450D01*
X126150500Y-101109450D01*
X126150500Y-101069454D01*
X126150500Y-101069450D01*
X126122171Y-100890593D01*
X126122171Y-100890591D01*
X126066211Y-100718361D01*
X125983996Y-100557006D01*
X125877553Y-100410499D01*
X125749501Y-100282447D01*
X125602994Y-100176004D01*
X125602993Y-100176003D01*
X125602991Y-100176002D01*
X125441637Y-100093788D01*
X125269406Y-100037828D01*
X125090549Y-100009500D01*
X125090546Y-100009500D01*
X124909454Y-100009500D01*
X124909451Y-100009500D01*
X124730593Y-100037828D01*
X124558362Y-100093788D01*
X124397008Y-100176002D01*
X124341953Y-100216002D01*
X124250499Y-100282447D01*
X124122447Y-100410499D01*
X124069225Y-100483752D01*
X124016002Y-100557008D01*
X123933788Y-100718362D01*
X123877828Y-100890593D01*
X123849500Y-101069450D01*
X72500500Y-101069450D01*
X72500500Y-98529450D01*
X123849500Y-98529450D01*
X123849500Y-98710549D01*
X123877828Y-98889406D01*
X123890825Y-98929409D01*
X123933789Y-99061639D01*
X124016004Y-99222994D01*
X124122447Y-99369501D01*
X124250499Y-99497553D01*
X124397006Y-99603996D01*
X124558361Y-99686211D01*
X124730591Y-99742171D01*
X124802136Y-99753502D01*
X124909451Y-99770500D01*
X124909454Y-99770500D01*
X125090549Y-99770500D01*
X125179977Y-99756335D01*
X125269409Y-99742171D01*
X125441639Y-99686211D01*
X125602994Y-99603996D01*
X125749501Y-99497553D01*
X125877553Y-99369501D01*
X125983996Y-99222994D01*
X126066211Y-99061639D01*
X126122171Y-98889409D01*
X126150500Y-98710546D01*
X126150500Y-98569450D01*
X135849500Y-98569450D01*
X135849500Y-98750549D01*
X135877828Y-98929406D01*
X135877829Y-98929409D01*
X135933789Y-99101639D01*
X136016004Y-99262994D01*
X136122447Y-99409501D01*
X136250499Y-99537553D01*
X136397006Y-99643996D01*
X136558361Y-99726211D01*
X136730591Y-99782171D01*
X136802136Y-99793502D01*
X136909451Y-99810500D01*
X136909454Y-99810500D01*
X137090549Y-99810500D01*
X137179977Y-99796335D01*
X137269409Y-99782171D01*
X137441639Y-99726211D01*
X137602994Y-99643996D01*
X137749501Y-99537553D01*
X137877553Y-99409501D01*
X137983996Y-99262994D01*
X138066211Y-99101639D01*
X138122171Y-98929409D01*
X138150500Y-98750546D01*
X138150500Y-98569454D01*
X138150500Y-98569450D01*
X138122171Y-98390593D01*
X138122171Y-98390591D01*
X138066211Y-98218361D01*
X137983996Y-98057006D01*
X137877553Y-97910499D01*
X137749501Y-97782447D01*
X137602994Y-97676004D01*
X137602993Y-97676003D01*
X137602991Y-97676002D01*
X137441637Y-97593788D01*
X137269406Y-97537828D01*
X137090549Y-97509500D01*
X137090546Y-97509500D01*
X136909454Y-97509500D01*
X136909451Y-97509500D01*
X136730593Y-97537828D01*
X136558362Y-97593788D01*
X136397008Y-97676002D01*
X136323752Y-97729225D01*
X136250499Y-97782447D01*
X136122447Y-97910499D01*
X136069225Y-97983752D01*
X136016002Y-98057008D01*
X135933788Y-98218362D01*
X135877828Y-98390593D01*
X135849500Y-98569450D01*
X126150500Y-98569450D01*
X126150500Y-98529454D01*
X126150500Y-98529450D01*
X126122171Y-98350593D01*
X126122171Y-98350591D01*
X126066211Y-98178361D01*
X125983996Y-98017006D01*
X125877553Y-97870499D01*
X125749501Y-97742447D01*
X125602994Y-97636004D01*
X125602993Y-97636003D01*
X125602991Y-97636002D01*
X125441637Y-97553788D01*
X125269406Y-97497828D01*
X125090549Y-97469500D01*
X125090546Y-97469500D01*
X124909454Y-97469500D01*
X124909451Y-97469500D01*
X124730593Y-97497828D01*
X124558362Y-97553788D01*
X124397008Y-97636002D01*
X124341953Y-97676002D01*
X124250499Y-97742447D01*
X124122447Y-97870499D01*
X124069225Y-97943752D01*
X124016002Y-98017008D01*
X123933788Y-98178362D01*
X123877828Y-98350593D01*
X123849500Y-98529450D01*
X72500500Y-98529450D01*
X72500500Y-93433749D01*
X123650000Y-93433749D01*
X123650000Y-93646250D01*
X123683240Y-93856121D01*
X123748904Y-94058215D01*
X123845376Y-94247553D01*
X123845380Y-94247559D01*
X123884728Y-94301716D01*
X123884729Y-94301716D01*
X124517037Y-93669407D01*
X124534075Y-93732993D01*
X124599901Y-93847007D01*
X124692993Y-93940099D01*
X124807007Y-94005925D01*
X124870589Y-94022962D01*
X124238282Y-94655269D01*
X124238282Y-94655270D01*
X124292440Y-94694619D01*
X124292446Y-94694623D01*
X124481786Y-94791096D01*
X124572983Y-94820727D01*
X124622483Y-94856691D01*
X124641391Y-94914881D01*
X124622484Y-94973072D01*
X124572988Y-95009035D01*
X124558366Y-95013786D01*
X124558364Y-95013787D01*
X124397008Y-95096002D01*
X124341953Y-95136002D01*
X124250499Y-95202447D01*
X124122447Y-95330499D01*
X124069225Y-95403752D01*
X124016002Y-95477008D01*
X123933788Y-95638362D01*
X123877828Y-95810593D01*
X123849500Y-95989450D01*
X123849500Y-96170549D01*
X123877828Y-96349406D01*
X123890825Y-96389409D01*
X123933789Y-96521639D01*
X124016004Y-96682994D01*
X124122447Y-96829501D01*
X124250499Y-96957553D01*
X124397006Y-97063996D01*
X124558361Y-97146211D01*
X124730591Y-97202171D01*
X124802136Y-97213502D01*
X124909451Y-97230500D01*
X124909454Y-97230500D01*
X125090549Y-97230500D01*
X125179977Y-97216335D01*
X125269409Y-97202171D01*
X125441639Y-97146211D01*
X125602994Y-97063996D01*
X125749501Y-96957553D01*
X125877553Y-96829501D01*
X125983996Y-96682994D01*
X126066211Y-96521639D01*
X126122171Y-96349409D01*
X126150500Y-96170546D01*
X126150500Y-96029450D01*
X135849500Y-96029450D01*
X135849500Y-96210549D01*
X135877828Y-96389406D01*
X135877829Y-96389409D01*
X135933789Y-96561639D01*
X136016004Y-96722994D01*
X136122447Y-96869501D01*
X136250499Y-96997553D01*
X136397006Y-97103996D01*
X136558361Y-97186211D01*
X136730591Y-97242171D01*
X136802136Y-97253502D01*
X136909451Y-97270500D01*
X136909454Y-97270500D01*
X137090549Y-97270500D01*
X137179977Y-97256335D01*
X137269409Y-97242171D01*
X137441639Y-97186211D01*
X137602994Y-97103996D01*
X137749501Y-96997553D01*
X137877553Y-96869501D01*
X137983996Y-96722994D01*
X138066211Y-96561639D01*
X138122171Y-96389409D01*
X138150500Y-96210546D01*
X138150500Y-96029454D01*
X138150500Y-96029450D01*
X138122171Y-95850593D01*
X138122171Y-95850591D01*
X138066211Y-95678361D01*
X137983996Y-95517006D01*
X137877553Y-95370499D01*
X137749501Y-95242447D01*
X137602994Y-95136004D01*
X137602993Y-95136003D01*
X137602991Y-95136002D01*
X137441637Y-95053788D01*
X137269406Y-94997828D01*
X137090549Y-94969500D01*
X137090546Y-94969500D01*
X136909454Y-94969500D01*
X136909451Y-94969500D01*
X136730593Y-94997828D01*
X136558362Y-95053788D01*
X136397008Y-95136002D01*
X136323752Y-95189225D01*
X136250499Y-95242447D01*
X136122447Y-95370499D01*
X136069225Y-95443752D01*
X136016002Y-95517008D01*
X135933788Y-95678362D01*
X135877828Y-95850593D01*
X135849500Y-96029450D01*
X126150500Y-96029450D01*
X126150500Y-95989454D01*
X126150500Y-95989450D01*
X126122171Y-95810593D01*
X126122171Y-95810591D01*
X126066211Y-95638361D01*
X125983996Y-95477006D01*
X125877553Y-95330499D01*
X125749501Y-95202447D01*
X125602994Y-95096004D01*
X125602993Y-95096003D01*
X125602991Y-95096002D01*
X125441637Y-95013788D01*
X125427013Y-95009036D01*
X125377514Y-94973071D01*
X125358608Y-94914880D01*
X125377517Y-94856689D01*
X125427016Y-94820727D01*
X125518213Y-94791096D01*
X125707556Y-94694620D01*
X125761716Y-94655270D01*
X125129408Y-94022962D01*
X125192993Y-94005925D01*
X125307007Y-93940099D01*
X125400099Y-93847007D01*
X125465925Y-93732993D01*
X125482962Y-93669408D01*
X126115270Y-94301716D01*
X126154620Y-94247556D01*
X126251095Y-94058215D01*
X126316759Y-93856121D01*
X126350000Y-93646250D01*
X126350000Y-93489450D01*
X135849500Y-93489450D01*
X135849500Y-93670549D01*
X135877828Y-93849406D01*
X135933788Y-94021637D01*
X135952425Y-94058215D01*
X136016004Y-94182994D01*
X136122447Y-94329501D01*
X136250499Y-94457553D01*
X136397006Y-94563996D01*
X136558361Y-94646211D01*
X136730591Y-94702171D01*
X136802136Y-94713502D01*
X136909451Y-94730500D01*
X136909454Y-94730500D01*
X137090549Y-94730500D01*
X137179977Y-94716335D01*
X137269409Y-94702171D01*
X137441639Y-94646211D01*
X137602994Y-94563996D01*
X137749501Y-94457553D01*
X137877553Y-94329501D01*
X137983996Y-94182994D01*
X138066211Y-94021639D01*
X138122171Y-93849409D01*
X138136335Y-93759977D01*
X138150500Y-93670549D01*
X138150500Y-93489450D01*
X138122171Y-93310593D01*
X138122171Y-93310591D01*
X138066211Y-93138361D01*
X137983996Y-92977006D01*
X137877553Y-92830499D01*
X137749501Y-92702447D01*
X137602994Y-92596004D01*
X137602993Y-92596003D01*
X137602991Y-92596002D01*
X137441637Y-92513788D01*
X137269406Y-92457828D01*
X137090549Y-92429500D01*
X137090546Y-92429500D01*
X136909454Y-92429500D01*
X136909451Y-92429500D01*
X136730593Y-92457828D01*
X136558362Y-92513788D01*
X136397008Y-92596002D01*
X136323752Y-92649225D01*
X136250499Y-92702447D01*
X136122447Y-92830499D01*
X136069225Y-92903752D01*
X136016002Y-92977008D01*
X135933788Y-93138362D01*
X135877828Y-93310593D01*
X135849500Y-93489450D01*
X126350000Y-93489450D01*
X126350000Y-93433749D01*
X126316759Y-93223878D01*
X126251095Y-93021784D01*
X126154623Y-92832446D01*
X126154619Y-92832440D01*
X126115270Y-92778282D01*
X126115269Y-92778282D01*
X125482962Y-93410589D01*
X125465925Y-93347007D01*
X125400099Y-93232993D01*
X125307007Y-93139901D01*
X125192993Y-93074075D01*
X125129407Y-93057037D01*
X125761716Y-92424729D01*
X125761716Y-92424728D01*
X125707559Y-92385380D01*
X125707553Y-92385376D01*
X125518215Y-92288904D01*
X125427015Y-92259272D01*
X125377515Y-92223308D01*
X125358608Y-92165117D01*
X125377515Y-92106926D01*
X125427013Y-92070962D01*
X125427017Y-92070962D01*
X125427018Y-92070962D01*
X125441633Y-92066213D01*
X125441633Y-92066212D01*
X125441639Y-92066211D01*
X125602994Y-91983996D01*
X125749501Y-91877553D01*
X125877553Y-91749501D01*
X125983996Y-91602994D01*
X126066211Y-91441639D01*
X126122171Y-91269409D01*
X126150500Y-91090546D01*
X126150500Y-90949450D01*
X135849500Y-90949450D01*
X135849500Y-91130549D01*
X135877828Y-91309406D01*
X135877829Y-91309409D01*
X135933789Y-91481639D01*
X136016004Y-91642994D01*
X136122447Y-91789501D01*
X136250499Y-91917553D01*
X136397006Y-92023996D01*
X136558361Y-92106211D01*
X136730591Y-92162171D01*
X136802136Y-92173502D01*
X136909451Y-92190500D01*
X136909454Y-92190500D01*
X137090549Y-92190500D01*
X137179977Y-92176335D01*
X137269409Y-92162171D01*
X137441639Y-92106211D01*
X137602994Y-92023996D01*
X137749501Y-91917553D01*
X137877553Y-91789501D01*
X137983996Y-91642994D01*
X138066211Y-91481639D01*
X138122171Y-91309409D01*
X138150500Y-91130546D01*
X138150500Y-90949454D01*
X138150500Y-90949450D01*
X138122171Y-90770593D01*
X138122171Y-90770591D01*
X138066211Y-90598361D01*
X137983996Y-90437006D01*
X137877553Y-90290499D01*
X137749501Y-90162447D01*
X137602994Y-90056004D01*
X137602993Y-90056003D01*
X137602991Y-90056002D01*
X137441637Y-89973788D01*
X137269406Y-89917828D01*
X137090549Y-89889500D01*
X137090546Y-89889500D01*
X136909454Y-89889500D01*
X136909451Y-89889500D01*
X136730593Y-89917828D01*
X136558362Y-89973788D01*
X136397008Y-90056002D01*
X136323752Y-90109225D01*
X136250499Y-90162447D01*
X136122447Y-90290499D01*
X136069225Y-90363752D01*
X136016002Y-90437008D01*
X135933788Y-90598362D01*
X135877828Y-90770593D01*
X135849500Y-90949450D01*
X126150500Y-90949450D01*
X126150500Y-90909454D01*
X126150500Y-90909450D01*
X126122171Y-90730593D01*
X126122171Y-90730591D01*
X126066211Y-90558361D01*
X125983996Y-90397006D01*
X125877553Y-90250499D01*
X125749501Y-90122447D01*
X125602994Y-90016004D01*
X125602993Y-90016003D01*
X125602991Y-90016002D01*
X125441637Y-89933788D01*
X125269406Y-89877828D01*
X125090549Y-89849500D01*
X125090546Y-89849500D01*
X124909454Y-89849500D01*
X124909451Y-89849500D01*
X124730593Y-89877828D01*
X124558362Y-89933788D01*
X124397008Y-90016002D01*
X124341953Y-90056002D01*
X124250499Y-90122447D01*
X124122447Y-90250499D01*
X124069225Y-90323752D01*
X124016002Y-90397008D01*
X123933788Y-90558362D01*
X123877828Y-90730593D01*
X123849500Y-90909450D01*
X123849500Y-91090549D01*
X123877828Y-91269406D01*
X123890825Y-91309409D01*
X123933789Y-91441639D01*
X124016004Y-91602994D01*
X124122447Y-91749501D01*
X124250499Y-91877553D01*
X124397006Y-91983996D01*
X124558361Y-92066211D01*
X124569483Y-92069824D01*
X124572983Y-92070962D01*
X124622483Y-92106926D01*
X124641391Y-92165116D01*
X124622484Y-92223307D01*
X124572985Y-92259271D01*
X124572984Y-92259272D01*
X124481784Y-92288904D01*
X124292446Y-92385376D01*
X124292442Y-92385378D01*
X124238282Y-92424728D01*
X124870591Y-93057037D01*
X124807007Y-93074075D01*
X124692993Y-93139901D01*
X124599901Y-93232993D01*
X124534075Y-93347007D01*
X124517037Y-93410591D01*
X123884728Y-92778282D01*
X123845378Y-92832442D01*
X123845376Y-92832446D01*
X123748904Y-93021784D01*
X123683240Y-93223878D01*
X123650000Y-93433749D01*
X72500500Y-93433749D01*
X72500500Y-87565130D01*
X123849500Y-87565130D01*
X123849500Y-89354860D01*
X123849501Y-89354863D01*
X123852414Y-89379990D01*
X123877756Y-89437385D01*
X123897794Y-89482765D01*
X123977235Y-89562206D01*
X124080009Y-89607585D01*
X124105135Y-89610500D01*
X125894864Y-89610499D01*
X125919991Y-89607585D01*
X126022765Y-89562206D01*
X126102206Y-89482765D01*
X126147585Y-89379991D01*
X126150500Y-89354865D01*
X126150499Y-87605130D01*
X135849500Y-87605130D01*
X135849500Y-89394860D01*
X135849501Y-89394863D01*
X135852414Y-89419990D01*
X135877756Y-89477385D01*
X135897794Y-89522765D01*
X135977235Y-89602206D01*
X136080009Y-89647585D01*
X136105135Y-89650500D01*
X137894864Y-89650499D01*
X137919991Y-89647585D01*
X138022765Y-89602206D01*
X138102206Y-89522765D01*
X138147585Y-89419991D01*
X138150500Y-89394865D01*
X138150499Y-87605136D01*
X138147585Y-87580009D01*
X138102206Y-87477235D01*
X138022765Y-87397794D01*
X137919991Y-87352415D01*
X137919990Y-87352414D01*
X137919988Y-87352414D01*
X137894868Y-87349500D01*
X136105139Y-87349500D01*
X136105136Y-87349501D01*
X136080009Y-87352414D01*
X135977235Y-87397794D01*
X135897794Y-87477235D01*
X135852414Y-87580011D01*
X135849500Y-87605130D01*
X126150499Y-87605130D01*
X126150499Y-87565136D01*
X126147585Y-87540009D01*
X126102206Y-87437235D01*
X126022765Y-87357794D01*
X125919991Y-87312415D01*
X125919990Y-87312414D01*
X125919988Y-87312414D01*
X125894868Y-87309500D01*
X124105139Y-87309500D01*
X124105136Y-87309501D01*
X124080009Y-87312414D01*
X123977235Y-87357794D01*
X123897794Y-87437235D01*
X123852414Y-87540011D01*
X123849500Y-87565130D01*
X72500500Y-87565130D01*
X72500500Y-76099500D01*
X72519407Y-76041309D01*
X72568907Y-76005345D01*
X72599500Y-76000500D01*
X192900500Y-76000500D01*
X192958691Y-76019407D01*
G37*
%TD.AperFunction*%
%TD*%
M02*
