M48
; DRILL file {KiCad 9.0.7} date 2026-03-12T10:08:01-0400
; FORMAT={-:-/ absolute / metric / decimal}
; #@! TF.CreationDate,2026-03-12T10:08:01-04:00
; #@! TF.GenerationSoftware,Kicad,Pcbnew,9.0.7
; #@! TF.FileFunction,Plated,1,2,PTH
FMAT,2
METRIC
; #@! TA.AperFunction,Plated,PTH,ComponentDrill
T1C0.800
; #@! TA.AperFunction,Plated,PTH,ComponentDrill
T2C0.900
; #@! TA.AperFunction,Plated,PTH,ComponentDrill
T3C1.000
; #@! TA.AperFunction,Plated,PTH,ComponentDrill
T4C1.100
%
G90
G05
T1
X99.19Y-130.5
X99.19Y-138.0
X99.69Y-149.5
X100.42Y-115.5
X102.96Y-118.04
X105.5Y-115.5
X106.81Y-130.5
X106.81Y-138.0
X107.31Y-149.5
X160.69Y-127.5
X160.69Y-134.5
X160.69Y-141.5
X168.31Y-127.5
X168.31Y-134.5
X168.31Y-141.5
T2
X179.46Y-122.5
X179.96Y-135.0
X180.235Y-147.5
X182.0Y-122.5
X182.5Y-135.0
X182.775Y-147.5
T3
X117.5Y-110.34
X117.5Y-112.88
X117.5Y-115.42
X117.5Y-117.96
X117.5Y-120.5
X117.5Y-123.04
X117.5Y-125.58
X117.5Y-128.12
X117.5Y-130.66
X117.5Y-133.2
X117.5Y-135.74
X117.5Y-138.28
X117.5Y-140.82
X117.5Y-143.36
X117.5Y-145.9
X117.5Y-148.44
X125.0Y-88.46
X125.0Y-91.0
X125.0Y-93.54
X125.0Y-96.08
X125.0Y-98.62
X125.0Y-101.16
X137.0Y-88.5
X137.0Y-91.04
X137.0Y-93.58
X137.0Y-96.12
X137.0Y-98.66
X137.0Y-101.2
X147.5Y-110.88
X147.5Y-113.42
X147.5Y-115.96
X147.5Y-118.5
X147.5Y-121.04
X147.5Y-123.58
X147.5Y-126.12
X147.5Y-128.66
X147.5Y-131.2
X147.5Y-133.74
X147.5Y-136.28
X147.5Y-138.82
X147.5Y-141.36
X147.5Y-143.9
X147.5Y-146.44
X147.5Y-148.98
T4
X82.5Y-120.0
X82.5Y-145.0
X83.0Y-162.0
X87.5Y-120.0
X87.5Y-145.0
X88.0Y-162.0
M30
