M48
; DRILL file {KiCad 9.0.7} date 2026-05-21T08:47:30-0400
; FORMAT={-:-/ absolute / metric / decimal}
; #@! TF.CreationDate,2026-05-21T08:47:30-04:00
; #@! TF.GenerationSoftware,Kicad,Pcbnew,9.0.7
; #@! TF.FileFunction,Plated,1,2,PTH
FMAT,2
METRIC
; #@! TA.AperFunction,Plated,PTH,ComponentDrill
T1C0.800
; #@! TA.AperFunction,Plated,PTH,ComponentDrill
T2C1.000
%
G90
G05
T1
X79.46Y-73.46
X79.46Y-78.54
X82.0Y-76.0
T2
X85.5Y-97.5
X85.5Y-100.04
X85.5Y-102.58
X92.38Y-56.0
X94.92Y-56.0
X97.46Y-56.0
X100.0Y-56.0
X102.54Y-56.0
X113.5Y-64.38
X113.5Y-66.92
X113.5Y-69.46
X113.5Y-72.0
X113.5Y-74.54
X113.5Y-77.08
X113.5Y-79.62
X113.5Y-82.16
X113.5Y-84.7
X113.5Y-87.24
X113.5Y-89.78
X113.5Y-92.32
X113.5Y-94.86
X118.0Y-64.34
X118.0Y-66.88
X118.0Y-69.42
X118.0Y-71.96
X118.0Y-74.5
X118.0Y-77.04
X118.0Y-79.58
X118.0Y-82.12
X118.0Y-84.66
X118.0Y-87.2
X118.0Y-89.74
X118.0Y-92.28
X118.0Y-94.82
X131.115Y-102.225
X131.115Y-104.765
X144.0Y-59.84
X144.0Y-62.38
X144.0Y-64.92
X144.0Y-67.46
X144.0Y-70.0
X144.0Y-72.54
X144.0Y-75.08
X144.0Y-77.62
X144.0Y-80.16
X144.0Y-82.7
X144.0Y-85.24
X144.0Y-87.78
X144.0Y-90.32
X148.5Y-59.88
X148.5Y-62.42
X148.5Y-64.96
X148.5Y-67.5
X148.5Y-70.04
X148.5Y-72.58
X148.5Y-75.12
X148.5Y-77.66
X148.5Y-80.2
X148.5Y-82.74
X148.5Y-85.28
X148.5Y-87.82
X148.5Y-90.36
M30
