%TF.GenerationSoftware,KiCad,Pcbnew,9.0.7*%
%TF.CreationDate,2026-05-21T08:47:02-04:00*%
%TF.ProjectId,projet-kicad,70726f6a-6574-42d6-9b69-6361642e6b69,rev?*%
%TF.SameCoordinates,Original*%
%TF.FileFunction,Copper,L1,Top*%
%TF.FilePolarity,Positive*%
%FSLAX46Y46*%
G04 Gerber Fmt 4.6, Leading zero omitted, Abs format (unit mm)*
G04 Created by KiCad (PCBNEW 9.0.7) date 2026-05-21 08:47:02*
%MOMM*%
%LPD*%
G01*
G04 APERTURE LIST*
G04 Aperture macros list*
%AMRoundRect*
0 Rectangle with rounded corners*
0 $1 Rounding radius*
0 $2 $3 $4 $5 $6 $7 $8 $9 X,Y pos of 4 corners*
0 Add a 4 corners polygon primitive as box body*
4,1,4,$2,$3,$4,$5,$6,$7,$8,$9,$2,$3,0*
0 Add four circle primitives for the rounded corners*
1,1,$1+$1,$2,$3*
1,1,$1+$1,$4,$5*
1,1,$1+$1,$6,$7*
1,1,$1+$1,$8,$9*
0 Add four rect primitives between the rounded corners*
20,1,$1+$1,$2,$3,$4,$5,0*
20,1,$1+$1,$4,$5,$6,$7,0*
20,1,$1+$1,$6,$7,$8,$9,0*
20,1,$1+$1,$8,$9,$2,$3,0*%
G04 Aperture macros list end*
%TA.AperFunction,ComponentPad*%
%ADD10C,1.700000*%
%TD*%
%TA.AperFunction,ComponentPad*%
%ADD11R,1.700000X1.700000*%
%TD*%
%TA.AperFunction,ComponentPad*%
%ADD12C,1.440000*%
%TD*%
%TA.AperFunction,SMDPad,CuDef*%
%ADD13RoundRect,0.250000X0.262500X0.450000X-0.262500X0.450000X-0.262500X-0.450000X0.262500X-0.450000X0*%
%TD*%
%TA.AperFunction,SMDPad,CuDef*%
%ADD14RoundRect,0.250000X-0.262500X-0.450000X0.262500X-0.450000X0.262500X0.450000X-0.262500X0.450000X0*%
%TD*%
%TA.AperFunction,SMDPad,CuDef*%
%ADD15RoundRect,0.243750X-0.243750X-0.456250X0.243750X-0.456250X0.243750X0.456250X-0.243750X0.456250X0*%
%TD*%
%TA.AperFunction,Conductor*%
%ADD16C,0.200000*%
%TD*%
G04 APERTURE END LIST*
D10*
%TO.P,J2,13,Pin_13*%
%TO.N,unconnected-(J2-Pin_13-Pad13)*%
X118000000Y-94820000D03*
%TO.P,J2,12,Pin_12*%
%TO.N,unconnected-(J2-Pin_12-Pad12)*%
X118000000Y-92280000D03*
%TO.P,J2,11,Pin_11*%
%TO.N,unconnected-(J2-Pin_11-Pad11)*%
X118000000Y-89740000D03*
%TO.P,J2,10,Pin_10*%
%TO.N,unconnected-(J2-Pin_10-Pad10)*%
X118000000Y-87200000D03*
%TO.P,J2,9,Pin_9*%
%TO.N,GND*%
X118000000Y-84660000D03*
%TO.P,J2,8,Pin_8*%
%TO.N,unconnected-(J2-Pin_8-Pad8)*%
X118000000Y-82120000D03*
%TO.P,J2,7,Pin_7*%
%TO.N,unconnected-(J2-Pin_7-Pad7)*%
X118000000Y-79580000D03*
%TO.P,J2,6,Pin_6*%
%TO.N,unconnected-(J2-Pin_6-Pad6)*%
X118000000Y-77040000D03*
%TO.P,J2,5,Pin_5*%
%TO.N,unconnected-(J2-Pin_5-Pad5)*%
X118000000Y-74500000D03*
%TO.P,J2,4,Pin_4*%
%TO.N,3V3*%
X118000000Y-71960000D03*
%TO.P,J2,3,Pin_3*%
%TO.N,unconnected-(J2-Pin_3-Pad3)*%
X118000000Y-69420000D03*
%TO.P,J2,2,Pin_2*%
%TO.N,unconnected-(J2-Pin_2-Pad2)*%
X118000000Y-66880000D03*
D11*
%TO.P,J2,1,Pin_1*%
%TO.N,unconnected-(J2-Pin_1-Pad1)*%
X118000000Y-64340000D03*
%TD*%
%TO.P,SW1,1,A*%
%TO.N,Net-(J5-Pin_9)*%
X131115000Y-102225000D03*
D10*
%TO.P,SW1,2,B*%
%TO.N,GND*%
X131115000Y-104765000D03*
%TD*%
D12*
%TO.P,RV1,1,1*%
%TO.N,3V3*%
X79460000Y-78540000D03*
%TO.P,RV1,2,2*%
%TO.N,Net-(J1-Pin_9)*%
X82000000Y-76000000D03*
%TO.P,RV1,3,3*%
%TO.N,GND*%
X79460000Y-73460000D03*
%TD*%
D13*
%TO.P,R2,1*%
%TO.N,Net-(J5-Pin_9)*%
X133412500Y-79500000D03*
%TO.P,R2,2*%
%TO.N,3V3*%
X131587500Y-79500000D03*
%TD*%
D14*
%TO.P,R1,1*%
%TO.N,Net-(D1-A)*%
X100587500Y-86500000D03*
%TO.P,R1,2*%
%TO.N,Net-(J1-Pin_10)*%
X102412500Y-86500000D03*
%TD*%
D11*
%TO.P,J6,1,Pin_1*%
%TO.N,unconnected-(J6-Pin_1-Pad1)*%
X148500000Y-59880000D03*
D10*
%TO.P,J6,2,Pin_2*%
%TO.N,unconnected-(J6-Pin_2-Pad2)*%
X148500000Y-62420000D03*
%TO.P,J6,3,Pin_3*%
%TO.N,unconnected-(J6-Pin_3-Pad3)*%
X148500000Y-64960000D03*
%TO.P,J6,4,Pin_4*%
%TO.N,unconnected-(J6-Pin_4-Pad4)*%
X148500000Y-67500000D03*
%TO.P,J6,5,Pin_5*%
%TO.N,unconnected-(J6-Pin_5-Pad5)*%
X148500000Y-70040000D03*
%TO.P,J6,6,Pin_6*%
%TO.N,unconnected-(J6-Pin_6-Pad6)*%
X148500000Y-72580000D03*
%TO.P,J6,7,Pin_7*%
%TO.N,unconnected-(J6-Pin_7-Pad7)*%
X148500000Y-75120000D03*
%TO.P,J6,8,Pin_8*%
%TO.N,unconnected-(J6-Pin_8-Pad8)*%
X148500000Y-77660000D03*
%TO.P,J6,9,Pin_9*%
%TO.N,unconnected-(J6-Pin_9-Pad9)*%
X148500000Y-80200000D03*
%TO.P,J6,10,Pin_10*%
%TO.N,unconnected-(J6-Pin_10-Pad10)*%
X148500000Y-82740000D03*
%TO.P,J6,11,Pin_11*%
%TO.N,unconnected-(J6-Pin_11-Pad11)*%
X148500000Y-85280000D03*
%TO.P,J6,12,Pin_12*%
%TO.N,unconnected-(J6-Pin_12-Pad12)*%
X148500000Y-87820000D03*
%TO.P,J6,13,Pin_13*%
%TO.N,unconnected-(J6-Pin_13-Pad13)*%
X148500000Y-90360000D03*
%TD*%
D11*
%TO.P,J5,1,Pin_1*%
%TO.N,unconnected-(J5-Pin_1-Pad1)*%
X144000000Y-59840000D03*
D10*
%TO.P,J5,2,Pin_2*%
%TO.N,unconnected-(J5-Pin_2-Pad2)*%
X144000000Y-62380000D03*
%TO.P,J5,3,Pin_3*%
%TO.N,unconnected-(J5-Pin_3-Pad3)*%
X144000000Y-64920000D03*
%TO.P,J5,4,Pin_4*%
%TO.N,unconnected-(J5-Pin_4-Pad4)*%
X144000000Y-67460000D03*
%TO.P,J5,5,Pin_5*%
%TO.N,unconnected-(J5-Pin_5-Pad5)*%
X144000000Y-70000000D03*
%TO.P,J5,6,Pin_6*%
%TO.N,unconnected-(J5-Pin_6-Pad6)*%
X144000000Y-72540000D03*
%TO.P,J5,7,Pin_7*%
%TO.N,unconnected-(J5-Pin_7-Pad7)*%
X144000000Y-75080000D03*
%TO.P,J5,8,Pin_8*%
%TO.N,unconnected-(J5-Pin_8-Pad8)*%
X144000000Y-77620000D03*
%TO.P,J5,9,Pin_9*%
%TO.N,Net-(J5-Pin_9)*%
X144000000Y-80160000D03*
%TO.P,J5,10,Pin_10*%
%TO.N,unconnected-(J5-Pin_10-Pad10)*%
X144000000Y-82700000D03*
%TO.P,J5,11,Pin_11*%
%TO.N,unconnected-(J5-Pin_11-Pad11)*%
X144000000Y-85240000D03*
%TO.P,J5,12,Pin_12*%
%TO.N,unconnected-(J5-Pin_12-Pad12)*%
X144000000Y-87780000D03*
%TO.P,J5,13,Pin_13*%
%TO.N,unconnected-(J5-Pin_13-Pad13)*%
X144000000Y-90320000D03*
%TD*%
D11*
%TO.P,J4,1,Pin_1*%
%TO.N,3V3*%
X92380000Y-56000000D03*
D10*
%TO.P,J4,2,Pin_2*%
%TO.N,GND*%
X94920000Y-56000000D03*
%TO.P,J4,3,Pin_3*%
%TO.N,Net-(J1-Pin_2)*%
X97460000Y-56000000D03*
%TO.P,J4,4,Pin_4*%
%TO.N,Net-(J1-Pin_1)*%
X100000000Y-56000000D03*
%TO.P,J4,5,Pin_5*%
%TO.N,unconnected-(J4-Pin_5-Pad5)*%
X102540000Y-56000000D03*
%TD*%
D11*
%TO.P,J3,1,Pin_1*%
%TO.N,GND*%
X85500000Y-97500000D03*
D10*
%TO.P,J3,2,Pin_2*%
%TO.N,Net-(J1-Pin_11)*%
X85500000Y-100040000D03*
%TO.P,J3,3,Pin_3*%
%TO.N,3V3*%
X85500000Y-102580000D03*
%TD*%
D11*
%TO.P,J1,1,Pin_1*%
%TO.N,Net-(J1-Pin_1)*%
X113500000Y-64380000D03*
D10*
%TO.P,J1,2,Pin_2*%
%TO.N,Net-(J1-Pin_2)*%
X113500000Y-66920000D03*
%TO.P,J1,3,Pin_3*%
%TO.N,unconnected-(J1-Pin_3-Pad3)*%
X113500000Y-69460000D03*
%TO.P,J1,4,Pin_4*%
%TO.N,unconnected-(J1-Pin_4-Pad4)*%
X113500000Y-72000000D03*
%TO.P,J1,5,Pin_5*%
%TO.N,unconnected-(J1-Pin_5-Pad5)*%
X113500000Y-74540000D03*
%TO.P,J1,6,Pin_6*%
%TO.N,unconnected-(J1-Pin_6-Pad6)*%
X113500000Y-77080000D03*
%TO.P,J1,7,Pin_7*%
%TO.N,unconnected-(J1-Pin_7-Pad7)*%
X113500000Y-79620000D03*
%TO.P,J1,8,Pin_8*%
%TO.N,unconnected-(J1-Pin_8-Pad8)*%
X113500000Y-82160000D03*
%TO.P,J1,9,Pin_9*%
%TO.N,Net-(J1-Pin_9)*%
X113500000Y-84700000D03*
%TO.P,J1,10,Pin_10*%
%TO.N,Net-(J1-Pin_10)*%
X113500000Y-87240000D03*
%TO.P,J1,11,Pin_11*%
%TO.N,Net-(J1-Pin_11)*%
X113500000Y-89780000D03*
%TO.P,J1,12,Pin_12*%
%TO.N,unconnected-(J1-Pin_12-Pad12)*%
X113500000Y-92320000D03*
%TO.P,J1,13,Pin_13*%
%TO.N,unconnected-(J1-Pin_13-Pad13)*%
X113500000Y-94860000D03*
%TD*%
D15*
%TO.P,D1,1,K*%
%TO.N,GND*%
X92062500Y-86500000D03*
%TO.P,D1,2,A*%
%TO.N,Net-(D1-A)*%
X93937500Y-86500000D03*
%TD*%
D16*
%TO.N,3V3*%
X125540000Y-79500000D02*
X131175000Y-79500000D01*
%TO.N,Net-(D1-A)*%
X100675000Y-86500000D02*
X93937500Y-86500000D01*
%TO.N,GND*%
X92062500Y-86500000D02*
X92062500Y-90937500D01*
%TO.N,Net-(J5-Pin_9)*%
X131527500Y-81385000D02*
X131115000Y-81385000D01*
X133412500Y-79500000D02*
X131527500Y-81385000D01*
X131115000Y-102225000D02*
X131115000Y-81385000D01*
X138160000Y-80160000D02*
X144000000Y-80160000D01*
X137500000Y-79500000D02*
X138160000Y-80160000D01*
X133000000Y-79500000D02*
X137500000Y-79500000D01*
%TO.N,GND*%
X129964000Y-103614000D02*
X129964000Y-96624000D01*
X131115000Y-104765000D02*
X129964000Y-103614000D01*
%TO.N,Net-(J5-Pin_9)*%
X133412500Y-79500000D02*
X133901000Y-79988500D01*
X143340000Y-79500000D02*
X144000000Y-80160000D01*
%TO.N,Net-(J1-Pin_1)*%
X108380000Y-64380000D02*
X113500000Y-64380000D01*
X100000000Y-56000000D02*
X108380000Y-64380000D01*
%TO.N,Net-(J1-Pin_2)*%
X108380000Y-66920000D02*
X113500000Y-66920000D01*
X97460000Y-56000000D02*
X108380000Y-66920000D01*
%TO.N,GND*%
X79460000Y-71460000D02*
X94920000Y-56000000D01*
X79460000Y-73460000D02*
X79460000Y-71460000D01*
%TO.N,Net-(J1-Pin_10)*%
X103240000Y-87240000D02*
X102500000Y-86500000D01*
X113500000Y-87240000D02*
X103240000Y-87240000D01*
%TO.N,Net-(J1-Pin_9)*%
X104800000Y-76000000D02*
X113500000Y-84700000D01*
X82000000Y-76000000D02*
X104800000Y-76000000D01*
%TO.N,GND*%
X92062500Y-90937500D02*
X85500000Y-97500000D01*
%TO.N,3V3*%
X79460000Y-96540000D02*
X79460000Y-78540000D01*
X85500000Y-102580000D02*
X79460000Y-96540000D01*
%TO.N,Net-(J1-Pin_11)*%
X103240000Y-100040000D02*
X85500000Y-100040000D01*
X113500000Y-89780000D02*
X103240000Y-100040000D01*
%TO.N,3V3*%
X118000000Y-71960000D02*
X125540000Y-79500000D01*
%TO.N,GND*%
X129964000Y-96624000D02*
X118000000Y-84660000D01*
%TD*%
M02*
