%TF.GenerationSoftware,KiCad,Pcbnew,9.0.7*%
%TF.CreationDate,2026-03-12T10:19:53-04:00*%
%TF.ProjectId,Projet_mi-session,50726f6a-6574-45f6-9d69-2d7365737369,rev?*%
%TF.SameCoordinates,Original*%
%TF.FileFunction,Legend,Top*%
%TF.FilePolarity,Positive*%
%FSLAX46Y46*%
G04 Gerber Fmt 4.6, Leading zero omitted, Abs format (unit mm)*
G04 Created by KiCad (PCBNEW 9.0.7) date 2026-03-12 10:19:53*
%MOMM*%
%LPD*%
G01*
G04 APERTURE LIST*
%ADD10C,0.150000*%
%ADD11C,0.120000*%
%ADD12C,0.200000*%
%ADD13C,0.127000*%
G04 APERTURE END LIST*
D10*
X102833333Y-128584819D02*
X102500000Y-128108628D01*
X102261905Y-128584819D02*
X102261905Y-127584819D01*
X102261905Y-127584819D02*
X102642857Y-127584819D01*
X102642857Y-127584819D02*
X102738095Y-127632438D01*
X102738095Y-127632438D02*
X102785714Y-127680057D01*
X102785714Y-127680057D02*
X102833333Y-127775295D01*
X102833333Y-127775295D02*
X102833333Y-127918152D01*
X102833333Y-127918152D02*
X102785714Y-128013390D01*
X102785714Y-128013390D02*
X102738095Y-128061009D01*
X102738095Y-128061009D02*
X102642857Y-128108628D01*
X102642857Y-128108628D02*
X102261905Y-128108628D01*
X103690476Y-127918152D02*
X103690476Y-128584819D01*
X103452381Y-127537200D02*
X103214286Y-128251485D01*
X103214286Y-128251485D02*
X103833333Y-128251485D01*
X117166666Y-150274819D02*
X117166666Y-150989104D01*
X117166666Y-150989104D02*
X117119047Y-151131961D01*
X117119047Y-151131961D02*
X117023809Y-151227200D01*
X117023809Y-151227200D02*
X116880952Y-151274819D01*
X116880952Y-151274819D02*
X116785714Y-151274819D01*
X117595238Y-150370057D02*
X117642857Y-150322438D01*
X117642857Y-150322438D02*
X117738095Y-150274819D01*
X117738095Y-150274819D02*
X117976190Y-150274819D01*
X117976190Y-150274819D02*
X118071428Y-150322438D01*
X118071428Y-150322438D02*
X118119047Y-150370057D01*
X118119047Y-150370057D02*
X118166666Y-150465295D01*
X118166666Y-150465295D02*
X118166666Y-150560533D01*
X118166666Y-150560533D02*
X118119047Y-150703390D01*
X118119047Y-150703390D02*
X117547619Y-151274819D01*
X117547619Y-151274819D02*
X118166666Y-151274819D01*
X103333333Y-147584819D02*
X103000000Y-147108628D01*
X102761905Y-147584819D02*
X102761905Y-146584819D01*
X102761905Y-146584819D02*
X103142857Y-146584819D01*
X103142857Y-146584819D02*
X103238095Y-146632438D01*
X103238095Y-146632438D02*
X103285714Y-146680057D01*
X103285714Y-146680057D02*
X103333333Y-146775295D01*
X103333333Y-146775295D02*
X103333333Y-146918152D01*
X103333333Y-146918152D02*
X103285714Y-147013390D01*
X103285714Y-147013390D02*
X103238095Y-147061009D01*
X103238095Y-147061009D02*
X103142857Y-147108628D01*
X103142857Y-147108628D02*
X102761905Y-147108628D01*
X104190476Y-146584819D02*
X104000000Y-146584819D01*
X104000000Y-146584819D02*
X103904762Y-146632438D01*
X103904762Y-146632438D02*
X103857143Y-146680057D01*
X103857143Y-146680057D02*
X103761905Y-146822914D01*
X103761905Y-146822914D02*
X103714286Y-147013390D01*
X103714286Y-147013390D02*
X103714286Y-147394342D01*
X103714286Y-147394342D02*
X103761905Y-147489580D01*
X103761905Y-147489580D02*
X103809524Y-147537200D01*
X103809524Y-147537200D02*
X103904762Y-147584819D01*
X103904762Y-147584819D02*
X104095238Y-147584819D01*
X104095238Y-147584819D02*
X104190476Y-147537200D01*
X104190476Y-147537200D02*
X104238095Y-147489580D01*
X104238095Y-147489580D02*
X104285714Y-147394342D01*
X104285714Y-147394342D02*
X104285714Y-147156247D01*
X104285714Y-147156247D02*
X104238095Y-147061009D01*
X104238095Y-147061009D02*
X104190476Y-147013390D01*
X104190476Y-147013390D02*
X104095238Y-146965771D01*
X104095238Y-146965771D02*
X103904762Y-146965771D01*
X103904762Y-146965771D02*
X103809524Y-147013390D01*
X103809524Y-147013390D02*
X103761905Y-147061009D01*
X103761905Y-147061009D02*
X103714286Y-147156247D01*
X164333333Y-144324819D02*
X164000000Y-143848628D01*
X163761905Y-144324819D02*
X163761905Y-143324819D01*
X163761905Y-143324819D02*
X164142857Y-143324819D01*
X164142857Y-143324819D02*
X164238095Y-143372438D01*
X164238095Y-143372438D02*
X164285714Y-143420057D01*
X164285714Y-143420057D02*
X164333333Y-143515295D01*
X164333333Y-143515295D02*
X164333333Y-143658152D01*
X164333333Y-143658152D02*
X164285714Y-143753390D01*
X164285714Y-143753390D02*
X164238095Y-143801009D01*
X164238095Y-143801009D02*
X164142857Y-143848628D01*
X164142857Y-143848628D02*
X163761905Y-143848628D01*
X165285714Y-144324819D02*
X164714286Y-144324819D01*
X165000000Y-144324819D02*
X165000000Y-143324819D01*
X165000000Y-143324819D02*
X164904762Y-143467676D01*
X164904762Y-143467676D02*
X164809524Y-143562914D01*
X164809524Y-143562914D02*
X164714286Y-143610533D01*
X147166666Y-107954819D02*
X147166666Y-108669104D01*
X147166666Y-108669104D02*
X147119047Y-108811961D01*
X147119047Y-108811961D02*
X147023809Y-108907200D01*
X147023809Y-108907200D02*
X146880952Y-108954819D01*
X146880952Y-108954819D02*
X146785714Y-108954819D01*
X148166666Y-108954819D02*
X147595238Y-108954819D01*
X147880952Y-108954819D02*
X147880952Y-107954819D01*
X147880952Y-107954819D02*
X147785714Y-108097676D01*
X147785714Y-108097676D02*
X147690476Y-108192914D01*
X147690476Y-108192914D02*
X147595238Y-108240533D01*
X84741667Y-151292200D02*
X84884524Y-151339819D01*
X84884524Y-151339819D02*
X85122619Y-151339819D01*
X85122619Y-151339819D02*
X85217857Y-151292200D01*
X85217857Y-151292200D02*
X85265476Y-151244580D01*
X85265476Y-151244580D02*
X85313095Y-151149342D01*
X85313095Y-151149342D02*
X85313095Y-151054104D01*
X85313095Y-151054104D02*
X85265476Y-150958866D01*
X85265476Y-150958866D02*
X85217857Y-150911247D01*
X85217857Y-150911247D02*
X85122619Y-150863628D01*
X85122619Y-150863628D02*
X84932143Y-150816009D01*
X84932143Y-150816009D02*
X84836905Y-150768390D01*
X84836905Y-150768390D02*
X84789286Y-150720771D01*
X84789286Y-150720771D02*
X84741667Y-150625533D01*
X84741667Y-150625533D02*
X84741667Y-150530295D01*
X84741667Y-150530295D02*
X84789286Y-150435057D01*
X84789286Y-150435057D02*
X84836905Y-150387438D01*
X84836905Y-150387438D02*
X84932143Y-150339819D01*
X84932143Y-150339819D02*
X85170238Y-150339819D01*
X85170238Y-150339819D02*
X85313095Y-150387438D01*
X85646429Y-150339819D02*
X85884524Y-151339819D01*
X85884524Y-151339819D02*
X86075000Y-150625533D01*
X86075000Y-150625533D02*
X86265476Y-151339819D01*
X86265476Y-151339819D02*
X86503572Y-150339819D01*
X86836905Y-150435057D02*
X86884524Y-150387438D01*
X86884524Y-150387438D02*
X86979762Y-150339819D01*
X86979762Y-150339819D02*
X87217857Y-150339819D01*
X87217857Y-150339819D02*
X87313095Y-150387438D01*
X87313095Y-150387438D02*
X87360714Y-150435057D01*
X87360714Y-150435057D02*
X87408333Y-150530295D01*
X87408333Y-150530295D02*
X87408333Y-150625533D01*
X87408333Y-150625533D02*
X87360714Y-150768390D01*
X87360714Y-150768390D02*
X86789286Y-151339819D01*
X86789286Y-151339819D02*
X87408333Y-151339819D01*
X84741667Y-126292200D02*
X84884524Y-126339819D01*
X84884524Y-126339819D02*
X85122619Y-126339819D01*
X85122619Y-126339819D02*
X85217857Y-126292200D01*
X85217857Y-126292200D02*
X85265476Y-126244580D01*
X85265476Y-126244580D02*
X85313095Y-126149342D01*
X85313095Y-126149342D02*
X85313095Y-126054104D01*
X85313095Y-126054104D02*
X85265476Y-125958866D01*
X85265476Y-125958866D02*
X85217857Y-125911247D01*
X85217857Y-125911247D02*
X85122619Y-125863628D01*
X85122619Y-125863628D02*
X84932143Y-125816009D01*
X84932143Y-125816009D02*
X84836905Y-125768390D01*
X84836905Y-125768390D02*
X84789286Y-125720771D01*
X84789286Y-125720771D02*
X84741667Y-125625533D01*
X84741667Y-125625533D02*
X84741667Y-125530295D01*
X84741667Y-125530295D02*
X84789286Y-125435057D01*
X84789286Y-125435057D02*
X84836905Y-125387438D01*
X84836905Y-125387438D02*
X84932143Y-125339819D01*
X84932143Y-125339819D02*
X85170238Y-125339819D01*
X85170238Y-125339819D02*
X85313095Y-125387438D01*
X85646429Y-125339819D02*
X85884524Y-126339819D01*
X85884524Y-126339819D02*
X86075000Y-125625533D01*
X86075000Y-125625533D02*
X86265476Y-126339819D01*
X86265476Y-126339819D02*
X86503572Y-125339819D01*
X87408333Y-126339819D02*
X86836905Y-126339819D01*
X87122619Y-126339819D02*
X87122619Y-125339819D01*
X87122619Y-125339819D02*
X87027381Y-125482676D01*
X87027381Y-125482676D02*
X86932143Y-125577914D01*
X86932143Y-125577914D02*
X86836905Y-125625533D01*
X85241667Y-168292200D02*
X85384524Y-168339819D01*
X85384524Y-168339819D02*
X85622619Y-168339819D01*
X85622619Y-168339819D02*
X85717857Y-168292200D01*
X85717857Y-168292200D02*
X85765476Y-168244580D01*
X85765476Y-168244580D02*
X85813095Y-168149342D01*
X85813095Y-168149342D02*
X85813095Y-168054104D01*
X85813095Y-168054104D02*
X85765476Y-167958866D01*
X85765476Y-167958866D02*
X85717857Y-167911247D01*
X85717857Y-167911247D02*
X85622619Y-167863628D01*
X85622619Y-167863628D02*
X85432143Y-167816009D01*
X85432143Y-167816009D02*
X85336905Y-167768390D01*
X85336905Y-167768390D02*
X85289286Y-167720771D01*
X85289286Y-167720771D02*
X85241667Y-167625533D01*
X85241667Y-167625533D02*
X85241667Y-167530295D01*
X85241667Y-167530295D02*
X85289286Y-167435057D01*
X85289286Y-167435057D02*
X85336905Y-167387438D01*
X85336905Y-167387438D02*
X85432143Y-167339819D01*
X85432143Y-167339819D02*
X85670238Y-167339819D01*
X85670238Y-167339819D02*
X85813095Y-167387438D01*
X86146429Y-167339819D02*
X86384524Y-168339819D01*
X86384524Y-168339819D02*
X86575000Y-167625533D01*
X86575000Y-167625533D02*
X86765476Y-168339819D01*
X86765476Y-168339819D02*
X87003572Y-167339819D01*
X87289286Y-167339819D02*
X87908333Y-167339819D01*
X87908333Y-167339819D02*
X87575000Y-167720771D01*
X87575000Y-167720771D02*
X87717857Y-167720771D01*
X87717857Y-167720771D02*
X87813095Y-167768390D01*
X87813095Y-167768390D02*
X87860714Y-167816009D01*
X87860714Y-167816009D02*
X87908333Y-167911247D01*
X87908333Y-167911247D02*
X87908333Y-168149342D01*
X87908333Y-168149342D02*
X87860714Y-168244580D01*
X87860714Y-168244580D02*
X87813095Y-168292200D01*
X87813095Y-168292200D02*
X87717857Y-168339819D01*
X87717857Y-168339819D02*
X87432143Y-168339819D01*
X87432143Y-168339819D02*
X87336905Y-168292200D01*
X87336905Y-168292200D02*
X87289286Y-168244580D01*
X109429819Y-116080238D02*
X108953628Y-116413571D01*
X109429819Y-116651666D02*
X108429819Y-116651666D01*
X108429819Y-116651666D02*
X108429819Y-116270714D01*
X108429819Y-116270714D02*
X108477438Y-116175476D01*
X108477438Y-116175476D02*
X108525057Y-116127857D01*
X108525057Y-116127857D02*
X108620295Y-116080238D01*
X108620295Y-116080238D02*
X108763152Y-116080238D01*
X108763152Y-116080238D02*
X108858390Y-116127857D01*
X108858390Y-116127857D02*
X108906009Y-116175476D01*
X108906009Y-116175476D02*
X108953628Y-116270714D01*
X108953628Y-116270714D02*
X108953628Y-116651666D01*
X108429819Y-115794523D02*
X109429819Y-115461190D01*
X109429819Y-115461190D02*
X108429819Y-115127857D01*
X109429819Y-114270714D02*
X109429819Y-114842142D01*
X109429819Y-114556428D02*
X108429819Y-114556428D01*
X108429819Y-114556428D02*
X108572676Y-114651666D01*
X108572676Y-114651666D02*
X108667914Y-114746904D01*
X108667914Y-114746904D02*
X108715533Y-114842142D01*
X102833333Y-136084819D02*
X102500000Y-135608628D01*
X102261905Y-136084819D02*
X102261905Y-135084819D01*
X102261905Y-135084819D02*
X102642857Y-135084819D01*
X102642857Y-135084819D02*
X102738095Y-135132438D01*
X102738095Y-135132438D02*
X102785714Y-135180057D01*
X102785714Y-135180057D02*
X102833333Y-135275295D01*
X102833333Y-135275295D02*
X102833333Y-135418152D01*
X102833333Y-135418152D02*
X102785714Y-135513390D01*
X102785714Y-135513390D02*
X102738095Y-135561009D01*
X102738095Y-135561009D02*
X102642857Y-135608628D01*
X102642857Y-135608628D02*
X102261905Y-135608628D01*
X103738095Y-135084819D02*
X103261905Y-135084819D01*
X103261905Y-135084819D02*
X103214286Y-135561009D01*
X103214286Y-135561009D02*
X103261905Y-135513390D01*
X103261905Y-135513390D02*
X103357143Y-135465771D01*
X103357143Y-135465771D02*
X103595238Y-135465771D01*
X103595238Y-135465771D02*
X103690476Y-135513390D01*
X103690476Y-135513390D02*
X103738095Y-135561009D01*
X103738095Y-135561009D02*
X103785714Y-135656247D01*
X103785714Y-135656247D02*
X103785714Y-135894342D01*
X103785714Y-135894342D02*
X103738095Y-135989580D01*
X103738095Y-135989580D02*
X103690476Y-136037200D01*
X103690476Y-136037200D02*
X103595238Y-136084819D01*
X103595238Y-136084819D02*
X103357143Y-136084819D01*
X103357143Y-136084819D02*
X103261905Y-136037200D01*
X103261905Y-136037200D02*
X103214286Y-135989580D01*
X164333333Y-130324819D02*
X164000000Y-129848628D01*
X163761905Y-130324819D02*
X163761905Y-129324819D01*
X163761905Y-129324819D02*
X164142857Y-129324819D01*
X164142857Y-129324819D02*
X164238095Y-129372438D01*
X164238095Y-129372438D02*
X164285714Y-129420057D01*
X164285714Y-129420057D02*
X164333333Y-129515295D01*
X164333333Y-129515295D02*
X164333333Y-129658152D01*
X164333333Y-129658152D02*
X164285714Y-129753390D01*
X164285714Y-129753390D02*
X164238095Y-129801009D01*
X164238095Y-129801009D02*
X164142857Y-129848628D01*
X164142857Y-129848628D02*
X163761905Y-129848628D01*
X164666667Y-129324819D02*
X165285714Y-129324819D01*
X165285714Y-129324819D02*
X164952381Y-129705771D01*
X164952381Y-129705771D02*
X165095238Y-129705771D01*
X165095238Y-129705771D02*
X165190476Y-129753390D01*
X165190476Y-129753390D02*
X165238095Y-129801009D01*
X165238095Y-129801009D02*
X165285714Y-129896247D01*
X165285714Y-129896247D02*
X165285714Y-130134342D01*
X165285714Y-130134342D02*
X165238095Y-130229580D01*
X165238095Y-130229580D02*
X165190476Y-130277200D01*
X165190476Y-130277200D02*
X165095238Y-130324819D01*
X165095238Y-130324819D02*
X164809524Y-130324819D01*
X164809524Y-130324819D02*
X164714286Y-130277200D01*
X164714286Y-130277200D02*
X164666667Y-130229580D01*
X164333333Y-137324819D02*
X164000000Y-136848628D01*
X163761905Y-137324819D02*
X163761905Y-136324819D01*
X163761905Y-136324819D02*
X164142857Y-136324819D01*
X164142857Y-136324819D02*
X164238095Y-136372438D01*
X164238095Y-136372438D02*
X164285714Y-136420057D01*
X164285714Y-136420057D02*
X164333333Y-136515295D01*
X164333333Y-136515295D02*
X164333333Y-136658152D01*
X164333333Y-136658152D02*
X164285714Y-136753390D01*
X164285714Y-136753390D02*
X164238095Y-136801009D01*
X164238095Y-136801009D02*
X164142857Y-136848628D01*
X164142857Y-136848628D02*
X163761905Y-136848628D01*
X164714286Y-136420057D02*
X164761905Y-136372438D01*
X164761905Y-136372438D02*
X164857143Y-136324819D01*
X164857143Y-136324819D02*
X165095238Y-136324819D01*
X165095238Y-136324819D02*
X165190476Y-136372438D01*
X165190476Y-136372438D02*
X165238095Y-136420057D01*
X165238095Y-136420057D02*
X165285714Y-136515295D01*
X165285714Y-136515295D02*
X165285714Y-136610533D01*
X165285714Y-136610533D02*
X165238095Y-136753390D01*
X165238095Y-136753390D02*
X164666667Y-137324819D01*
X164666667Y-137324819D02*
X165285714Y-137324819D01*
X136666666Y-85574819D02*
X136666666Y-86289104D01*
X136666666Y-86289104D02*
X136619047Y-86431961D01*
X136619047Y-86431961D02*
X136523809Y-86527200D01*
X136523809Y-86527200D02*
X136380952Y-86574819D01*
X136380952Y-86574819D02*
X136285714Y-86574819D01*
X137571428Y-85908152D02*
X137571428Y-86574819D01*
X137333333Y-85527200D02*
X137095238Y-86241485D01*
X137095238Y-86241485D02*
X137714285Y-86241485D01*
X124666666Y-85534819D02*
X124666666Y-86249104D01*
X124666666Y-86249104D02*
X124619047Y-86391961D01*
X124619047Y-86391961D02*
X124523809Y-86487200D01*
X124523809Y-86487200D02*
X124380952Y-86534819D01*
X124380952Y-86534819D02*
X124285714Y-86534819D01*
X125047619Y-85534819D02*
X125666666Y-85534819D01*
X125666666Y-85534819D02*
X125333333Y-85915771D01*
X125333333Y-85915771D02*
X125476190Y-85915771D01*
X125476190Y-85915771D02*
X125571428Y-85963390D01*
X125571428Y-85963390D02*
X125619047Y-86011009D01*
X125619047Y-86011009D02*
X125666666Y-86106247D01*
X125666666Y-86106247D02*
X125666666Y-86344342D01*
X125666666Y-86344342D02*
X125619047Y-86439580D01*
X125619047Y-86439580D02*
X125571428Y-86487200D01*
X125571428Y-86487200D02*
X125476190Y-86534819D01*
X125476190Y-86534819D02*
X125190476Y-86534819D01*
X125190476Y-86534819D02*
X125095238Y-86487200D01*
X125095238Y-86487200D02*
X125047619Y-86439580D01*
X180766905Y-151914819D02*
X180766905Y-150914819D01*
X180766905Y-150914819D02*
X181005000Y-150914819D01*
X181005000Y-150914819D02*
X181147857Y-150962438D01*
X181147857Y-150962438D02*
X181243095Y-151057676D01*
X181243095Y-151057676D02*
X181290714Y-151152914D01*
X181290714Y-151152914D02*
X181338333Y-151343390D01*
X181338333Y-151343390D02*
X181338333Y-151486247D01*
X181338333Y-151486247D02*
X181290714Y-151676723D01*
X181290714Y-151676723D02*
X181243095Y-151771961D01*
X181243095Y-151771961D02*
X181147857Y-151867200D01*
X181147857Y-151867200D02*
X181005000Y-151914819D01*
X181005000Y-151914819D02*
X180766905Y-151914819D01*
X181671667Y-150914819D02*
X182290714Y-150914819D01*
X182290714Y-150914819D02*
X181957381Y-151295771D01*
X181957381Y-151295771D02*
X182100238Y-151295771D01*
X182100238Y-151295771D02*
X182195476Y-151343390D01*
X182195476Y-151343390D02*
X182243095Y-151391009D01*
X182243095Y-151391009D02*
X182290714Y-151486247D01*
X182290714Y-151486247D02*
X182290714Y-151724342D01*
X182290714Y-151724342D02*
X182243095Y-151819580D01*
X182243095Y-151819580D02*
X182195476Y-151867200D01*
X182195476Y-151867200D02*
X182100238Y-151914819D01*
X182100238Y-151914819D02*
X181814524Y-151914819D01*
X181814524Y-151914819D02*
X181719286Y-151867200D01*
X181719286Y-151867200D02*
X181671667Y-151819580D01*
X180491905Y-139414819D02*
X180491905Y-138414819D01*
X180491905Y-138414819D02*
X180730000Y-138414819D01*
X180730000Y-138414819D02*
X180872857Y-138462438D01*
X180872857Y-138462438D02*
X180968095Y-138557676D01*
X180968095Y-138557676D02*
X181015714Y-138652914D01*
X181015714Y-138652914D02*
X181063333Y-138843390D01*
X181063333Y-138843390D02*
X181063333Y-138986247D01*
X181063333Y-138986247D02*
X181015714Y-139176723D01*
X181015714Y-139176723D02*
X180968095Y-139271961D01*
X180968095Y-139271961D02*
X180872857Y-139367200D01*
X180872857Y-139367200D02*
X180730000Y-139414819D01*
X180730000Y-139414819D02*
X180491905Y-139414819D01*
X181444286Y-138510057D02*
X181491905Y-138462438D01*
X181491905Y-138462438D02*
X181587143Y-138414819D01*
X181587143Y-138414819D02*
X181825238Y-138414819D01*
X181825238Y-138414819D02*
X181920476Y-138462438D01*
X181920476Y-138462438D02*
X181968095Y-138510057D01*
X181968095Y-138510057D02*
X182015714Y-138605295D01*
X182015714Y-138605295D02*
X182015714Y-138700533D01*
X182015714Y-138700533D02*
X181968095Y-138843390D01*
X181968095Y-138843390D02*
X181396667Y-139414819D01*
X181396667Y-139414819D02*
X182015714Y-139414819D01*
X179991905Y-126914819D02*
X179991905Y-125914819D01*
X179991905Y-125914819D02*
X180230000Y-125914819D01*
X180230000Y-125914819D02*
X180372857Y-125962438D01*
X180372857Y-125962438D02*
X180468095Y-126057676D01*
X180468095Y-126057676D02*
X180515714Y-126152914D01*
X180515714Y-126152914D02*
X180563333Y-126343390D01*
X180563333Y-126343390D02*
X180563333Y-126486247D01*
X180563333Y-126486247D02*
X180515714Y-126676723D01*
X180515714Y-126676723D02*
X180468095Y-126771961D01*
X180468095Y-126771961D02*
X180372857Y-126867200D01*
X180372857Y-126867200D02*
X180230000Y-126914819D01*
X180230000Y-126914819D02*
X179991905Y-126914819D01*
X181515714Y-126914819D02*
X180944286Y-126914819D01*
X181230000Y-126914819D02*
X181230000Y-125914819D01*
X181230000Y-125914819D02*
X181134762Y-126057676D01*
X181134762Y-126057676D02*
X181039524Y-126152914D01*
X181039524Y-126152914D02*
X180944286Y-126200533D01*
D11*
%TO.C,R4*%
X99730000Y-129130000D02*
X106270000Y-129130000D01*
X99730000Y-129460000D02*
X99730000Y-129130000D01*
X99730000Y-131540000D02*
X99730000Y-131870000D01*
X99730000Y-131870000D02*
X106270000Y-131870000D01*
X106270000Y-129130000D02*
X106270000Y-129460000D01*
X106270000Y-131870000D02*
X106270000Y-131540000D01*
%TO.C,J2*%
X116120000Y-147170000D02*
X116120000Y-108960000D01*
X118880000Y-108960000D02*
X116120000Y-108960000D01*
X118880000Y-147170000D02*
X116120000Y-147170000D01*
X118880000Y-147170000D02*
X118880000Y-108960000D01*
X118880000Y-148440000D02*
X118880000Y-149820000D01*
X118880000Y-149820000D02*
X117500000Y-149820000D01*
%TO.C,R6*%
X106770000Y-150870000D02*
X106770000Y-150540000D01*
X106770000Y-148130000D02*
X106770000Y-148460000D01*
X100230000Y-150870000D02*
X106770000Y-150870000D01*
X100230000Y-150540000D02*
X100230000Y-150870000D01*
X100230000Y-148460000D02*
X100230000Y-148130000D01*
X100230000Y-148130000D02*
X106770000Y-148130000D01*
%TO.C,R1*%
X161230000Y-140130000D02*
X161230000Y-140460000D01*
X161230000Y-142870000D02*
X161230000Y-142540000D01*
X167770000Y-140130000D02*
X161230000Y-140130000D01*
X167770000Y-140460000D02*
X167770000Y-140130000D01*
X167770000Y-142540000D02*
X167770000Y-142870000D01*
X167770000Y-142870000D02*
X161230000Y-142870000D01*
%TO.C,J1*%
X148880000Y-112150000D02*
X148880000Y-150360000D01*
X146120000Y-150360000D02*
X148880000Y-150360000D01*
X146120000Y-112150000D02*
X148880000Y-112150000D01*
X146120000Y-112150000D02*
X146120000Y-150360000D01*
X146120000Y-110880000D02*
X146120000Y-109500000D01*
X146120000Y-109500000D02*
X147500000Y-109500000D01*
D12*
%TO.C,SW2*%
X89850000Y-145000000D02*
G75*
G02*
X89650000Y-145000000I-100000J0D01*
G01*
X89650000Y-145000000D02*
G75*
G02*
X89850000Y-145000000I100000J0D01*
G01*
D13*
X81000000Y-141000000D02*
X89000000Y-141000000D01*
X81000000Y-149000000D02*
X81000000Y-141000000D01*
X89000000Y-149000000D02*
X81000000Y-149000000D01*
X89000000Y-141000000D02*
X89000000Y-149000000D01*
D12*
%TO.C,SW1*%
X89850000Y-120000000D02*
G75*
G02*
X89650000Y-120000000I-100000J0D01*
G01*
X89650000Y-120000000D02*
G75*
G02*
X89850000Y-120000000I100000J0D01*
G01*
D13*
X81000000Y-116000000D02*
X89000000Y-116000000D01*
X81000000Y-124000000D02*
X81000000Y-116000000D01*
X89000000Y-124000000D02*
X81000000Y-124000000D01*
X89000000Y-116000000D02*
X89000000Y-124000000D01*
%TO.C,SW3*%
X89500000Y-158000000D02*
X89500000Y-166000000D01*
X89500000Y-166000000D02*
X81500000Y-166000000D01*
X81500000Y-166000000D02*
X81500000Y-158000000D01*
X81500000Y-158000000D02*
X89500000Y-158000000D01*
D12*
X90350000Y-162000000D02*
G75*
G02*
X90150000Y-162000000I-100000J0D01*
G01*
X90150000Y-162000000D02*
G75*
G02*
X90350000Y-162000000I100000J0D01*
G01*
D11*
%TO.C,RV1*%
X107835000Y-110610000D02*
X107835000Y-120360000D01*
X98085000Y-110610000D02*
X107835000Y-110610000D01*
X107835000Y-120360000D02*
X98085000Y-120360000D01*
X98085000Y-120360000D02*
X98085000Y-110610000D01*
%TO.C,R5*%
X99730000Y-136630000D02*
X106270000Y-136630000D01*
X99730000Y-136960000D02*
X99730000Y-136630000D01*
X99730000Y-139040000D02*
X99730000Y-139370000D01*
X99730000Y-139370000D02*
X106270000Y-139370000D01*
X106270000Y-136630000D02*
X106270000Y-136960000D01*
X106270000Y-139370000D02*
X106270000Y-139040000D01*
%TO.C,R3*%
X167770000Y-128870000D02*
X161230000Y-128870000D01*
X167770000Y-128540000D02*
X167770000Y-128870000D01*
X167770000Y-126460000D02*
X167770000Y-126130000D01*
X167770000Y-126130000D02*
X161230000Y-126130000D01*
X161230000Y-128870000D02*
X161230000Y-128540000D01*
X161230000Y-126130000D02*
X161230000Y-126460000D01*
%TO.C,R2*%
X167770000Y-135870000D02*
X161230000Y-135870000D01*
X167770000Y-135540000D02*
X167770000Y-135870000D01*
X167770000Y-133460000D02*
X167770000Y-133130000D01*
X167770000Y-133130000D02*
X161230000Y-133130000D01*
X161230000Y-135870000D02*
X161230000Y-135540000D01*
X161230000Y-133130000D02*
X161230000Y-133460000D01*
%TO.C,J4*%
X135620000Y-87120000D02*
X137000000Y-87120000D01*
X135620000Y-88500000D02*
X135620000Y-87120000D01*
X135620000Y-89770000D02*
X135620000Y-102580000D01*
X135620000Y-89770000D02*
X138380000Y-89770000D01*
X135620000Y-102580000D02*
X138380000Y-102580000D01*
X138380000Y-89770000D02*
X138380000Y-102580000D01*
%TO.C,J3*%
X123620000Y-87080000D02*
X125000000Y-87080000D01*
X123620000Y-88460000D02*
X123620000Y-87080000D01*
X123620000Y-89730000D02*
X123620000Y-102540000D01*
X123620000Y-89730000D02*
X126380000Y-89730000D01*
X123620000Y-102540000D02*
X126380000Y-102540000D01*
X126380000Y-89730000D02*
X126380000Y-102540000D01*
%TO.C,D3*%
X184065000Y-149045000D02*
X184065000Y-145955000D01*
X184065000Y-149044830D02*
G75*
G02*
X178515000Y-147500000I-2560000J1544830D01*
G01*
X178515000Y-147500000D02*
G75*
G02*
X184065000Y-145955170I2990000J0D01*
G01*
X184005000Y-147500000D02*
G75*
G02*
X179005000Y-147500000I-2500000J0D01*
G01*
X179005000Y-147500000D02*
G75*
G02*
X184005000Y-147500000I2500000J0D01*
G01*
%TO.C,D2*%
X183790000Y-136545000D02*
X183790000Y-133455000D01*
X183790000Y-136544830D02*
G75*
G02*
X178240000Y-135000000I-2560000J1544830D01*
G01*
X178240000Y-135000000D02*
G75*
G02*
X183790000Y-133455170I2990000J0D01*
G01*
X183730000Y-135000000D02*
G75*
G02*
X178730000Y-135000000I-2500000J0D01*
G01*
X178730000Y-135000000D02*
G75*
G02*
X183730000Y-135000000I2500000J0D01*
G01*
%TO.C,D1*%
X183290000Y-124045000D02*
X183290000Y-120955000D01*
X183290000Y-124044830D02*
G75*
G02*
X177740000Y-122500000I-2560000J1544830D01*
G01*
X177740000Y-122500000D02*
G75*
G02*
X183290000Y-120955170I2990000J0D01*
G01*
X183230000Y-122500000D02*
G75*
G02*
X178230000Y-122500000I-2500000J0D01*
G01*
X178230000Y-122500000D02*
G75*
G02*
X183230000Y-122500000I2500000J0D01*
G01*
%TD*%
M02*
