%TF.GenerationSoftware,KiCad,Pcbnew,9.0.7*%
%TF.CreationDate,2026-03-12T10:19:53-04:00*%
%TF.ProjectId,Projet_mi-session,50726f6a-6574-45f6-9d69-2d7365737369,rev?*%
%TF.SameCoordinates,Original*%
%TF.FileFunction,Soldermask,Top*%
%TF.FilePolarity,Negative*%
%FSLAX46Y46*%
G04 Gerber Fmt 4.6, Leading zero omitted, Abs format (unit mm)*
G04 Created by KiCad (PCBNEW 9.0.7) date 2026-03-12 10:19:53*
%MOMM*%
%LPD*%
G01*
G04 APERTURE LIST*
G04 Aperture macros list*
%AMRoundRect*
0 Rectangle with rounded corners*
0 $1 Rounding radius*
0 $2 $3 $4 $5 $6 $7 $8 $9 X,Y pos of 4 corners*
0 Add a 4 corners polygon primitive as box body*
4,1,4,$2,$3,$4,$5,$6,$7,$8,$9,$2,$3,0*
0 Add four circle primitives for the rounded corners*
1,1,$1+$1,$2,$3*
1,1,$1+$1,$4,$5*
1,1,$1+$1,$6,$7*
1,1,$1+$1,$8,$9*
0 Add four rect primitives between the rounded corners*
20,1,$1+$1,$2,$3,$4,$5,0*
20,1,$1+$1,$4,$5,$6,$7,0*
20,1,$1+$1,$6,$7,$8,$9,0*
20,1,$1+$1,$8,$9,$2,$3,0*%
G04 Aperture macros list end*
%ADD10C,1.600000*%
%ADD11C,1.700000*%
%ADD12R,1.700000X1.700000*%
%ADD13RoundRect,0.102000X0.825000X0.825000X-0.825000X0.825000X-0.825000X-0.825000X0.825000X-0.825000X0*%
%ADD14C,1.854000*%
%ADD15C,1.440000*%
%ADD16R,1.800000X1.800000*%
%ADD17C,1.800000*%
G04 APERTURE END LIST*
D10*
%TO.C,R4*%
X99190000Y-130500000D03*
X106810000Y-130500000D03*
%TD*%
D11*
%TO.C,J2*%
X117500000Y-110340000D03*
X117500000Y-112880000D03*
X117500000Y-115420000D03*
X117500000Y-117960000D03*
X117500000Y-120500000D03*
X117500000Y-123040000D03*
X117500000Y-125580000D03*
X117500000Y-128120000D03*
X117500000Y-130660000D03*
X117500000Y-133200000D03*
X117500000Y-135740000D03*
X117500000Y-138280000D03*
X117500000Y-140820000D03*
X117500000Y-143360000D03*
X117500000Y-145900000D03*
D12*
X117500000Y-148440000D03*
%TD*%
D10*
%TO.C,R6*%
X107310000Y-149500000D03*
X99690000Y-149500000D03*
%TD*%
%TO.C,R1*%
X160690000Y-141500000D03*
X168310000Y-141500000D03*
%TD*%
D11*
%TO.C,J1*%
X147500000Y-148980000D03*
X147500000Y-146440000D03*
X147500000Y-143900000D03*
X147500000Y-141360000D03*
X147500000Y-138820000D03*
X147500000Y-136280000D03*
X147500000Y-133740000D03*
X147500000Y-131200000D03*
X147500000Y-128660000D03*
X147500000Y-126120000D03*
X147500000Y-123580000D03*
X147500000Y-121040000D03*
X147500000Y-118500000D03*
X147500000Y-115960000D03*
X147500000Y-113420000D03*
D12*
X147500000Y-110880000D03*
%TD*%
D13*
%TO.C,SW2*%
X87500000Y-145000000D03*
D14*
X82500000Y-145000000D03*
%TD*%
D13*
%TO.C,SW1*%
X87500000Y-120000000D03*
D14*
X82500000Y-120000000D03*
%TD*%
%TO.C,SW3*%
X83000000Y-162000000D03*
D13*
X88000000Y-162000000D03*
%TD*%
D15*
%TO.C,RV1*%
X100420000Y-115500000D03*
X102960000Y-118040000D03*
X105500000Y-115500000D03*
%TD*%
D10*
%TO.C,R5*%
X99190000Y-138000000D03*
X106810000Y-138000000D03*
%TD*%
%TO.C,R3*%
X168310000Y-127500000D03*
X160690000Y-127500000D03*
%TD*%
%TO.C,R2*%
X168310000Y-134500000D03*
X160690000Y-134500000D03*
%TD*%
D12*
%TO.C,J4*%
X137000000Y-88500000D03*
D11*
X137000000Y-91040000D03*
X137000000Y-93580000D03*
X137000000Y-96120000D03*
X137000000Y-98660000D03*
X137000000Y-101200000D03*
%TD*%
D12*
%TO.C,J3*%
X125000000Y-88460000D03*
D11*
X125000000Y-91000000D03*
X125000000Y-93540000D03*
X125000000Y-96080000D03*
X125000000Y-98620000D03*
X125000000Y-101160000D03*
%TD*%
D16*
%TO.C,D3*%
X182775000Y-147500000D03*
D17*
X180235000Y-147500000D03*
%TD*%
D16*
%TO.C,D2*%
X182500000Y-135000000D03*
D17*
X179960000Y-135000000D03*
%TD*%
D16*
%TO.C,D1*%
X182000000Y-122500000D03*
D17*
X179460000Y-122500000D03*
%TD*%
M02*
